Archivo Narrow Devaganari-Regular.ufo
<glyph name="exclam" format="1">
  <advance width="191"/>
  <unicode hex="0021"/>
  <outline>
    <contour>
      <point x="53" y="606" type="curve"/>
      <point x="143" y="606" type="line"/>
      <point x="140" y="584"/>
      <point x="129" y="309"/>
      <point x="122" y="144" type="curve"/>
      <point x="72" y="144" type="line"/>
      <point x="67" y="297"/>
      <point x="61" y="453"/>
    </contour>
    <contour>
      <point x="59" y="0" type="line"/>
      <point x="59" y="87" type="line"/>
      <point x="138" y="87" type="line"/>
      <point x="138" y="0" type="line"/>
    </contour>
  </outline>
</glyph>
<glyph name="quotedbl" format="1">
  <advance width="231"/>
  <unicode hex="0022"/>
  <outline>
    <contour>
      <point x="75" y="360" type="line"/>
      <point x="50" y="360" type="line"/>
      <point x="31" y="476" type="line"/>
      <point x="31" y="606" type="line"/>
      <point x="92" y="606" type="line"/>
      <point x="92" y="476" type="line"/>
    </contour>
    <contour>
      <point x="177" y="360" type="line"/>
      <point x="154" y="360" type="line"/>
      <point x="135" y="476" type="line"/>
      <point x="135" y="606" type="line"/>
      <point x="198" y="606" type="line"/>
      <point x="198" y="476" type="line"/>
    </contour>
  </outline>
</glyph>
<glyph name="numbersign" format="1">
  <advance width="403"/>
  <unicode hex="0023"/>
  <outline>
    <contour>
      <point x="390" y="359" type="line"/>
      <point x="323" y="359" type="line"/>
      <point x="291" y="219" type="line"/>
      <point x="354" y="219" type="line"/>
      <point x="354" y="154" type="line"/>
      <point x="277" y="154" type="line"/>
      <point x="243" y="0" type="line"/>
      <point x="179" y="0" type="line"/>
      <point x="213" y="154" type="line"/>
      <point x="130" y="154" type="line"/>
      <point x="95" y="0" type="line"/>
      <point x="31" y="0" type="line"/>
      <point x="66" y="154" type="line"/>
      <point x="9" y="154" type="line"/>
      <point x="9" y="219" type="line"/>
      <point x="81" y="219" type="line"/>
      <point x="112" y="359" type="line"/>
      <point x="43" y="359" type="line"/>
      <point x="43" y="425" type="line"/>
      <point x="126" y="425" type="line"/>
      <point x="168" y="614" type="line"/>
      <point x="231" y="614" type="line"/>
      <point x="190" y="425" type="line"/>
      <point x="273" y="425" type="line"/>
      <point x="315" y="614" type="line"/>
      <point x="379" y="614" type="line"/>
      <point x="338" y="425" type="line"/>
      <point x="390" y="425" type="line"/>
    </contour>
    <contour>
      <point x="228" y="219" type="line"/>
      <point x="259" y="359" type="line"/>
      <point x="176" y="359" type="line"/>
      <point x="145" y="219" type="line"/>
    </contour>
  </outline>
</glyph>
<glyph name="dollar" format="1">
  <advance width="403"/>
  <unicode hex="0024"/>
  <outline>
    <contour>
      <point x="221" y="639" type="line"/>
      <point x="221" y="545" type="line"/>
      <point x="301" y="539"/>
      <point x="340" y="482"/>
      <point x="340" y="419" type="curve" smooth="yes"/>
      <point x="340" y="414"/>
      <point x="339" y="405"/>
      <point x="339" y="403" type="curve" smooth="yes"/>
      <point x="275" y="403" type="line"/>
      <point x="275" y="413" type="line" smooth="yes"/>
      <point x="275" y="444"/>
      <point x="264" y="479"/>
      <point x="221" y="488" type="curve"/>
      <point x="221" y="341" type="line"/>
      <point x="282" y="320"/>
      <point x="349" y="294"/>
      <point x="349" y="201" type="curve" smooth="yes"/>
      <point x="349" y="112"/>
      <point x="296" y="67"/>
      <point x="221" y="61" type="curve"/>
      <point x="221" y="-43" type="line"/>
      <point x="180" y="-43" type="line"/>
      <point x="180" y="61" type="line"/>
      <point x="84" y="69"/>
      <point x="52" y="134"/>
      <point x="52" y="192" type="curve" smooth="yes"/>
      <point x="52" y="208"/>
      <point x="53" y="213"/>
      <point x="53" y="215" type="curve" smooth="yes"/>
      <point x="118" y="215" type="line"/>
      <point x="118" y="206" type="line" smooth="yes"/>
      <point x="118" y="153"/>
      <point x="142" y="127"/>
      <point x="180" y="119" type="curve"/>
      <point x="180" y="286" type="line"/>
      <point x="121" y="306"/>
      <point x="63" y="332"/>
      <point x="63" y="417" type="curve" smooth="yes"/>
      <point x="63" y="486"/>
      <point x="105" y="534"/>
      <point x="180" y="545" type="curve"/>
      <point x="180" y="639" type="line"/>
    </contour>
    <contour>
      <point x="180" y="358" type="curve"/>
      <point x="180" y="488" type="line"/>
      <point x="136" y="480"/>
      <point x="129" y="443"/>
      <point x="129" y="420" type="curve" smooth="yes"/>
      <point x="129" y="388"/>
      <point x="150" y="371"/>
    </contour>
    <contour>
      <point x="221" y="270" type="curve"/>
      <point x="221" y="118" type="line"/>
      <point x="256" y="122"/>
      <point x="283" y="147"/>
      <point x="283" y="192" type="curve" smooth="yes"/>
      <point x="283" y="234"/>
      <point x="255" y="254"/>
    </contour>
  </outline>
</glyph>
<glyph name="ampersand" format="1">
  <advance width="473"/>
  <unicode hex="0026"/>
  <outline>
    <contour>
      <point x="220" y="617" type="curve" smooth="yes"/>
      <point x="326" y="617"/>
      <point x="401" y="552"/>
      <point x="401" y="451" type="curve" smooth="yes"/>
      <point x="401" y="438" type="line"/>
      <point x="339" y="438" type="line"/>
      <point x="339" y="443" type="line" smooth="yes"/>
      <point x="339" y="524"/>
      <point x="286" y="558"/>
      <point x="219" y="558" type="curve" smooth="yes"/>
      <point x="162" y="558"/>
      <point x="109" y="529"/>
      <point x="109" y="446" type="curve" smooth="yes"/>
      <point x="109" y="371"/>
      <point x="155" y="336"/>
      <point x="204" y="336" type="curve" smooth="yes"/>
      <point x="251" y="336" type="line"/>
      <point x="251" y="280" type="line"/>
      <point x="205" y="280" type="line" smooth="yes"/>
      <point x="151" y="280"/>
      <point x="100" y="257"/>
      <point x="100" y="168" type="curve" smooth="yes"/>
      <point x="100" y="82"/>
      <point x="149" y="49"/>
      <point x="221" y="49" type="curve" smooth="yes"/>
      <point x="299" y="49"/>
      <point x="339" y="89"/>
      <point x="339" y="169" type="curve" smooth="yes"/>
      <point x="339" y="336" type="line"/>
      <point x="461" y="336" type="line"/>
      <point x="461" y="279" type="line"/>
      <point x="401" y="279" type="line"/>
      <point x="401" y="171" type="line" smooth="yes"/>
      <point x="401" y="61"/>
      <point x="338" y="-11"/>
      <point x="214" y="-11" type="curve" smooth="yes"/>
      <point x="107" y="-11"/>
      <point x="31" y="55"/>
      <point x="31" y="163" type="curve" smooth="yes"/>
      <point x="31" y="243"/>
      <point x="67" y="292"/>
      <point x="116" y="311" type="curve"/>
      <point x="116" y="315" type="line"/>
      <point x="73" y="340"/>
      <point x="42" y="379"/>
      <point x="42" y="451" type="curve" smooth="yes"/>
      <point x="42" y="559"/>
      <point x="113" y="617"/>
    </contour>
  </outline>
</glyph>
<glyph name="parenleft" format="1">
  <advance width="241"/>
  <unicode hex="0028"/>
  <outline>
    <contour>
      <point x="186" y="650" type="curve"/>
      <point x="228" y="650" type="line"/>
      <point x="159" y="542"/>
      <point x="106" y="394"/>
      <point x="106" y="256" type="curve" smooth="yes"/>
      <point x="106" y="118"/>
      <point x="159" y="-31"/>
      <point x="228" y="-139" type="curve"/>
      <point x="186" y="-139" type="line"/>
      <point x="92" y="-30"/>
      <point x="37" y="110"/>
      <point x="37" y="255" type="curve" smooth="yes"/>
      <point x="37" y="400"/>
      <point x="92" y="541"/>
    </contour>
  </outline>
</glyph>
<glyph name="plus" format="1">
  <advance width="423"/>
  <unicode hex="002B"/>
  <outline>
    <contour>
      <point x="383" y="191" type="line"/>
      <point x="246" y="191" type="line"/>
      <point x="246" y="0" type="line"/>
      <point x="177" y="0" type="line"/>
      <point x="177" y="191" type="line"/>
      <point x="41" y="191" type="line"/>
      <point x="41" y="261" type="line"/>
      <point x="177" y="261" type="line"/>
      <point x="177" y="452" type="line"/>
      <point x="246" y="452" type="line"/>
      <point x="246" y="261" type="line"/>
      <point x="383" y="261" type="line"/>
    </contour>
  </outline>
</glyph>
<glyph name="zero" format="1">
  <advance width="403"/>
  <unicode hex="0030"/>
  <outline>
    <contour>
      <point x="202" y="617" type="curve" smooth="yes"/>
      <point x="303" y="617"/>
      <point x="365" y="550"/>
      <point x="365" y="303" type="curve" smooth="yes"/>
      <point x="365" y="57"/>
      <point x="303" y="-11"/>
      <point x="202" y="-11" type="curve" smooth="yes"/>
      <point x="98" y="-11"/>
      <point x="37" y="57"/>
      <point x="37" y="303" type="curve" smooth="yes"/>
      <point x="37" y="550"/>
      <point x="98" y="617"/>
    </contour>
    <contour>
      <point x="202" y="559" type="curve" smooth="yes"/>
      <point x="123" y="559"/>
      <point x="102" y="459"/>
      <point x="102" y="334" type="curve" smooth="yes"/>
      <point x="102" y="272" type="line" smooth="yes"/>
      <point x="102" y="148"/>
      <point x="123" y="47"/>
      <point x="202" y="47" type="curve" smooth="yes"/>
      <point x="280" y="47"/>
      <point x="301" y="148"/>
      <point x="301" y="272" type="curve" smooth="yes"/>
      <point x="301" y="334" type="line" smooth="yes"/>
      <point x="301" y="459"/>
      <point x="280" y="559"/>
    </contour>
  </outline>
</glyph>
<glyph name="one" format="1">
  <advance width="403"/>
  <unicode hex="0031"/>
  <outline>
    <contour>
      <point x="391" y="0" type="line"/>
      <point x="47" y="0" type="line"/>
      <point x="47" y="58" type="line"/>
      <point x="193" y="58" type="line"/>
      <point x="193" y="504" type="line"/>
      <point x="46" y="504" type="line"/>
      <point x="46" y="543" type="line"/>
      <point x="96" y="548"/>
      <point x="178" y="574"/>
      <point x="234" y="606" type="curve"/>
      <point x="256" y="606" type="line"/>
      <point x="256" y="58" type="line"/>
      <point x="391" y="58" type="line"/>
    </contour>
  </outline>
</glyph>
<glyph name="two" format="1">
  <advance width="403"/>
  <unicode hex="0032"/>
  <outline>
    <contour>
      <point x="200" y="617" type="curve" smooth="yes"/>
      <point x="288" y="617"/>
      <point x="358" y="571"/>
      <point x="358" y="460" type="curve" smooth="yes"/>
      <point x="358" y="302"/>
      <point x="194" y="208"/>
      <point x="125" y="94" type="curve" smooth="yes"/>
      <point x="119" y="86"/>
      <point x="114" y="76"/>
      <point x="112" y="67" type="curve"/>
      <point x="360" y="67" type="line"/>
      <point x="360" y="0" type="line"/>
      <point x="35" y="0" type="line"/>
      <point x="35" y="8" type="line" smooth="yes"/>
      <point x="35" y="61"/>
      <point x="54" y="109"/>
      <point x="85" y="153" type="curve" smooth="yes"/>
      <point x="163" y="251"/>
      <point x="291" y="341"/>
      <point x="291" y="461" type="curve" smooth="yes"/>
      <point x="291" y="505"/>
      <point x="272" y="557"/>
      <point x="200" y="557" type="curve" smooth="yes"/>
      <point x="133" y="557"/>
      <point x="109" y="501"/>
      <point x="109" y="434" type="curve" smooth="yes"/>
      <point x="109" y="398" type="line"/>
      <point x="43" y="398" type="line"/>
      <point x="43" y="398"/>
      <point x="41" y="412"/>
      <point x="41" y="433" type="curve" smooth="yes"/>
      <point x="41" y="563"/>
      <point x="115" y="617"/>
    </contour>
  </outline>
</glyph>
<glyph name="semicolon" format="1">
  <advance width="191"/>
  <unicode hex="003B"/>
  <outline>
    <contour>
      <point x="59" y="465" type="line"/>
      <point x="137" y="465" type="line"/>
      <point x="137" y="378" type="line"/>
      <point x="59" y="378" type="line"/>
    </contour>
    <contour>
      <point x="60" y="-102" type="line"/>
      <point x="91" y="0" type="line"/>
      <point x="60" y="0" type="line"/>
      <point x="60" y="87" type="line"/>
      <point x="138" y="87" type="line"/>
      <point x="138" y="7" type="line"/>
      <point x="101" y="-102" type="line"/>
    </contour>
  </outline>
</glyph>
<glyph name="greater" format="1">
  <advance width="423"/>
  <unicode hex="003E"/>
  <outline>
    <contour>
      <point x="42" y="8" type="line"/>
      <point x="42" y="79" type="line"/>
      <point x="317" y="223" type="line"/>
      <point x="42" y="366" type="line"/>
      <point x="42" y="439" type="line"/>
      <point x="383" y="267" type="line"/>
      <point x="383" y="178" type="line"/>
    </contour>
  </outline>
</glyph>
<glyph name="question" format="1">
  <advance width="391"/>
  <unicode hex="003F"/>
  <outline>
    <contour>
      <point x="203" y="617" type="curve" smooth="yes"/>
      <point x="285" y="617"/>
      <point x="351" y="552"/>
      <point x="351" y="460" type="curve" smooth="yes"/>
      <point x="351" y="285"/>
      <point x="235" y="301"/>
      <point x="235" y="194" type="curve" smooth="yes"/>
      <point x="235" y="155" type="line"/>
      <point x="168" y="155" type="line"/>
      <point x="168" y="208" type="line" smooth="yes"/>
      <point x="168" y="330"/>
      <point x="280" y="333"/>
      <point x="280" y="450" type="curve" smooth="yes"/>
      <point x="280" y="477"/>
      <point x="272" y="557"/>
      <point x="196" y="557" type="curve" smooth="yes"/>
      <point x="116" y="557"/>
      <point x="107" y="472"/>
      <point x="107" y="430" type="curve" smooth="yes"/>
      <point x="107" y="415"/>
      <point x="108" y="406"/>
      <point x="108" y="406" type="curve"/>
      <point x="40" y="406" type="line"/>
      <point x="40" y="406"/>
      <point x="37" y="426"/>
      <point x="37" y="437" type="curve" smooth="yes"/>
      <point x="37" y="536"/>
      <point x="93" y="617"/>
    </contour>
    <contour>
      <point x="161" y="87" type="line"/>
      <point x="239" y="87" type="line"/>
      <point x="239" y="0" type="line"/>
      <point x="161" y="0" type="line"/>
    </contour>
  </outline>
</glyph>
<glyph name="F" format="1">
  <advance width="443"/>
  <unicode hex="0046"/>
  <outline>
    <contour>
      <point x="413" y="606" type="line"/>
      <point x="413" y="545" type="line"/>
      <point x="133" y="545" type="line"/>
      <point x="133" y="335" type="line"/>
      <point x="382" y="335" type="line"/>
      <point x="382" y="274" type="line"/>
      <point x="133" y="274" type="line"/>
      <point x="133" y="0" type="line"/>
      <point x="65" y="0" type="line"/>
      <point x="65" y="606" type="line"/>
    </contour>
  </outline>
</glyph>
<glyph name="K" format="1">
  <advance width="473"/>
  <unicode hex="004B"/>
  <outline>
    <contour>
      <point x="236" y="0" type="move" name="Anchor-1"/>
    </contour>
    <contour>
      <point x="236" y="606" type="move" name="Anchor-0"/>
    </contour>
    <contour>
      <point x="453" y="606" type="line"/>
      <point x="270" y="363" type="line"/>
      <point x="459" y="0" type="line"/>
      <point x="383" y="0" type="line"/>
      <point x="230" y="303" type="line"/>
      <point x="132" y="198" type="line"/>
      <point x="132" y="0" type="line"/>
      <point x="65" y="0" type="line"/>
      <point x="65" y="606" type="line"/>
      <point x="132" y="606" type="line"/>
      <point x="132" y="283" type="line"/>
      <point x="378" y="606" type="line"/>
    </contour>
  </outline>
</glyph>
<glyph name="M" format="1">
  <advance width="604"/>
  <unicode hex="004D"/>
  <outline>
    <contour>
      <point x="476" y="0" type="line"/>
      <point x="476" y="456" type="line" smooth="yes"/>
      <point x="476" y="475"/>
      <point x="483" y="549"/>
      <point x="483" y="549" type="curve"/>
      <point x="480" y="549" type="line"/>
      <point x="472" y="515"/>
      <point x="467" y="481"/>
      <point x="457" y="447" type="curve" smooth="yes"/>
      <point x="327" y="0" type="line"/>
      <point x="267" y="0" type="line"/>
      <point x="134" y="455" type="line" smooth="yes"/>
      <point x="126" y="484"/>
      <point x="123" y="518"/>
      <point x="117" y="549" type="curve"/>
      <point x="113" y="549" type="line"/>
      <point x="113" y="549"/>
      <point x="119" y="472"/>
      <point x="119" y="456" type="curve" smooth="yes"/>
      <point x="119" y="0" type="line"/>
      <point x="57" y="0" type="line"/>
      <point x="57" y="606" type="line"/>
      <point x="163" y="606" type="line"/>
      <point x="279" y="190" type="line" smooth="yes"/>
      <point x="292" y="144"/>
      <point x="299" y="53"/>
      <point x="299" y="53" type="curve"/>
      <point x="302" y="53" type="line"/>
      <point x="302" y="53"/>
      <point x="309" y="145"/>
      <point x="322" y="190" type="curve" smooth="yes"/>
      <point x="439" y="606" type="line"/>
      <point x="546" y="606" type="line"/>
      <point x="546" y="0" type="line"/>
    </contour>
  </outline>
</glyph>
<glyph name="V" format="1">
  <advance width="484"/>
  <unicode hex="0056"/>
  <outline>
    <contour>
      <point x="9" y="606" type="line"/>
      <point x="86" y="606" type="line"/>
      <point x="243" y="61" type="line"/>
      <point x="247" y="61" type="line"/>
      <point x="409" y="606" type="line"/>
      <point x="474" y="606" type="line"/>
      <point x="290" y="0" type="line"/>
      <point x="194" y="0" type="line"/>
    </contour>
  </outline>
</glyph>
<glyph name="Z" format="1">
  <advance width="443"/>
  <unicode hex="005A"/>
  <outline>
    <contour>
      <point x="0" y="0" type="move" name="Anchor-1"/>
    </contour>
    <contour>
      <point x="222" y="606" type="move" name="Anchor-0"/>
    </contour>
    <contour>
      <point x="116" y="62" type="line"/>
      <point x="423" y="62" type="line"/>
      <point x="423" y="0" type="line"/>
      <point x="19" y="0" type="line"/>
      <point x="19" y="31" type="line"/>
      <point x="318" y="545" type="line"/>
      <point x="37" y="545" type="line"/>
      <point x="37" y="606" type="line"/>
      <point x="417" y="606" type="line"/>
      <point x="417" y="576" type="line"/>
    </contour>
  </outline>
</glyph>
<glyph name="bracketleft" format="1">
  <advance width="191"/>
  <unicode hex="005B"/>
  <outline>
    <contour>
      <point x="99" y="-93" type="line"/>
      <point x="174" y="-93" type="line"/>
      <point x="174" y="-142" type="line"/>
      <point x="43" y="-142" type="line"/>
      <point x="43" y="650" type="line"/>
      <point x="174" y="650" type="line"/>
      <point x="174" y="600" type="line"/>
      <point x="99" y="600" type="line"/>
    </contour>
  </outline>
</glyph>
<glyph name="backslash" format="1">
  <advance width="202"/>
  <unicode hex="005C"/>
  <outline>
    <contour>
      <point x="1" y="650" type="line"/>
      <point x="59" y="650" type="line"/>
      <point x="202" y="-43" type="line"/>
      <point x="143" y="-43" type="line"/>
    </contour>
  </outline>
</glyph>
<glyph name="underscore" format="1">
  <advance width="403"/>
  <unicode hex="005F"/>
  <outline>
    <contour>
      <point x="0" y="-65" type="line"/>
      <point x="402" y="-65" type="line"/>
      <point x="402" y="-108" type="line"/>
      <point x="0" y="-108" type="line"/>
    </contour>
  </outline>
</glyph>
<glyph name="grave" format="1">
  <advance width="241"/>
  <unicode hex="0060"/>
  <outline>
    <contour>
      <point x="25" y="636" type="line"/>
      <point x="26" y="639" type="line"/>
      <point x="97" y="639" type="line"/>
      <point x="173" y="522" type="line"/>
      <point x="120" y="522" type="line"/>
    </contour>
  </outline>
</glyph>
<glyph name="b" format="1">
  <advance width="391"/>
  <unicode hex="0062"/>
  <outline>
    <contour>
      <point x="117" y="422" type="line"/>
      <point x="121" y="422" type="line"/>
      <point x="137" y="455"/>
      <point x="174" y="476"/>
      <point x="219" y="476" type="curve" smooth="yes"/>
      <point x="294" y="476"/>
      <point x="356" y="402"/>
      <point x="356" y="233" type="curve" smooth="yes"/>
      <point x="356" y="62"/>
      <point x="301" y="-11"/>
      <point x="214" y="-11" type="curve" smooth="yes"/>
      <point x="171" y="-11"/>
      <point x="135" y="11"/>
      <point x="113" y="53" type="curve"/>
      <point x="109" y="53" type="line"/>
      <point x="99" y="0" type="line"/>
      <point x="54" y="0" type="line"/>
      <point x="54" y="639" type="line"/>
      <point x="117" y="639" type="line"/>
    </contour>
    <contour>
      <point x="204" y="420" type="curve" smooth="yes"/>
      <point x="146" y="420"/>
      <point x="117" y="362"/>
      <point x="117" y="245" type="curve" smooth="yes"/>
      <point x="117" y="216" type="line" smooth="yes"/>
      <point x="117" y="102"/>
      <point x="146" y="45"/>
      <point x="204" y="45" type="curve" smooth="yes"/>
      <point x="260" y="45"/>
      <point x="290" y="91"/>
      <point x="290" y="216" type="curve" smooth="yes"/>
      <point x="290" y="249" type="line" smooth="yes"/>
      <point x="290" y="374"/>
      <point x="260" y="420"/>
    </contour>
  </outline>
</glyph>
<glyph name="c" format="1">
  <advance width="350"/>
  <unicode hex="0063"/>
  <outline>
    <contour>
      <point x="175" y="0" type="move" name="Anchor-1"/>
    </contour>
    <contour>
      <point x="175" y="465" type="move" name="Anchor-0"/>
    </contour>
    <contour>
      <point x="186" y="476" type="curve" smooth="yes"/>
      <point x="287" y="476"/>
      <point x="322" y="408"/>
      <point x="322" y="294" type="curve"/>
      <point x="257" y="294" type="line"/>
      <point x="257" y="378"/>
      <point x="243" y="418"/>
      <point x="186" y="418" type="curve" smooth="yes"/>
      <point x="124" y="418"/>
      <point x="97" y="361"/>
      <point x="97" y="249" type="curve" smooth="yes"/>
      <point x="97" y="216" type="line" smooth="yes"/>
      <point x="97" y="104"/>
      <point x="124" y="47"/>
      <point x="185" y="47" type="curve" smooth="yes"/>
      <point x="241" y="47"/>
      <point x="261" y="90"/>
      <point x="261" y="171" type="curve"/>
      <point x="322" y="171" type="line"/>
      <point x="322" y="84"/>
      <point x="288" y="-11"/>
      <point x="185" y="-11" type="curve" smooth="yes"/>
      <point x="78" y="-11"/>
      <point x="31" y="65"/>
      <point x="31" y="232" type="curve" smooth="yes"/>
      <point x="31" y="400"/>
      <point x="79" y="476"/>
    </contour>
  </outline>
</glyph>
<glyph name="e" format="1">
  <advance width="403"/>
  <unicode hex="0065"/>
  <outline>
    <contour>
      <point x="202" y="0" type="move" name="Anchor-1"/>
    </contour>
    <contour>
      <point x="202" y="465" type="move" name="Anchor-0"/>
    </contour>
    <contour>
      <point x="214" y="476" type="curve" smooth="yes"/>
      <point x="313" y="476"/>
      <point x="362" y="417"/>
      <point x="362" y="264" type="curve" smooth="yes"/>
      <point x="362" y="212" type="line"/>
      <point x="106" y="212" type="line"/>
      <point x="107" y="97"/>
      <point x="143" y="48"/>
      <point x="217" y="48" type="curve" smooth="yes"/>
      <point x="265" y="48"/>
      <point x="300" y="90"/>
      <point x="300" y="156" type="curve"/>
      <point x="362" y="156" type="line"/>
      <point x="362" y="57"/>
      <point x="303" y="-11"/>
      <point x="214" y="-11" type="curve" smooth="yes"/>
      <point x="99" y="-11"/>
      <point x="40" y="59"/>
      <point x="40" y="232" type="curve" smooth="yes"/>
      <point x="40" y="400"/>
      <point x="96" y="476"/>
    </contour>
    <contour>
      <point x="214" y="417" type="curve" smooth="yes"/>
      <point x="145" y="417"/>
      <point x="114" y="369"/>
      <point x="107" y="274" type="curve"/>
      <point x="297" y="274" type="line"/>
      <point x="297" y="368"/>
      <point x="269" y="417"/>
    </contour>
  </outline>
</glyph>
<glyph name="f" format="1">
  <advance width="191"/>
  <unicode hex="0066"/>
  <outline>
    <contour>
      <point x="134" y="646" type="curve" smooth="yes"/>
      <point x="154" y="646"/>
      <point x="176" y="641"/>
      <point x="191" y="636" type="curve"/>
      <point x="191" y="593" type="line"/>
      <point x="153" y="593" type="line" smooth="yes"/>
      <point x="124" y="593"/>
      <point x="109" y="578"/>
      <point x="109" y="550" type="curve" smooth="yes"/>
      <point x="109" y="465" type="line"/>
      <point x="191" y="465" type="line"/>
      <point x="191" y="407" type="line"/>
      <point x="109" y="407" type="line"/>
      <point x="109" y="0" type="line"/>
      <point x="47" y="0" type="line"/>
      <point x="47" y="407" type="line"/>
      <point x="8" y="407" type="line"/>
      <point x="8" y="465" type="line"/>
      <point x="47" y="465" type="line"/>
      <point x="47" y="544" type="line" smooth="yes"/>
      <point x="47" y="595"/>
      <point x="67" y="646"/>
    </contour>
  </outline>
</glyph>
<glyph name="j" format="1">
  <advance width="149"/>
  <unicode hex="006A"/>
  <outline>
    <contour>
      <point x="43" y="639" type="line"/>
      <point x="106" y="639" type="line"/>
      <point x="106" y="555" type="line"/>
      <point x="43" y="555" type="line"/>
    </contour>
    <contour>
      <point x="106" y="465" type="line"/>
      <point x="106" y="-59" type="line" smooth="yes"/>
      <point x="106" y="-110"/>
      <point x="85" y="-161"/>
      <point x="19" y="-161" type="curve" smooth="yes"/>
      <point x="0" y="-161"/>
      <point x="-23" y="-156"/>
      <point x="-37" y="-150" type="curve"/>
      <point x="-37" y="-108" type="line"/>
      <point x="2" y="-108" type="line" smooth="yes"/>
      <point x="29" y="-108"/>
      <point x="43" y="-93"/>
      <point x="43" y="-65" type="curve" smooth="yes"/>
      <point x="43" y="465" type="line"/>
    </contour>
  </outline>
</glyph>
<glyph name="k" format="1">
  <advance width="350"/>
  <unicode hex="006B"/>
  <outline>
    <contour>
      <point x="175" y="0" type="move" name="Anchor-1"/>
    </contour>
    <contour>
      <point x="0" y="0" type="move" name="Anchor-0"/>
    </contour>
    <contour>
      <point x="343" y="465" type="line"/>
      <point x="207" y="273" type="line"/>
      <point x="350" y="0" type="line"/>
      <point x="279" y="0" type="line"/>
      <point x="169" y="218" type="line"/>
      <point x="117" y="162" type="line"/>
      <point x="117" y="0" type="line"/>
      <point x="54" y="0" type="line"/>
      <point x="54" y="639" type="line"/>
      <point x="117" y="639" type="line"/>
      <point x="117" y="240" type="line"/>
      <point x="273" y="465" type="line"/>
    </contour>
  </outline>
</glyph>
<glyph name="p" format="1">
  <advance width="391"/>
  <unicode hex="0070"/>
  <outline>
    <contour>
      <point x="214" y="476" type="curve" smooth="yes"/>
      <point x="301" y="476"/>
      <point x="356" y="403"/>
      <point x="356" y="232" type="curve" smooth="yes"/>
      <point x="356" y="63"/>
      <point x="294" y="-11"/>
      <point x="219" y="-11" type="curve" smooth="yes"/>
      <point x="174" y="-11"/>
      <point x="137" y="8"/>
      <point x="121" y="39" type="curve"/>
      <point x="117" y="39" type="line"/>
      <point x="117" y="-153" type="line"/>
      <point x="54" y="-153" type="line"/>
      <point x="54" y="465" type="line"/>
      <point x="99" y="465" type="line"/>
      <point x="109" y="412" type="line"/>
      <point x="113" y="412" type="line"/>
      <point x="135" y="453"/>
      <point x="171" y="476"/>
    </contour>
    <contour>
      <point x="204" y="420" type="curve" smooth="yes"/>
      <point x="146" y="420"/>
      <point x="117" y="363"/>
      <point x="117" y="249" type="curve" smooth="yes"/>
      <point x="117" y="216" type="line" smooth="yes"/>
      <point x="117" y="102"/>
      <point x="146" y="45"/>
      <point x="204" y="45" type="curve" smooth="yes"/>
      <point x="260" y="45"/>
      <point x="290" y="91"/>
      <point x="290" y="216" type="curve" smooth="yes"/>
      <point x="290" y="249" type="line" smooth="yes"/>
      <point x="290" y="374"/>
      <point x="260" y="420"/>
    </contour>
  </outline>
</glyph>
<glyph name="q" format="1">
  <advance width="391"/>
  <unicode hex="0071"/>
  <outline>
    <contour>
      <point x="177" y="476" type="curve" smooth="yes"/>
      <point x="220" y="476"/>
      <point x="257" y="453"/>
      <point x="278" y="412" type="curve"/>
      <point x="284" y="412" type="line"/>
      <point x="292" y="465" type="line"/>
      <point x="337" y="465" type="line"/>
      <point x="337" y="-153" type="line"/>
      <point x="275" y="-153" type="line"/>
      <point x="275" y="39" type="line"/>
      <point x="270" y="39" type="line"/>
      <point x="254" y="8"/>
      <point x="217" y="-11"/>
      <point x="173" y="-11" type="curve" smooth="yes"/>
      <point x="97" y="-11"/>
      <point x="35" y="63"/>
      <point x="35" y="232" type="curve" smooth="yes"/>
      <point x="35" y="403"/>
      <point x="90" y="476"/>
    </contour>
    <contour>
      <point x="187" y="420" type="curve" smooth="yes"/>
      <point x="131" y="420"/>
      <point x="100" y="374"/>
      <point x="100" y="249" type="curve" smooth="yes"/>
      <point x="100" y="216" type="line" smooth="yes"/>
      <point x="100" y="91"/>
      <point x="131" y="45"/>
      <point x="187" y="45" type="curve" smooth="yes"/>
      <point x="244" y="45"/>
      <point x="275" y="102"/>
      <point x="275" y="216" type="curve" smooth="yes"/>
      <point x="275" y="249" type="line" smooth="yes"/>
      <point x="275" y="363"/>
      <point x="244" y="420"/>
    </contour>
  </outline>
</glyph>
<glyph name="r" format="1">
  <advance width="229"/>
  <unicode hex="0072"/>
  <outline>
    <contour>
      <point x="115" y="0" type="move" name="Anchor-1"/>
    </contour>
    <contour>
      <point x="115" y="465" type="move" name="Anchor-0"/>
    </contour>
    <contour>
      <point x="192" y="476" type="curve" smooth="yes"/>
      <point x="208" y="476"/>
      <point x="223" y="469"/>
      <point x="223" y="469" type="curve"/>
      <point x="223" y="401" type="line"/>
      <point x="203" y="401" type="line" smooth="yes"/>
      <point x="157" y="401"/>
      <point x="117" y="373"/>
      <point x="117" y="291" type="curve" smooth="yes"/>
      <point x="117" y="0" type="line"/>
      <point x="54" y="0" type="line"/>
      <point x="54" y="465" type="line"/>
      <point x="99" y="465" type="line"/>
      <point x="109" y="406" type="line"/>
      <point x="113" y="406" type="line"/>
      <point x="124" y="440"/>
      <point x="148" y="476"/>
    </contour>
  </outline>
</glyph>
<glyph name="t" format="1">
  <advance width="191"/>
  <unicode hex="0074"/>
  <outline>
    <contour>
      <point x="110" y="0" type="move" name="Anchor-1"/>
    </contour>
    <contour>
      <point x="0" y="0" type="move" name="Anchor-0"/>
    </contour>
    <contour>
      <point x="175" y="407" type="line"/>
      <point x="114" y="407" type="line"/>
      <point x="114" y="90" type="line" smooth="yes"/>
      <point x="114" y="62"/>
      <point x="129" y="47"/>
      <point x="156" y="47" type="curve" smooth="yes"/>
      <point x="175" y="47" type="line"/>
      <point x="175" y="5" type="line"/>
      <point x="164" y="-4"/>
      <point x="143" y="-8"/>
      <point x="126" y="-8" type="curve" smooth="yes"/>
      <point x="69" y="-8"/>
      <point x="51" y="43"/>
      <point x="51" y="93" type="curve" smooth="yes"/>
      <point x="51" y="407" type="line"/>
      <point x="13" y="407" type="line"/>
      <point x="13" y="465" type="line"/>
      <point x="51" y="465" type="line"/>
      <point x="67" y="593" type="line"/>
      <point x="114" y="593" type="line"/>
      <point x="114" y="465" type="line"/>
      <point x="175" y="465" type="line"/>
    </contour>
  </outline>
</glyph>
<glyph name="v" format="1">
  <advance width="350"/>
  <unicode hex="0076"/>
  <outline>
    <contour>
      <point x="140" y="0" type="line"/>
      <point x="10" y="465" type="line"/>
      <point x="80" y="465" type="line"/>
      <point x="145" y="216" type="line" smooth="yes"/>
      <point x="155" y="179"/>
      <point x="165" y="144"/>
      <point x="176" y="107" type="curve"/>
      <point x="180" y="107" type="line"/>
      <point x="189" y="142"/>
      <point x="202" y="178"/>
      <point x="212" y="213" type="curve" smooth="yes"/>
      <point x="277" y="465" type="line"/>
      <point x="340" y="465" type="line"/>
      <point x="211" y="0" type="line"/>
    </contour>
  </outline>
</glyph>
<glyph name="z" format="1">
  <advance width="362"/>
  <unicode hex="007A"/>
  <outline>
    <contour>
      <point x="0" y="0" type="move" name="Anchor-1"/>
    </contour>
    <contour>
      <point x="181" y="465" type="move" name="Anchor-0"/>
    </contour>
    <contour>
      <point x="337" y="58" type="line"/>
      <point x="337" y="0" type="line"/>
      <point x="25" y="0" type="line"/>
      <point x="25" y="31" type="line"/>
      <point x="236" y="407" type="line"/>
      <point x="40" y="407" type="line"/>
      <point x="40" y="465" type="line"/>
      <point x="323" y="465" type="line"/>
      <point x="323" y="434" type="line"/>
      <point x="111" y="58" type="line"/>
    </contour>
  </outline>
</glyph>
<glyph name="braceright" format="1">
  <advance width="230"/>
  <unicode hex="007D"/>
  <outline>
    <contour>
      <point x="18" y="604" type="curve"/>
      <point x="18" y="650" type="line"/>
      <point x="86" y="650"/>
      <point x="145" y="630"/>
      <point x="145" y="519" type="curve" smooth="yes"/>
      <point x="145" y="344" type="line" smooth="yes"/>
      <point x="145" y="304"/>
      <point x="183" y="291"/>
      <point x="215" y="291" type="curve"/>
      <point x="215" y="218" type="line"/>
      <point x="183" y="218"/>
      <point x="145" y="205"/>
      <point x="145" y="165" type="curve" smooth="yes"/>
      <point x="145" y="-10" type="line" smooth="yes"/>
      <point x="145" y="-121"/>
      <point x="86" y="-141"/>
      <point x="18" y="-141" type="curve"/>
      <point x="18" y="-95" type="line"/>
      <point x="50" y="-95"/>
      <point x="88" y="-85"/>
      <point x="88" y="-29" type="curve" smooth="yes"/>
      <point x="88" y="32"/>
      <point x="91" y="92"/>
      <point x="94" y="155" type="curve" smooth="yes"/>
      <point x="95" y="215"/>
      <point x="114" y="250"/>
      <point x="166" y="250" type="curve"/>
      <point x="166" y="259" type="line"/>
      <point x="114" y="259"/>
      <point x="95" y="294"/>
      <point x="94" y="354" type="curve" smooth="yes"/>
      <point x="91" y="417"/>
      <point x="88" y="478"/>
      <point x="88" y="540" type="curve" smooth="yes"/>
      <point x="88" y="594"/>
      <point x="50" y="604"/>
    </contour>
  </outline>
</glyph>
<glyph name="cent" format="1">
  <advance width="403"/>
  <unicode hex="00A2"/>
  <outline>
    <contour>
      <point x="228" y="639" type="line"/>
      <point x="228" y="545" type="line"/>
      <point x="324" y="537"/>
      <point x="357" y="472"/>
      <point x="357" y="364" type="curve"/>
      <point x="289" y="364" type="line"/>
      <point x="289" y="440"/>
      <point x="275" y="478"/>
      <point x="228" y="487" type="curve"/>
      <point x="228" y="119" type="line"/>
      <point x="275" y="129"/>
      <point x="291" y="171"/>
      <point x="291" y="242" type="curve"/>
      <point x="357" y="242" type="line"/>
      <point x="357" y="160"/>
      <point x="325" y="72"/>
      <point x="228" y="61" type="curve"/>
      <point x="228" y="-43" type="line"/>
      <point x="187" y="-43" type="line"/>
      <point x="187" y="61" type="line"/>
      <point x="90" y="72"/>
      <point x="44" y="147"/>
      <point x="44" y="303" type="curve" smooth="yes"/>
      <point x="44" y="458"/>
      <point x="89" y="535"/>
      <point x="187" y="545" type="curve"/>
      <point x="187" y="639" type="line"/>
    </contour>
    <contour>
      <point x="187" y="120" type="curve"/>
      <point x="187" y="485" type="line"/>
      <point x="136" y="473"/>
      <point x="113" y="417"/>
      <point x="113" y="320" type="curve" smooth="yes"/>
      <point x="113" y="286" type="line" smooth="yes"/>
      <point x="113" y="188"/>
      <point x="135" y="133"/>
    </contour>
  </outline>
</glyph>
<glyph name="currency" format="1">
  <advance width="403"/>
  <unicode hex="00A4"/>
  <outline>
    <contour>
      <point x="202" y="524" type="curve" smooth="yes"/>
      <point x="250" y="524"/>
      <point x="295" y="503"/>
      <point x="329" y="470" type="curve"/>
      <point x="367" y="508" type="line"/>
      <point x="407" y="468" type="line"/>
      <point x="363" y="425" type="line"/>
      <point x="384" y="389"/>
      <point x="396" y="348"/>
      <point x="396" y="302" type="curve" smooth="yes"/>
      <point x="396" y="257"/>
      <point x="384" y="214"/>
      <point x="363" y="180" type="curve"/>
      <point x="407" y="137" type="line"/>
      <point x="368" y="97" type="line"/>
      <point x="329" y="136" type="line"/>
      <point x="296" y="102"/>
      <point x="250" y="82"/>
      <point x="202" y="82" type="curve" smooth="yes"/>
      <point x="152" y="82"/>
      <point x="108" y="102"/>
      <point x="74" y="136" type="curve"/>
      <point x="36" y="97" type="line"/>
      <point x="-4" y="137" type="line"/>
      <point x="40" y="180" type="line"/>
      <point x="19" y="214"/>
      <point x="7" y="256"/>
      <point x="7" y="302" type="curve" smooth="yes"/>
      <point x="7" y="348"/>
      <point x="19" y="390"/>
      <point x="41" y="426" type="curve"/>
      <point x="-4" y="468" type="line"/>
      <point x="36" y="508" type="line"/>
      <point x="73" y="470" type="line"/>
      <point x="107" y="503"/>
      <point x="153" y="524"/>
    </contour>
    <contour>
      <point x="202" y="469" type="curve" smooth="yes"/>
      <point x="124" y="469"/>
      <point x="63" y="395"/>
      <point x="63" y="302" type="curve" smooth="yes"/>
      <point x="63" y="211"/>
      <point x="124" y="137"/>
      <point x="202" y="137" type="curve" smooth="yes"/>
      <point x="278" y="137"/>
      <point x="339" y="211"/>
      <point x="339" y="302" type="curve" smooth="yes"/>
      <point x="339" y="395"/>
      <point x="278" y="469"/>
    </contour>
  </outline>
</glyph>
<glyph name="copyright" format="1">
  <advance width="534"/>
  <unicode hex="00A9"/>
  <outline>
    <contour>
      <point x="267" y="617" type="curve" smooth="yes"/>
      <point x="421" y="617"/>
      <point x="513" y="494"/>
      <point x="513" y="303" type="curve" smooth="yes"/>
      <point x="513" y="112"/>
      <point x="421" y="-11"/>
      <point x="267" y="-11" type="curve" smooth="yes"/>
      <point x="112" y="-11"/>
      <point x="20" y="112"/>
      <point x="20" y="303" type="curve" smooth="yes"/>
      <point x="20" y="494"/>
      <point x="112" y="617"/>
    </contour>
    <contour>
      <point x="267" y="577" type="curve" smooth="yes"/>
      <point x="138" y="577"/>
      <point x="58" y="470"/>
      <point x="58" y="303" type="curve" smooth="yes"/>
      <point x="58" y="137"/>
      <point x="138" y="29"/>
      <point x="267" y="29" type="curve" smooth="yes"/>
      <point x="397" y="29"/>
      <point x="477" y="137"/>
      <point x="477" y="303" type="curve" smooth="yes"/>
      <point x="477" y="470"/>
      <point x="397" y="577"/>
    </contour>
    <contour>
      <point x="269" y="494" type="curve" smooth="yes"/>
      <point x="341" y="494"/>
      <point x="391" y="450"/>
      <point x="391" y="361" type="curve"/>
      <point x="348" y="361" type="line"/>
      <point x="348" y="424"/>
      <point x="317" y="454"/>
      <point x="269" y="454" type="curve" smooth="yes"/>
      <point x="205" y="454"/>
      <point x="173" y="413"/>
      <point x="173" y="324" type="curve" smooth="yes"/>
      <point x="173" y="296" type="line" smooth="yes"/>
      <point x="173" y="207"/>
      <point x="204" y="164"/>
      <point x="269" y="164" type="curve" smooth="yes"/>
      <point x="317" y="164"/>
      <point x="350" y="195"/>
      <point x="350" y="257" type="curve"/>
      <point x="391" y="257" type="line"/>
      <point x="391" y="165"/>
      <point x="340" y="124"/>
      <point x="269" y="124" type="curve" smooth="yes"/>
      <point x="176" y="124"/>
      <point x="129" y="186"/>
      <point x="129" y="309" type="curve" smooth="yes"/>
      <point x="129" y="433"/>
      <point x="176" y="494"/>
    </contour>
  </outline>
</glyph>
<glyph name="degree" format="1">
  <advance width="354"/>
  <unicode hex="00B0"/>
  <outline>
    <contour>
      <point x="175" y="617" type="curve" smooth="yes"/>
      <point x="240" y="617"/>
      <point x="292" y="565"/>
      <point x="292" y="500" type="curve" smooth="yes"/>
      <point x="292" y="434"/>
      <point x="240" y="382"/>
      <point x="175" y="382" type="curve" smooth="yes"/>
      <point x="110" y="382"/>
      <point x="58" y="434"/>
      <point x="58" y="500" type="curve" smooth="yes"/>
      <point x="58" y="565"/>
      <point x="110" y="617"/>
    </contour>
    <contour>
      <point x="175" y="573" type="curve" smooth="yes"/>
      <point x="134" y="573"/>
      <point x="101" y="540"/>
      <point x="101" y="500" type="curve" smooth="yes"/>
      <point x="101" y="459"/>
      <point x="134" y="425"/>
      <point x="175" y="425" type="curve" smooth="yes"/>
      <point x="216" y="425"/>
      <point x="249" y="459"/>
      <point x="249" y="500" type="curve" smooth="yes"/>
      <point x="249" y="540"/>
      <point x="216" y="573"/>
    </contour>
  </outline>
</glyph>
<glyph name="threesuperior" format="1">
  <advance width="241"/>
  <unicode hex="00B3"/>
  <outline>
    <contour>
      <point x="124" y="650" type="curve" smooth="yes"/>
      <point x="181" y="650"/>
      <point x="219" y="613"/>
      <point x="219" y="548" type="curve" smooth="yes"/>
      <point x="219" y="508"/>
      <point x="204" y="486"/>
      <point x="178" y="469" type="curve"/>
      <point x="205" y="455"/>
      <point x="224" y="426"/>
      <point x="224" y="386" type="curve" smooth="yes"/>
      <point x="224" y="319"/>
      <point x="184" y="280"/>
      <point x="126" y="280" type="curve" smooth="yes"/>
      <point x="58" y="280"/>
      <point x="22" y="323"/>
      <point x="22" y="391" type="curve" smooth="yes"/>
      <point x="22" y="400" type="line"/>
      <point x="74" y="400" type="line"/>
      <point x="74" y="389" type="line" smooth="yes"/>
      <point x="74" y="348"/>
      <point x="90" y="328"/>
      <point x="121" y="328" type="curve" smooth="yes"/>
      <point x="153" y="328"/>
      <point x="174" y="346"/>
      <point x="174" y="388" type="curve" smooth="yes"/>
      <point x="174" y="433"/>
      <point x="149" y="444"/>
      <point x="121" y="444" type="curve" smooth="yes"/>
      <point x="87" y="444" type="line"/>
      <point x="87" y="491" type="line"/>
      <point x="122" y="491" type="line" smooth="yes"/>
      <point x="147" y="491"/>
      <point x="168" y="508"/>
      <point x="168" y="545" type="curve" smooth="yes"/>
      <point x="168" y="585"/>
      <point x="147" y="602"/>
      <point x="125" y="602" type="curve" smooth="yes"/>
      <point x="100" y="602"/>
      <point x="79" y="584"/>
      <point x="79" y="544" type="curve" smooth="yes"/>
      <point x="79" y="533" type="line"/>
      <point x="29" y="533" type="line"/>
      <point x="29" y="548" type="line" smooth="yes"/>
      <point x="29" y="610"/>
      <point x="67" y="650"/>
    </contour>
  </outline>
</glyph>
<glyph name="cedilla" format="1">
  <advance width="241"/>
  <unicode hex="00B8"/>
  <outline>
    <contour>
      <point x="132" y="10" type="line"/>
      <point x="124" y="-33" type="line"/>
      <point x="162" y="-35"/>
      <point x="197" y="-49"/>
      <point x="197" y="-89" type="curve" smooth="yes"/>
      <point x="197" y="-149"/>
      <point x="141" y="-161"/>
      <point x="106" y="-161" type="curve" smooth="yes"/>
      <point x="81" y="-161"/>
      <point x="53" y="-158"/>
      <point x="32" y="-154" type="curve"/>
      <point x="32" y="-111" type="line"/>
      <point x="100" y="-111" type="line" smooth="yes"/>
      <point x="119" y="-111"/>
      <point x="132" y="-106"/>
      <point x="132" y="-89" type="curve" smooth="yes"/>
      <point x="132" y="-75"/>
      <point x="125" y="-68"/>
      <point x="102" y="-68" type="curve" smooth="yes"/>
      <point x="73" y="-68" type="line"/>
      <point x="86" y="10" type="line"/>
    </contour>
  </outline>
</glyph>
<glyph name="ordmasculine" format="1">
  <advance width="264"/>
  <unicode hex="00BA"/>
  <outline>
    <contour>
      <point x="131" y="650" type="curve" smooth="yes"/>
      <point x="203" y="650"/>
      <point x="241" y="598"/>
      <point x="241" y="484" type="curve" smooth="yes"/>
      <point x="241" y="371"/>
      <point x="203" y="319"/>
      <point x="131" y="319" type="curve" smooth="yes"/>
      <point x="60" y="319"/>
      <point x="22" y="371"/>
      <point x="22" y="484" type="curve" smooth="yes"/>
      <point x="22" y="598"/>
      <point x="60" y="650"/>
    </contour>
    <contour>
      <point x="132" y="609" type="curve" smooth="yes"/>
      <point x="90" y="609"/>
      <point x="69" y="571"/>
      <point x="69" y="496" type="curve" smooth="yes"/>
      <point x="69" y="473" type="line" smooth="yes"/>
      <point x="69" y="398"/>
      <point x="90" y="360"/>
      <point x="132" y="360" type="curve" smooth="yes"/>
      <point x="172" y="360"/>
      <point x="194" y="398"/>
      <point x="194" y="473" type="curve" smooth="yes"/>
      <point x="194" y="496" type="line" smooth="yes"/>
      <point x="194" y="571"/>
      <point x="172" y="609"/>
    </contour>
  </outline>
</glyph>
<glyph name="onequarter" format="1">
  <advance width="605"/>
  <unicode hex="00BC"/>
  <outline>
    <contour>
      <point x="470" y="617" type="line"/>
      <point x="524" y="617" type="line"/>
      <point x="152" y="-11" type="line"/>
      <point x="98" y="-11" type="line"/>
    </contour>
    <contour>
      <point x="215" y="251" type="line"/>
      <point x="28" y="251" type="line"/>
      <point x="28" y="299" type="line"/>
      <point x="99" y="299" type="line"/>
      <point x="99" y="534" type="line"/>
      <point x="27" y="534" type="line"/>
      <point x="27" y="568" type="line"/>
      <point x="55" y="573"/>
      <point x="100" y="588"/>
      <point x="126" y="606" type="curve"/>
      <point x="150" y="606" type="line"/>
      <point x="150" y="299" type="line"/>
      <point x="215" y="299" type="line"/>
    </contour>
    <contour>
      <point x="435" y="365" type="curve"/>
      <point x="485" y="365" type="line"/>
      <point x="465" y="275"/>
      <point x="421" y="174"/>
      <point x="398" y="134" type="curve"/>
      <point x="477" y="134" type="line"/>
      <point x="477" y="229" type="line"/>
      <point x="483" y="248"/>
      <point x="497" y="285"/>
      <point x="504" y="322" type="curve"/>
      <point x="528" y="322" type="line"/>
      <point x="528" y="134" type="line"/>
      <point x="563" y="134" type="line"/>
      <point x="563" y="87" type="line"/>
      <point x="528" y="87" type="line"/>
      <point x="528" y="0" type="line"/>
      <point x="477" y="0" type="line"/>
      <point x="477" y="87" type="line"/>
      <point x="342" y="87" type="line"/>
      <point x="342" y="130" type="line"/>
      <point x="379" y="198"/>
      <point x="413" y="283"/>
    </contour>
  </outline>
</glyph>
<glyph name="threequarters" format="1">
  <advance width="605"/>
  <unicode hex="00BE"/>
  <outline>
    <contour>
      <point x="124" y="617" type="curve" smooth="yes"/>
      <point x="182" y="617"/>
      <point x="221" y="581"/>
      <point x="221" y="515" type="curve" smooth="yes"/>
      <point x="221" y="476"/>
      <point x="205" y="453"/>
      <point x="178" y="437" type="curve"/>
      <point x="206" y="423"/>
      <point x="225" y="393"/>
      <point x="225" y="353" type="curve" smooth="yes"/>
      <point x="225" y="287"/>
      <point x="184" y="248"/>
      <point x="126" y="248" type="curve" smooth="yes"/>
      <point x="59" y="248"/>
      <point x="23" y="290"/>
      <point x="23" y="358" type="curve" smooth="yes"/>
      <point x="23" y="367" type="line"/>
      <point x="74" y="367" type="line"/>
      <point x="74" y="356" type="line" smooth="yes"/>
      <point x="74" y="314"/>
      <point x="90" y="295"/>
      <point x="122" y="295" type="curve" smooth="yes"/>
      <point x="154" y="295"/>
      <point x="174" y="314"/>
      <point x="174" y="354" type="curve" smooth="yes"/>
      <point x="174" y="399"/>
      <point x="149" y="410"/>
      <point x="122" y="410" type="curve" smooth="yes"/>
      <point x="88" y="410" type="line"/>
      <point x="88" y="459" type="line"/>
      <point x="123" y="459" type="line" smooth="yes"/>
      <point x="148" y="459"/>
      <point x="170" y="475"/>
      <point x="170" y="513" type="curve" smooth="yes"/>
      <point x="170" y="553"/>
      <point x="148" y="570"/>
      <point x="125" y="570" type="curve" smooth="yes"/>
      <point x="100" y="570"/>
      <point x="80" y="551"/>
      <point x="80" y="511" type="curve" smooth="yes"/>
      <point x="80" y="499" type="line"/>
      <point x="29" y="499" type="line"/>
      <point x="29" y="515" type="line" smooth="yes"/>
      <point x="29" y="577"/>
      <point x="69" y="617"/>
    </contour>
    <contour>
      <point x="462" y="617" type="line"/>
      <point x="516" y="617" type="line"/>
      <point x="144" y="-11" type="line"/>
      <point x="90" y="-11" type="line"/>
    </contour>
    <contour>
      <point x="436" y="365" type="curve"/>
      <point x="486" y="365" type="line"/>
      <point x="466" y="275"/>
      <point x="421" y="174"/>
      <point x="398" y="134" type="curve"/>
      <point x="478" y="134" type="line"/>
      <point x="478" y="229" type="line"/>
      <point x="484" y="248"/>
      <point x="498" y="285"/>
      <point x="504" y="322" type="curve"/>
      <point x="528" y="322" type="line"/>
      <point x="528" y="134" type="line"/>
      <point x="564" y="134" type="line"/>
      <point x="564" y="87" type="line"/>
      <point x="528" y="87" type="line"/>
      <point x="528" y="0" type="line"/>
      <point x="478" y="0" type="line"/>
      <point x="478" y="87" type="line"/>
      <point x="343" y="87" type="line"/>
      <point x="343" y="130" type="line"/>
      <point x="380" y="198"/>
      <point x="414" y="283"/>
    </contour>
  </outline>
</glyph>
<glyph name="questiondown" format="1">
  <advance width="443"/>
  <unicode hex="00BF"/>
  <outline>
    <contour>
      <point x="178" y="465" type="line"/>
      <point x="257" y="465" type="line"/>
      <point x="257" y="378" type="line"/>
      <point x="178" y="378" type="line"/>
    </contour>
    <contour>
      <point x="251" y="310" type="line"/>
      <point x="251" y="257" type="line" smooth="yes"/>
      <point x="251" y="133"/>
      <point x="137" y="129"/>
      <point x="137" y="10" type="curve" smooth="yes"/>
      <point x="137" y="-15"/>
      <point x="147" y="-92"/>
      <point x="227" y="-92" type="curve" smooth="yes"/>
      <point x="302" y="-92"/>
      <point x="310" y="-9"/>
      <point x="310" y="35" type="curve" smooth="yes"/>
      <point x="310" y="50"/>
      <point x="309" y="59"/>
      <point x="309" y="59" type="curve"/>
      <point x="378" y="59" type="line"/>
      <point x="378" y="59"/>
      <point x="380" y="39"/>
      <point x="380" y="28" type="curve" smooth="yes"/>
      <point x="380" y="-77"/>
      <point x="329" y="-152"/>
      <point x="221" y="-152" type="curve" smooth="yes"/>
      <point x="135" y="-152"/>
      <point x="68" y="-89"/>
      <point x="68" y="1" type="curve" smooth="yes"/>
      <point x="68" y="166"/>
      <point x="184" y="163"/>
      <point x="184" y="271" type="curve" smooth="yes"/>
      <point x="184" y="310" type="line"/>
    </contour>
  </outline>
</glyph>
<glyph name="Acircumflex" format="1">
  <advance width="473"/>
  <unicode hex="00C2"/>
  <outline>
    <contour>
      <point x="275" y="660" type="line"/>
      <point x="236" y="732" type="line"/>
      <point x="196" y="660" type="line"/>
      <point x="129" y="660" type="line"/>
      <point x="205" y="780" type="line"/>
      <point x="269" y="780" type="line"/>
      <point x="344" y="660" type="line"/>
    </contour>
    <contour>
      <point x="398" y="0" type="line"/>
      <point x="355" y="140" type="line"/>
      <point x="109" y="140" type="line"/>
      <point x="67" y="0" type="line"/>
      <point x="-2" y="0" type="line"/>
      <point x="191" y="606" type="line"/>
      <point x="281" y="606" type="line"/>
      <point x="473" y="0" type="line"/>
    </contour>
    <contour>
      <point x="234" y="554" type="curve"/>
      <point x="231" y="554" type="line"/>
      <point x="231" y="554"/>
      <point x="223" y="508"/>
      <point x="218" y="492" type="curve" smooth="yes"/>
      <point x="129" y="202" type="line"/>
      <point x="336" y="202" type="line"/>
      <point x="248" y="492" type="line" smooth="yes"/>
      <point x="242" y="508"/>
      <point x="234" y="554"/>
    </contour>
  </outline>
</glyph>
<glyph name="Atilde" format="1">
  <advance width="473"/>
  <unicode hex="00C3"/>
  <outline>
    <contour>
      <point x="310" y="781" type="curve"/>
      <point x="359" y="781" type="line"/>
      <point x="359" y="742"/>
      <point x="339" y="694"/>
      <point x="287" y="694" type="curve" smooth="yes"/>
      <point x="251" y="694"/>
      <point x="223" y="719"/>
      <point x="191" y="719" type="curve" smooth="yes"/>
      <point x="176" y="719"/>
      <point x="164" y="713"/>
      <point x="162" y="694" type="curve"/>
      <point x="112" y="694" type="line"/>
      <point x="112" y="731"/>
      <point x="133" y="781"/>
      <point x="183" y="781" type="curve" smooth="yes"/>
      <point x="220" y="781"/>
      <point x="249" y="756"/>
      <point x="281" y="756" type="curve" smooth="yes"/>
      <point x="296" y="756"/>
      <point x="307" y="761"/>
    </contour>
    <contour>
      <point x="398" y="0" type="line"/>
      <point x="355" y="140" type="line"/>
      <point x="109" y="140" type="line"/>
      <point x="67" y="0" type="line"/>
      <point x="-2" y="0" type="line"/>
      <point x="191" y="606" type="line"/>
      <point x="281" y="606" type="line"/>
      <point x="473" y="0" type="line"/>
    </contour>
    <contour>
      <point x="234" y="554" type="curve"/>
      <point x="231" y="554" type="line"/>
      <point x="231" y="554"/>
      <point x="223" y="508"/>
      <point x="218" y="492" type="curve" smooth="yes"/>
      <point x="129" y="202" type="line"/>
      <point x="336" y="202" type="line"/>
      <point x="248" y="492" type="line" smooth="yes"/>
      <point x="242" y="508"/>
      <point x="234" y="554"/>
    </contour>
  </outline>
</glyph>
<glyph name="Adieresis" format="1">
  <advance width="473"/>
  <unicode hex="00C4"/>
  <outline>
    <contour>
      <point x="136" y="701" type="line"/>
      <point x="136" y="781" type="line"/>
      <point x="210" y="781" type="line"/>
      <point x="210" y="701" type="line"/>
    </contour>
    <contour>
      <point x="263" y="701" type="line"/>
      <point x="263" y="781" type="line"/>
      <point x="336" y="781" type="line"/>
      <point x="336" y="701" type="line"/>
    </contour>
    <contour>
      <point x="398" y="0" type="line"/>
      <point x="355" y="140" type="line"/>
      <point x="109" y="140" type="line"/>
      <point x="67" y="0" type="line"/>
      <point x="-2" y="0" type="line"/>
      <point x="191" y="606" type="line"/>
      <point x="281" y="606" type="line"/>
      <point x="473" y="0" type="line"/>
    </contour>
    <contour>
      <point x="234" y="554" type="curve"/>
      <point x="231" y="554" type="line"/>
      <point x="231" y="554"/>
      <point x="223" y="508"/>
      <point x="218" y="492" type="curve" smooth="yes"/>
      <point x="129" y="202" type="line"/>
      <point x="336" y="202" type="line"/>
      <point x="248" y="492" type="line" smooth="yes"/>
      <point x="242" y="508"/>
      <point x="234" y="554"/>
    </contour>
  </outline>
</glyph>
<glyph name="AE" format="1">
  <advance width="725"/>
  <unicode hex="00C6"/>
  <outline>
    <contour>
      <point x="0" y="0" type="move" name="Anchor-1"/>
    </contour>
    <contour>
      <point x="362" y="606" type="move" name="Anchor-0"/>
    </contour>
    <contour>
      <point x="355" y="545" type="line"/>
      <point x="401" y="342" type="line"/>
      <point x="650" y="342" type="line"/>
      <point x="650" y="279" type="line"/>
      <point x="415" y="279" type="line"/>
      <point x="463" y="62" type="line"/>
      <point x="694" y="62" type="line"/>
      <point x="694" y="0" type="line"/>
      <point x="402" y="0" type="line"/>
      <point x="371" y="140" type="line"/>
      <point x="125" y="140" type="line"/>
      <point x="71" y="0" type="line"/>
      <point x="1" y="0" type="line"/>
      <point x="254" y="606" type="line"/>
      <point x="689" y="606" type="line"/>
      <point x="689" y="545" type="line"/>
    </contour>
    <contour>
      <point x="288" y="550" type="curve"/>
      <point x="283" y="550" type="line"/>
      <point x="277" y="529"/>
      <point x="271" y="510"/>
      <point x="262" y="489" type="curve" smooth="yes"/>
      <point x="149" y="202" type="line"/>
      <point x="359" y="202" type="line"/>
      <point x="297" y="489" type="line" smooth="yes"/>
      <point x="292" y="510"/>
      <point x="291" y="529"/>
    </contour>
  </outline>
</glyph>
<glyph name="Egrave" format="1">
  <advance width="484"/>
  <unicode hex="00C8"/>
  <outline>
    <contour>
      <point x="239" y="664" type="line"/>
      <point x="144" y="778" type="line"/>
      <point x="145" y="781" type="line"/>
      <point x="216" y="781" type="line"/>
      <point x="292" y="664" type="line"/>
    </contour>
    <contour>
      <point x="133" y="545" type="line"/>
      <point x="133" y="342" type="line"/>
      <point x="396" y="342" type="line"/>
      <point x="396" y="279" type="line"/>
      <point x="133" y="279" type="line"/>
      <point x="133" y="62" type="line"/>
      <point x="440" y="62" type="line"/>
      <point x="440" y="0" type="line"/>
      <point x="65" y="0" type="line"/>
      <point x="65" y="606" type="line"/>
      <point x="435" y="606" type="line"/>
      <point x="435" y="545" type="line"/>
    </contour>
  </outline>
</glyph>
<glyph name="Edieresis" format="1">
  <advance width="484"/>
  <unicode hex="00CB"/>
  <outline>
    <contour>
      <point x="142" y="701" type="line"/>
      <point x="142" y="781" type="line"/>
      <point x="215" y="781" type="line"/>
      <point x="215" y="701" type="line"/>
    </contour>
    <contour>
      <point x="269" y="701" type="line"/>
      <point x="269" y="781" type="line"/>
      <point x="343" y="781" type="line"/>
      <point x="343" y="701" type="line"/>
    </contour>
    <contour>
      <point x="133" y="545" type="line"/>
      <point x="133" y="342" type="line"/>
      <point x="396" y="342" type="line"/>
      <point x="396" y="279" type="line"/>
      <point x="133" y="279" type="line"/>
      <point x="133" y="62" type="line"/>
      <point x="440" y="62" type="line"/>
      <point x="440" y="0" type="line"/>
      <point x="65" y="0" type="line"/>
      <point x="65" y="606" type="line"/>
      <point x="435" y="606" type="line"/>
      <point x="435" y="545" type="line"/>
    </contour>
  </outline>
</glyph>
<glyph name="Iacute" format="1">
  <advance width="202"/>
  <unicode hex="00CD"/>
  <outline>
    <contour>
      <point x="105" y="664" type="line"/>
      <point x="52" y="664" type="line"/>
      <point x="128" y="781" type="line"/>
      <point x="198" y="781" type="line"/>
      <point x="199" y="778" type="line"/>
    </contour>
    <contour>
      <point x="67" y="0" type="line"/>
      <point x="67" y="606" type="line"/>
      <point x="135" y="606" type="line"/>
      <point x="135" y="0" type="line"/>
    </contour>
  </outline>
</glyph>
<glyph name="Idieresis" format="1">
  <advance width="202"/>
  <unicode hex="00CF"/>
  <outline>
    <contour>
      <point x="1" y="701" type="line"/>
      <point x="1" y="781" type="line"/>
      <point x="75" y="781" type="line"/>
      <point x="75" y="701" type="line"/>
    </contour>
    <contour>
      <point x="128" y="701" type="line"/>
      <point x="128" y="781" type="line"/>
      <point x="201" y="781" type="line"/>
      <point x="201" y="701" type="line"/>
    </contour>
    <contour>
      <point x="67" y="0" type="line"/>
      <point x="67" y="606" type="line"/>
      <point x="135" y="606" type="line"/>
      <point x="135" y="0" type="line"/>
    </contour>
  </outline>
</glyph>
<glyph name="Ntilde" format="1">
  <advance width="523"/>
  <unicode hex="00D1"/>
  <outline>
    <contour>
      <point x="335" y="781" type="curve"/>
      <point x="386" y="781" type="line"/>
      <point x="386" y="742"/>
      <point x="364" y="694"/>
      <point x="314" y="694" type="curve" smooth="yes"/>
      <point x="276" y="694"/>
      <point x="249" y="719"/>
      <point x="216" y="719" type="curve" smooth="yes"/>
      <point x="201" y="719"/>
      <point x="191" y="713"/>
      <point x="188" y="694" type="curve"/>
      <point x="139" y="694" type="line"/>
      <point x="139" y="731"/>
      <point x="160" y="781"/>
      <point x="210" y="781" type="curve" smooth="yes"/>
      <point x="247" y="781"/>
      <point x="274" y="756"/>
      <point x="307" y="756" type="curve" smooth="yes"/>
      <point x="322" y="756"/>
      <point x="334" y="761"/>
    </contour>
    <contour>
      <point x="405" y="0" type="line"/>
      <point x="167" y="401" type="line" smooth="yes"/>
      <point x="149" y="431"/>
      <point x="124" y="491"/>
      <point x="124" y="491" type="curve"/>
      <point x="122" y="490" type="line"/>
      <point x="122" y="490"/>
      <point x="126" y="428"/>
      <point x="126" y="400" type="curve" smooth="yes"/>
      <point x="126" y="0" type="line"/>
      <point x="65" y="0" type="line"/>
      <point x="65" y="606" type="line"/>
      <point x="122" y="606" type="line"/>
      <point x="358" y="211" type="line" smooth="yes"/>
      <point x="374" y="186"/>
      <point x="399" y="123"/>
      <point x="399" y="123" type="curve"/>
      <point x="401" y="124" type="line"/>
      <point x="401" y="124"/>
      <point x="399" y="190"/>
      <point x="399" y="212" type="curve" smooth="yes"/>
      <point x="399" y="606" type="line"/>
      <point x="459" y="606" type="line"/>
      <point x="459" y="0" type="line"/>
    </contour>
  </outline>
</glyph>
<glyph name="multiply" format="1">
  <advance width="423"/>
  <unicode hex="00D7"/>
  <outline>
    <contour>
      <point x="263" y="225" type="line"/>
      <point x="399" y="90" type="line"/>
      <point x="356" y="42" type="line"/>
      <point x="218" y="174" type="line"/>
      <point x="80" y="42" type="line"/>
      <point x="36" y="90" type="line"/>
      <point x="173" y="225" type="line"/>
      <point x="36" y="361" type="line"/>
      <point x="80" y="410" type="line"/>
      <point x="218" y="274" type="line"/>
      <point x="356" y="410" type="line"/>
      <point x="399" y="361" type="line"/>
    </contour>
  </outline>
</glyph>
<glyph name="Yacute" format="1">
  <advance width="484"/>
  <unicode hex="00DD"/>
  <outline>
    <contour>
      <point x="244" y="664" type="line"/>
      <point x="191" y="664" type="line"/>
      <point x="267" y="781" type="line"/>
      <point x="339" y="781" type="line"/>
      <point x="340" y="778" type="line"/>
    </contour>
    <contour>
      <point x="276" y="0" type="line"/>
      <point x="208" y="0" type="line"/>
      <point x="208" y="257" type="line"/>
      <point x="9" y="606" type="line"/>
      <point x="85" y="606" type="line"/>
      <point x="248" y="321" type="line"/>
      <point x="251" y="321" type="line"/>
      <point x="410" y="606" type="line"/>
      <point x="474" y="606" type="line"/>
      <point x="276" y="257" type="line"/>
    </contour>
  </outline>
</glyph>
<glyph name="ccedilla" format="1">
  <advance width="350"/>
  <unicode hex="00E7"/>
  <outline>
    <contour>
      <point x="186" y="476" type="curve" smooth="yes"/>
      <point x="287" y="476"/>
      <point x="322" y="408"/>
      <point x="322" y="294" type="curve"/>
      <point x="257" y="294" type="line"/>
      <point x="257" y="378"/>
      <point x="243" y="418"/>
      <point x="186" y="418" type="curve" smooth="yes"/>
      <point x="124" y="418"/>
      <point x="97" y="361"/>
      <point x="97" y="249" type="curve" smooth="yes"/>
      <point x="97" y="216" type="line" smooth="yes"/>
      <point x="97" y="104"/>
      <point x="124" y="47"/>
      <point x="185" y="47" type="curve" smooth="yes"/>
      <point x="241" y="47"/>
      <point x="261" y="90"/>
      <point x="261" y="171" type="curve"/>
      <point x="322" y="171" type="line"/>
      <point x="322" y="84"/>
      <point x="287" y="-10"/>
      <point x="184" y="-11" type="curve"/>
      <point x="182" y="-33" type="line"/>
      <point x="220" y="-35"/>
      <point x="254" y="-49"/>
      <point x="254" y="-89" type="curve" smooth="yes"/>
      <point x="254" y="-149"/>
      <point x="200" y="-161"/>
      <point x="163" y="-161" type="curve" smooth="yes"/>
      <point x="139" y="-161"/>
      <point x="110" y="-158"/>
      <point x="89" y="-154" type="curve"/>
      <point x="89" y="-111" type="line"/>
      <point x="157" y="-111" type="line" smooth="yes"/>
      <point x="178" y="-111"/>
      <point x="189" y="-106"/>
      <point x="189" y="-89" type="curve" smooth="yes"/>
      <point x="189" y="-75"/>
      <point x="182" y="-68"/>
      <point x="159" y="-68" type="curve" smooth="yes"/>
      <point x="130" y="-68" type="line"/>
      <point x="141" y="-4" type="line"/>
      <point x="65" y="14"/>
      <point x="31" y="90"/>
      <point x="31" y="232" type="curve" smooth="yes"/>
      <point x="31" y="400"/>
      <point x="79" y="476"/>
    </contour>
  </outline>
</glyph>
<glyph name="eth" format="1">
  <advance width="391"/>
  <unicode hex="00F0"/>
  <outline>
    <contour>
      <point x="308" y="555" type="line"/>
      <point x="246" y="549" type="line"/>
      <point x="314" y="459"/>
      <point x="357" y="358"/>
      <point x="357" y="232" type="curve" smooth="yes"/>
      <point x="357" y="65"/>
      <point x="300" y="-11"/>
      <point x="196" y="-11" type="curve" smooth="yes"/>
      <point x="92" y="-11"/>
      <point x="35" y="65"/>
      <point x="35" y="232" type="curve" smooth="yes"/>
      <point x="35" y="408"/>
      <point x="102" y="476"/>
      <point x="191" y="476" type="curve" smooth="yes"/>
      <point x="207" y="476"/>
      <point x="221" y="471"/>
      <point x="234" y="464" type="curve"/>
      <point x="218" y="492"/>
      <point x="201" y="516"/>
      <point x="181" y="543" type="curve"/>
      <point x="78" y="534" type="line"/>
      <point x="78" y="584" type="line"/>
      <point x="140" y="590" type="line"/>
      <point x="129" y="603"/>
      <point x="116" y="619"/>
      <point x="100" y="636" type="curve"/>
      <point x="102" y="639" type="line"/>
      <point x="170" y="639" type="line"/>
      <point x="183" y="624"/>
      <point x="197" y="610"/>
      <point x="209" y="596" type="curve"/>
      <point x="308" y="606" type="line"/>
    </contour>
    <contour>
      <point x="290" y="216" type="curve" smooth="yes"/>
      <point x="290" y="249" type="line" smooth="yes"/>
      <point x="290" y="361"/>
      <point x="256" y="418"/>
      <point x="196" y="418" type="curve" smooth="yes"/>
      <point x="133" y="418"/>
      <point x="100" y="361"/>
      <point x="100" y="249" type="curve" smooth="yes"/>
      <point x="100" y="216" type="line" smooth="yes"/>
      <point x="100" y="104"/>
      <point x="133" y="47"/>
      <point x="196" y="47" type="curve" smooth="yes"/>
      <point x="257" y="47"/>
      <point x="290" y="104"/>
    </contour>
  </outline>
</glyph>
<glyph name="divide" format="1">
  <advance width="485"/>
  <unicode hex="00F7"/>
  <outline>
    <contour>
      <point x="208" y="405" type="line"/>
      <point x="277" y="405" type="line"/>
      <point x="277" y="329" type="line"/>
      <point x="208" y="329" type="line"/>
    </contour>
    <contour>
      <point x="41" y="261" type="line"/>
      <point x="444" y="261" type="line"/>
      <point x="444" y="191" type="line"/>
      <point x="41" y="191" type="line"/>
    </contour>
    <contour>
      <point x="208" y="123" type="line"/>
      <point x="277" y="123" type="line"/>
      <point x="277" y="48" type="line"/>
      <point x="208" y="48" type="line"/>
    </contour>
  </outline>
</glyph>
<glyph name="udieresis" format="1">
  <advance width="391"/>
  <unicode hex="00FC"/>
  <outline>
    <contour>
      <point x="95" y="559" type="line"/>
      <point x="95" y="639" type="line"/>
      <point x="169" y="639" type="line"/>
      <point x="169" y="559" type="line"/>
    </contour>
    <contour>
      <point x="221" y="559" type="line"/>
      <point x="221" y="639" type="line"/>
      <point x="296" y="639" type="line"/>
      <point x="296" y="559" type="line"/>
    </contour>
    <contour>
      <point x="292" y="0" type="line"/>
      <point x="283" y="53" type="line"/>
      <point x="277" y="53" type="line"/>
      <point x="252" y="4"/>
      <point x="210" y="-11"/>
      <point x="167" y="-11" type="curve" smooth="yes"/>
      <point x="97" y="-11"/>
      <point x="54" y="26"/>
      <point x="54" y="127" type="curve" smooth="yes"/>
      <point x="54" y="465" type="line"/>
      <point x="117" y="465" type="line"/>
      <point x="117" y="125" type="line" smooth="yes"/>
      <point x="117" y="60"/>
      <point x="145" y="45"/>
      <point x="183" y="45" type="curve" smooth="yes"/>
      <point x="231" y="45"/>
      <point x="275" y="94"/>
      <point x="275" y="182" type="curve" smooth="yes"/>
      <point x="275" y="465" type="line"/>
      <point x="337" y="465" type="line"/>
      <point x="337" y="0" type="line"/>
    </contour>
  </outline>
</glyph>
<glyph name="ydieresis" format="1">
  <advance width="350"/>
  <unicode hex="00FF"/>
  <outline>
    <contour>
      <point x="75" y="559" type="line"/>
      <point x="75" y="639" type="line"/>
      <point x="148" y="639" type="line"/>
      <point x="148" y="559" type="line"/>
    </contour>
    <contour>
      <point x="201" y="559" type="line"/>
      <point x="201" y="639" type="line"/>
      <point x="274" y="639" type="line"/>
      <point x="274" y="559" type="line"/>
    </contour>
    <contour>
      <point x="340" y="465" type="line"/>
      <point x="225" y="24" type="line" smooth="yes"/>
      <point x="199" y="-78"/>
      <point x="158" y="-161"/>
      <point x="79" y="-161" type="curve" smooth="yes"/>
      <point x="65" y="-161"/>
      <point x="51" y="-160"/>
      <point x="32" y="-154" type="curve"/>
      <point x="32" y="-112" type="line"/>
      <point x="50" y="-112" type="line" smooth="yes"/>
      <point x="92" y="-112"/>
      <point x="130" y="-89"/>
      <point x="148" y="0" type="curve"/>
      <point x="10" y="465" type="line"/>
      <point x="79" y="465" type="line"/>
      <point x="147" y="220" type="line" smooth="yes"/>
      <point x="159" y="180"/>
      <point x="172" y="139"/>
      <point x="185" y="98" type="curve"/>
      <point x="188" y="98" type="line"/>
      <point x="199" y="139"/>
      <point x="210" y="179"/>
      <point x="220" y="219" type="curve" smooth="yes"/>
      <point x="277" y="465" type="line"/>
    </contour>
  </outline>
</glyph>
<glyph name="Dcaron" format="1">
  <advance width="523"/>
  <unicode hex="010E"/>
  <outline>
    <contour>
      <point x="165" y="781" type="line"/>
      <point x="233" y="781" type="line"/>
      <point x="273" y="708" type="line"/>
      <point x="313" y="781" type="line"/>
      <point x="381" y="781" type="line"/>
      <point x="303" y="661" type="line"/>
      <point x="240" y="661" type="line"/>
    </contour>
    <contour>
      <point x="65" y="606" type="line"/>
      <point x="250" y="606" type="line" smooth="yes"/>
      <point x="391" y="606"/>
      <point x="477" y="507"/>
      <point x="477" y="312" type="curve" smooth="yes"/>
      <point x="477" y="104"/>
      <point x="391" y="0"/>
      <point x="250" y="0" type="curve" smooth="yes"/>
      <point x="65" y="0" type="line"/>
    </contour>
    <contour>
      <point x="132" y="62" type="line"/>
      <point x="244" y="62" type="line" smooth="yes"/>
      <point x="343" y="62"/>
      <point x="405" y="136"/>
      <point x="405" y="290" type="curve" smooth="yes"/>
      <point x="405" y="334" type="line" smooth="yes"/>
      <point x="405" y="475"/>
      <point x="343" y="545"/>
      <point x="244" y="545" type="curve" smooth="yes"/>
      <point x="132" y="545" type="line"/>
    </contour>
  </outline>
</glyph>
<glyph name="dcaron" format="1">
  <advance width="424"/>
  <unicode hex="010F"/>
  <outline>
    <contour>
      <point x="284" y="53" type="line"/>
      <point x="278" y="53" type="line"/>
      <point x="257" y="11"/>
      <point x="220" y="-11"/>
      <point x="177" y="-11" type="curve" smooth="yes"/>
      <point x="90" y="-11"/>
      <point x="35" y="62"/>
      <point x="35" y="233" type="curve" smooth="yes"/>
      <point x="35" y="402"/>
      <point x="97" y="476"/>
      <point x="173" y="476" type="curve" smooth="yes"/>
      <point x="217" y="476"/>
      <point x="254" y="455"/>
      <point x="270" y="422" type="curve"/>
      <point x="275" y="422" type="line"/>
      <point x="275" y="639" type="line"/>
      <point x="337" y="639" type="line"/>
      <point x="337" y="0" type="line"/>
      <point x="292" y="0" type="line"/>
    </contour>
    <contour>
      <point x="374" y="417" type="line"/>
      <point x="406" y="519" type="line"/>
      <point x="374" y="519" type="line"/>
      <point x="374" y="606" type="line"/>
      <point x="453" y="606" type="line"/>
      <point x="453" y="526" type="line"/>
      <point x="415" y="417" type="line"/>
    </contour>
    <contour>
      <point x="187" y="420" type="curve" smooth="yes"/>
      <point x="131" y="420"/>
      <point x="100" y="374"/>
      <point x="100" y="249" type="curve" smooth="yes"/>
      <point x="100" y="216" type="line" smooth="yes"/>
      <point x="100" y="91"/>
      <point x="131" y="45"/>
      <point x="187" y="45" type="curve" smooth="yes"/>
      <point x="244" y="45"/>
      <point x="275" y="102"/>
      <point x="275" y="216" type="curve" smooth="yes"/>
      <point x="275" y="245" type="line" smooth="yes"/>
      <point x="275" y="362"/>
      <point x="244" y="420"/>
    </contour>
  </outline>
</glyph>
<glyph name="Emacron" format="1">
  <advance width="484"/>
  <unicode hex="0112"/>
  <outline>
    <contour>
      <point x="132" y="731" type="line"/>
      <point x="353" y="731" type="line"/>
      <point x="353" y="671" type="line"/>
      <point x="132" y="671" type="line"/>
    </contour>
    <contour>
      <point x="435" y="606" type="line"/>
      <point x="435" y="545" type="line"/>
      <point x="133" y="545" type="line"/>
      <point x="133" y="342" type="line"/>
      <point x="396" y="342" type="line"/>
      <point x="396" y="279" type="line"/>
      <point x="133" y="279" type="line"/>
      <point x="133" y="62" type="line"/>
      <point x="440" y="62" type="line"/>
      <point x="440" y="0" type="line"/>
      <point x="65" y="0" type="line"/>
      <point x="65" y="606" type="line"/>
    </contour>
  </outline>
</glyph>
<glyph name="gbreve" format="1">
  <advance width="391"/>
  <unicode hex="011F"/>
  <outline>
    <contour>
      <point x="250" y="639" type="curve"/>
      <point x="303" y="639" type="line"/>
      <point x="303" y="600"/>
      <point x="263" y="555"/>
      <point x="197" y="555" type="curve" smooth="yes"/>
      <point x="130" y="555"/>
      <point x="89" y="600"/>
      <point x="89" y="639" type="curve"/>
      <point x="143" y="639" type="line"/>
      <point x="147" y="627"/>
      <point x="165" y="610"/>
      <point x="197" y="610" type="curve" smooth="yes"/>
      <point x="227" y="610"/>
      <point x="248" y="627"/>
    </contour>
    <contour>
      <point x="316" y="539" type="curve"/>
      <point x="372" y="539" type="line"/>
      <point x="372" y="486"/>
      <point x="343" y="442"/>
      <point x="294" y="430" type="curve"/>
      <point x="320" y="403"/>
      <point x="336" y="366"/>
      <point x="336" y="320" type="curve" smooth="yes"/>
      <point x="336" y="223"/>
      <point x="279" y="165"/>
      <point x="196" y="164" type="curve" smooth="yes"/>
      <point x="145" y="164" type="line" smooth="yes"/>
      <point x="120" y="164"/>
      <point x="100" y="143"/>
      <point x="100" y="118" type="curve" smooth="yes"/>
      <point x="100" y="93"/>
      <point x="121" y="73"/>
      <point x="146" y="73" type="curve" smooth="yes"/>
      <point x="271" y="73" type="line" smooth="yes"/>
      <point x="341" y="73"/>
      <point x="381" y="22"/>
      <point x="381" y="-32" type="curve" smooth="yes"/>
      <point x="381" y="-103"/>
      <point x="340" y="-161"/>
      <point x="249" y="-161" type="curve" smooth="yes"/>
      <point x="129" y="-161" type="line" smooth="yes"/>
      <point x="47" y="-161"/>
      <point x="10" y="-109"/>
      <point x="10" y="-49" type="curve" smooth="yes"/>
      <point x="10" y="-4"/>
      <point x="32" y="38"/>
      <point x="72" y="51" type="curve"/>
      <point x="47" y="67"/>
      <point x="33" y="95"/>
      <point x="33" y="120" type="curve" smooth="yes"/>
      <point x="33" y="157"/>
      <point x="58" y="187"/>
      <point x="97" y="201" type="curve"/>
      <point x="64" y="228"/>
      <point x="44" y="268"/>
      <point x="44" y="320" type="curve" smooth="yes"/>
      <point x="44" y="417"/>
      <point x="101" y="476"/>
      <point x="190" y="476" type="curve" smooth="yes"/>
      <point x="213" y="476"/>
      <point x="236" y="468"/>
      <point x="254" y="458" type="curve"/>
      <point x="298" y="479"/>
      <point x="310" y="507"/>
    </contour>
    <contour>
      <point x="189" y="420" type="curve" smooth="yes"/>
      <point x="135" y="420"/>
      <point x="107" y="381"/>
      <point x="107" y="320" type="curve" smooth="yes"/>
      <point x="107" y="254"/>
      <point x="135" y="219"/>
      <point x="189" y="219" type="curve" smooth="yes"/>
      <point x="243" y="219"/>
      <point x="273" y="258"/>
      <point x="273" y="320" type="curve" smooth="yes"/>
      <point x="273" y="385"/>
      <point x="243" y="420"/>
    </contour>
    <contour>
      <point x="260" y="13" type="curve" smooth="yes"/>
      <point x="130" y="13" type="line" smooth="yes"/>
      <point x="89" y="13"/>
      <point x="73" y="-13"/>
      <point x="73" y="-45" type="curve" smooth="yes"/>
      <point x="73" y="-76"/>
      <point x="91" y="-103"/>
      <point x="130" y="-103" type="curve" smooth="yes"/>
      <point x="261" y="-103" type="line" smooth="yes"/>
      <point x="293" y="-103"/>
      <point x="318" y="-76"/>
      <point x="318" y="-45" type="curve" smooth="yes"/>
      <point x="318" y="-14"/>
      <point x="301" y="13"/>
    </contour>
  </outline>
</glyph>
<glyph name="Gcommaaccent" format="1">
  <advance width="564"/>
  <unicode hex="0122"/>
  <outline>
    <contour>
      <point x="271" y="312" type="line"/>
      <point x="504" y="312" type="line"/>
      <point x="504" y="0" type="line"/>
      <point x="458" y="0" type="line"/>
      <point x="442" y="67" type="line"/>
      <point x="405" y="11"/>
      <point x="353" y="-11"/>
      <point x="287" y="-11" type="curve" smooth="yes"/>
      <point x="133" y="-11"/>
      <point x="47" y="94"/>
      <point x="47" y="303" type="curve" smooth="yes"/>
      <point x="47" y="513"/>
      <point x="138" y="617"/>
      <point x="286" y="617" type="curve" smooth="yes"/>
      <point x="414" y="617"/>
      <point x="504" y="548"/>
      <point x="504" y="402" type="curve"/>
      <point x="434" y="402" type="line"/>
      <point x="434" y="507"/>
      <point x="376" y="552"/>
      <point x="287" y="552" type="curve" smooth="yes"/>
      <point x="187" y="552"/>
      <point x="119" y="481"/>
      <point x="119" y="325" type="curve" smooth="yes"/>
      <point x="119" y="281" type="line" smooth="yes"/>
      <point x="119" y="126"/>
      <point x="177" y="53"/>
      <point x="281" y="53" type="curve" smooth="yes"/>
      <point x="392" y="53"/>
      <point x="434" y="111"/>
      <point x="434" y="233" type="curve" smooth="yes"/>
      <point x="434" y="253" type="line"/>
      <point x="271" y="253" type="line"/>
    </contour>
    <contour>
      <point x="254" y="-54" type="line"/>
      <point x="319" y="-54" type="line"/>
      <point x="319" y="-121" type="line"/>
      <point x="297" y="-185" type="line"/>
      <point x="264" y="-185" type="line"/>
      <point x="280" y="-126" type="line"/>
      <point x="254" y="-126" type="line"/>
    </contour>
  </outline>
</glyph>
<glyph name="Hcircumflex" format="1">
  <advance width="523"/>
  <unicode hex="0124"/>
  <outline>
    <contour>
      <point x="301" y="660" type="line"/>
      <point x="263" y="732" type="line"/>
      <point x="222" y="660" type="line"/>
      <point x="153" y="660" type="line"/>
      <point x="229" y="780" type="line"/>
      <point x="293" y="780" type="line"/>
      <point x="369" y="660" type="line"/>
    </contour>
    <contour>
      <point x="392" y="0" type="line"/>
      <point x="392" y="279" type="line"/>
      <point x="133" y="279" type="line"/>
      <point x="133" y="0" type="line"/>
      <point x="65" y="0" type="line"/>
      <point x="65" y="606" type="line"/>
      <point x="133" y="606" type="line"/>
      <point x="133" y="342" type="line"/>
      <point x="392" y="342" type="line"/>
      <point x="392" y="606" type="line"/>
      <point x="459" y="606" type="line"/>
      <point x="459" y="0" type="line"/>
    </contour>
  </outline>
</glyph>
<glyph name="Hbar" format="1">
  <advance width="523"/>
  <unicode hex="0126"/>
  <outline>
    <contour>
      <point x="459" y="0" type="line"/>
      <point x="392" y="0" type="line"/>
      <point x="392" y="276" type="line"/>
      <point x="133" y="276" type="line"/>
      <point x="133" y="0" type="line"/>
      <point x="65" y="0" type="line"/>
      <point x="65" y="433" type="line"/>
      <point x="21" y="433" type="line"/>
      <point x="21" y="493" type="line"/>
      <point x="65" y="493" type="line"/>
      <point x="65" y="606" type="line"/>
      <point x="133" y="606" type="line"/>
      <point x="133" y="493" type="line"/>
      <point x="392" y="493" type="line"/>
      <point x="392" y="606" type="line"/>
      <point x="459" y="606" type="line"/>
      <point x="459" y="493" type="line"/>
      <point x="504" y="493" type="line"/>
      <point x="504" y="433" type="line"/>
      <point x="459" y="433" type="line"/>
    </contour>
    <contour>
      <point x="132" y="433" type="line"/>
      <point x="132" y="337" type="line"/>
      <point x="392" y="337" type="line"/>
      <point x="392" y="433" type="line"/>
    </contour>
  </outline>
</glyph>
<glyph name="Itilde" format="1">
  <advance width="202"/>
  <unicode hex="0128"/>
  <outline>
    <contour>
      <point x="175" y="781" type="curve"/>
      <point x="224" y="781" type="line"/>
      <point x="224" y="742"/>
      <point x="203" y="694"/>
      <point x="153" y="694" type="curve" smooth="yes"/>
      <point x="116" y="694"/>
      <point x="88" y="719"/>
      <point x="55" y="719" type="curve" smooth="yes"/>
      <point x="40" y="719"/>
      <point x="29" y="713"/>
      <point x="26" y="694" type="curve"/>
      <point x="-22" y="694" type="line"/>
      <point x="-22" y="731"/>
      <point x="-1" y="781"/>
      <point x="49" y="781" type="curve" smooth="yes"/>
      <point x="85" y="781"/>
      <point x="113" y="756"/>
      <point x="147" y="756" type="curve" smooth="yes"/>
      <point x="160" y="756"/>
      <point x="173" y="761"/>
    </contour>
    <contour>
      <point x="67" y="606" type="line"/>
      <point x="135" y="606" type="line"/>
      <point x="135" y="0" type="line"/>
      <point x="67" y="0" type="line"/>
    </contour>
  </outline>
</glyph>
<glyph name="Ibreve" format="1">
  <advance width="202"/>
  <unicode hex="012C"/>
  <outline>
    <contour>
      <point x="154" y="781" type="curve"/>
      <point x="207" y="781" type="line"/>
      <point x="207" y="742"/>
      <point x="167" y="698"/>
      <point x="101" y="698" type="curve" smooth="yes"/>
      <point x="35" y="698"/>
      <point x="-7" y="742"/>
      <point x="-7" y="781" type="curve"/>
      <point x="49" y="781" type="line"/>
      <point x="51" y="768"/>
      <point x="72" y="751"/>
      <point x="101" y="751" type="curve" smooth="yes"/>
      <point x="131" y="751"/>
      <point x="152" y="768"/>
    </contour>
    <contour>
      <point x="67" y="606" type="line"/>
      <point x="135" y="606" type="line"/>
      <point x="135" y="0" type="line"/>
      <point x="67" y="0" type="line"/>
    </contour>
  </outline>
</glyph>
<glyph name="Iogonek" format="1">
  <advance width="202"/>
  <unicode hex="012E"/>
  <outline>
    <contour>
      <point x="135" y="606" type="line"/>
      <point x="135" y="0" type="line"/>
      <point x="126" y="-13"/>
      <point x="114" y="-28"/>
      <point x="114" y="-53" type="curve" smooth="yes"/>
      <point x="114" y="-79"/>
      <point x="127" y="-102"/>
      <point x="156" y="-102" type="curve" smooth="yes"/>
      <point x="186" y="-102" type="line"/>
      <point x="186" y="-147" type="line"/>
      <point x="169" y="-154"/>
      <point x="151" y="-159"/>
      <point x="134" y="-159" type="curve" smooth="yes"/>
      <point x="96" y="-159"/>
      <point x="52" y="-140"/>
      <point x="52" y="-79" type="curve" smooth="yes"/>
      <point x="52" y="-42"/>
      <point x="65" y="-19"/>
      <point x="82" y="0" type="curve"/>
      <point x="68" y="0" type="line"/>
      <point x="68" y="606" type="line"/>
    </contour>
  </outline>
</glyph>
<glyph name="iogonek" format="1">
  <advance width="149"/>
  <unicode hex="012F"/>
  <outline>
    <contour>
      <point x="38" y="560" type="line"/>
      <point x="38" y="639" type="line"/>
      <point x="111" y="639" type="line"/>
      <point x="111" y="560" type="line"/>
    </contour>
    <contour>
      <point x="106" y="465" type="line"/>
      <point x="106" y="0" type="line"/>
      <point x="97" y="-13"/>
      <point x="86" y="-33"/>
      <point x="86" y="-53" type="curve" smooth="yes"/>
      <point x="86" y="-79"/>
      <point x="97" y="-102"/>
      <point x="126" y="-102" type="curve" smooth="yes"/>
      <point x="157" y="-102" type="line"/>
      <point x="157" y="-147" type="line"/>
      <point x="139" y="-154"/>
      <point x="121" y="-159"/>
      <point x="105" y="-159" type="curve" smooth="yes"/>
      <point x="67" y="-159"/>
      <point x="23" y="-140"/>
      <point x="23" y="-79" type="curve" smooth="yes"/>
      <point x="23" y="-43"/>
      <point x="36" y="-19"/>
      <point x="53" y="0" type="curve"/>
      <point x="43" y="0" type="line"/>
      <point x="43" y="465" type="line"/>
    </contour>
  </outline>
</glyph>
<glyph name="IJ" format="1">
  <advance width="552"/>
  <unicode hex="0132"/>
  <outline>
    <contour>
      <point x="67" y="0" type="line"/>
      <point x="67" y="606" type="line"/>
      <point x="135" y="606" type="line"/>
      <point x="135" y="0" type="line"/>
    </contour>
    <contour>
      <point x="494" y="606" type="line"/>
      <point x="494" y="144" type="line" smooth="yes"/>
      <point x="494" y="43"/>
      <point x="442" y="-11"/>
      <point x="354" y="-11" type="curve" smooth="yes"/>
      <point x="266" y="-11"/>
      <point x="214" y="43"/>
      <point x="214" y="144" type="curve" smooth="yes"/>
      <point x="214" y="182" type="line"/>
      <point x="282" y="182" type="line"/>
      <point x="282" y="136" type="line" smooth="yes"/>
      <point x="282" y="82"/>
      <point x="308" y="53"/>
      <point x="354" y="53" type="curve" smooth="yes"/>
      <point x="400" y="53"/>
      <point x="426" y="82"/>
      <point x="426" y="136" type="curve" smooth="yes"/>
      <point x="426" y="606" type="line"/>
    </contour>
  </outline>
</glyph>
<glyph name="ij" format="1">
  <advance width="298"/>
  <unicode hex="0133"/>
  <outline>
    <contour>
      <point x="43" y="555" type="line"/>
      <point x="43" y="639" type="line"/>
      <point x="106" y="639" type="line"/>
      <point x="106" y="555" type="line"/>
    </contour>
    <contour>
      <point x="192" y="555" type="line"/>
      <point x="192" y="639" type="line"/>
      <point x="255" y="639" type="line"/>
      <point x="255" y="555" type="line"/>
    </contour>
    <contour>
      <point x="43" y="0" type="line"/>
      <point x="43" y="465" type="line"/>
      <point x="106" y="465" type="line"/>
      <point x="106" y="0" type="line"/>
    </contour>
    <contour>
      <point x="255" y="465" type="line"/>
      <point x="255" y="-59" type="line" smooth="yes"/>
      <point x="255" y="-110"/>
      <point x="234" y="-161"/>
      <point x="168" y="-161" type="curve" smooth="yes"/>
      <point x="147" y="-161"/>
      <point x="126" y="-156"/>
      <point x="112" y="-150" type="curve"/>
      <point x="112" y="-108" type="line"/>
      <point x="151" y="-108" type="line" smooth="yes"/>
      <point x="178" y="-108"/>
      <point x="192" y="-93"/>
      <point x="192" y="-65" type="curve" smooth="yes"/>
      <point x="192" y="465" type="line"/>
    </contour>
  </outline>
</glyph>
<glyph name="Jcircumflex" format="1">
  <advance width="350"/>
  <unicode hex="0134"/>
  <outline>
    <contour>
      <point x="296" y="660" type="line"/>
      <point x="257" y="732" type="line"/>
      <point x="216" y="660" type="line"/>
      <point x="147" y="660" type="line"/>
      <point x="223" y="780" type="line"/>
      <point x="287" y="780" type="line"/>
      <point x="363" y="660" type="line"/>
    </contour>
    <contour>
      <point x="292" y="606" type="line"/>
      <point x="292" y="144" type="line" smooth="yes"/>
      <point x="292" y="43"/>
      <point x="240" y="-11"/>
      <point x="152" y="-11" type="curve" smooth="yes"/>
      <point x="64" y="-11"/>
      <point x="12" y="43"/>
      <point x="12" y="144" type="curve" smooth="yes"/>
      <point x="12" y="182" type="line"/>
      <point x="80" y="182" type="line"/>
      <point x="80" y="136" type="line" smooth="yes"/>
      <point x="80" y="82"/>
      <point x="106" y="53"/>
      <point x="152" y="53" type="curve" smooth="yes"/>
      <point x="198" y="53"/>
      <point x="224" y="82"/>
      <point x="224" y="136" type="curve" smooth="yes"/>
      <point x="224" y="606" type="line"/>
    </contour>
  </outline>
</glyph>
<glyph name="jcircumflex" format="1">
  <advance width="149"/>
  <unicode hex="0135"/>
  <outline>
    <contour>
      <point x="75" y="591" type="line"/>
      <point x="35" y="519" type="line"/>
      <point x="-34" y="519" type="line"/>
      <point x="42" y="638" type="line"/>
      <point x="106" y="638" type="line"/>
      <point x="182" y="519" type="line"/>
      <point x="114" y="519" type="line"/>
    </contour>
    <contour>
      <point x="106" y="465" type="line"/>
      <point x="106" y="-59" type="line" smooth="yes"/>
      <point x="106" y="-110"/>
      <point x="85" y="-161"/>
      <point x="19" y="-161" type="curve" smooth="yes"/>
      <point x="0" y="-161"/>
      <point x="-23" y="-156"/>
      <point x="-37" y="-150" type="curve"/>
      <point x="-37" y="-108" type="line"/>
      <point x="2" y="-108" type="line" smooth="yes"/>
      <point x="29" y="-108"/>
      <point x="43" y="-93"/>
      <point x="43" y="-65" type="curve" smooth="yes"/>
      <point x="43" y="465" type="line"/>
    </contour>
  </outline>
</glyph>
<glyph name="kgreenlandic" format="1">
  <advance width="348"/>
  <unicode hex="0138"/>
  <outline>
    <contour>
      <point x="279" y="0" type="line"/>
      <point x="169" y="218" type="line"/>
      <point x="117" y="162" type="line"/>
      <point x="117" y="0" type="line"/>
      <point x="54" y="0" type="line"/>
      <point x="54" y="465" type="line"/>
      <point x="117" y="465" type="line"/>
      <point x="117" y="240" type="line"/>
      <point x="273" y="465" type="line"/>
      <point x="343" y="465" type="line"/>
      <point x="207" y="273" type="line"/>
      <point x="350" y="0" type="line"/>
    </contour>
  </outline>
</glyph>
<glyph name="Lacute" format="1">
  <advance width="391"/>
  <unicode hex="0139"/>
  <outline>
    <contour>
      <point x="97" y="664" type="line"/>
      <point x="43" y="664" type="line"/>
      <point x="119" y="781" type="line"/>
      <point x="191" y="781" type="line"/>
      <point x="192" y="778" type="line"/>
    </contour>
    <contour>
      <point x="377" y="61" type="line"/>
      <point x="377" y="0" type="line"/>
      <point x="65" y="0" type="line"/>
      <point x="65" y="606" type="line"/>
      <point x="133" y="606" type="line"/>
      <point x="133" y="61" type="line"/>
    </contour>
  </outline>
</glyph>
<glyph name="Lcaron" format="1">
  <advance width="391"/>
  <unicode hex="013D"/>
  <outline>
    <contour>
      <point x="377" y="61" type="line"/>
      <point x="377" y="0" type="line"/>
      <point x="65" y="0" type="line"/>
      <point x="65" y="606" type="line"/>
      <point x="133" y="606" type="line"/>
      <point x="133" y="61" type="line"/>
    </contour>
    <contour>
      <point x="317" y="417" type="line"/>
      <point x="276" y="417" type="line"/>
      <point x="307" y="519" type="line"/>
      <point x="276" y="519" type="line"/>
      <point x="276" y="606" type="line"/>
      <point x="354" y="606" type="line"/>
      <point x="354" y="526" type="line"/>
    </contour>
  </outline>
</glyph>
<glyph name="lcaron" format="1">
  <advance width="191"/>
  <unicode hex="013E"/>
  <outline>
    <contour>
      <point x="43" y="639" type="line"/>
      <point x="106" y="639" type="line"/>
      <point x="106" y="0" type="line"/>
      <point x="43" y="0" type="line"/>
    </contour>
    <contour>
      <point x="138" y="417" type="line"/>
      <point x="169" y="519" type="line"/>
      <point x="138" y="519" type="line"/>
      <point x="138" y="606" type="line"/>
      <point x="216" y="606" type="line"/>
      <point x="216" y="526" type="line"/>
      <point x="179" y="417" type="line"/>
    </contour>
  </outline>
</glyph>
<glyph name="Ldot" format="1">
  <advance width="391"/>
  <unicode hex="013F"/>
  <outline>
    <contour>
      <point x="377" y="61" type="line"/>
      <point x="377" y="0" type="line"/>
      <point x="65" y="0" type="line"/>
      <point x="65" y="606" type="line"/>
      <point x="133" y="606" type="line"/>
      <point x="133" y="61" type="line"/>
    </contour>
    <contour>
      <point x="256" y="367" type="line"/>
      <point x="256" y="464" type="line"/>
      <point x="344" y="464" type="line"/>
      <point x="344" y="367" type="line"/>
    </contour>
  </outline>
</glyph>
<glyph name="lslash" format="1">
  <advance width="149"/>
  <unicode hex="0142"/>
  <outline>
    <contour>
      <point x="185" y="347" type="line"/>
      <point x="106" y="277" type="line"/>
      <point x="106" y="0" type="line"/>
      <point x="43" y="0" type="line"/>
      <point x="43" y="221" type="line"/>
      <point x="-21" y="167" type="line"/>
      <point x="-21" y="222" type="line"/>
      <point x="43" y="279" type="line"/>
      <point x="43" y="639" type="line"/>
      <point x="106" y="639" type="line"/>
      <point x="106" y="335" type="line"/>
      <point x="185" y="405" type="line"/>
    </contour>
  </outline>
</glyph>
<glyph name="Ncommaaccent" format="1">
  <advance width="523"/>
  <unicode hex="0145"/>
  <outline>
    <contour>
      <point x="405" y="0" type="line"/>
      <point x="167" y="401" type="line" smooth="yes"/>
      <point x="149" y="431"/>
      <point x="124" y="491"/>
      <point x="124" y="491" type="curve"/>
      <point x="122" y="490" type="line"/>
      <point x="122" y="490"/>
      <point x="126" y="428"/>
      <point x="126" y="400" type="curve" smooth="yes"/>
      <point x="126" y="0" type="line"/>
      <point x="65" y="0" type="line"/>
      <point x="65" y="606" type="line"/>
      <point x="122" y="606" type="line"/>
      <point x="358" y="211" type="line" smooth="yes"/>
      <point x="374" y="186"/>
      <point x="399" y="123"/>
      <point x="399" y="123" type="curve"/>
      <point x="401" y="124" type="line"/>
      <point x="401" y="124"/>
      <point x="399" y="190"/>
      <point x="399" y="212" type="curve" smooth="yes"/>
      <point x="399" y="606" type="line"/>
      <point x="459" y="606" type="line"/>
      <point x="459" y="0" type="line"/>
    </contour>
    <contour>
      <point x="273" y="-185" type="line"/>
      <point x="238" y="-185" type="line"/>
      <point x="256" y="-126" type="line"/>
      <point x="229" y="-126" type="line"/>
      <point x="229" y="-54" type="line"/>
      <point x="295" y="-54" type="line"/>
      <point x="295" y="-121" type="line"/>
    </contour>
  </outline>
</glyph>
<glyph name="ncommaaccent" format="1">
  <advance width="391"/>
  <unicode hex="0146"/>
  <outline>
    <contour>
      <point x="224" y="476" type="curve" smooth="yes"/>
      <point x="294" y="476"/>
      <point x="337" y="439"/>
      <point x="337" y="338" type="curve" smooth="yes"/>
      <point x="337" y="0" type="line"/>
      <point x="275" y="0" type="line"/>
      <point x="275" y="340" type="line" smooth="yes"/>
      <point x="275" y="405"/>
      <point x="247" y="420"/>
      <point x="207" y="420" type="curve" smooth="yes"/>
      <point x="160" y="420"/>
      <point x="117" y="371"/>
      <point x="117" y="283" type="curve" smooth="yes"/>
      <point x="117" y="0" type="line"/>
      <point x="54" y="0" type="line"/>
      <point x="54" y="465" type="line"/>
      <point x="99" y="465" type="line"/>
      <point x="109" y="412" type="line"/>
      <point x="114" y="412" type="line"/>
      <point x="141" y="461"/>
      <point x="181" y="476"/>
    </contour>
    <contour>
      <point x="172" y="-185" type="line"/>
      <point x="189" y="-126" type="line"/>
      <point x="163" y="-126" type="line"/>
      <point x="163" y="-54" type="line"/>
      <point x="229" y="-54" type="line"/>
      <point x="229" y="-121" type="line"/>
      <point x="207" y="-185" type="line"/>
    </contour>
  </outline>
</glyph>
<glyph name="Obreve" format="1">
  <advance width="564"/>
  <unicode hex="014E"/>
  <outline>
    <contour>
      <point x="335" y="781" type="curve"/>
      <point x="390" y="781" type="line"/>
      <point x="390" y="742"/>
      <point x="349" y="698"/>
      <point x="282" y="698" type="curve" smooth="yes"/>
      <point x="217" y="698"/>
      <point x="176" y="742"/>
      <point x="176" y="781" type="curve"/>
      <point x="230" y="781" type="line"/>
      <point x="232" y="768"/>
      <point x="253" y="751"/>
      <point x="282" y="751" type="curve" smooth="yes"/>
      <point x="312" y="751"/>
      <point x="333" y="768"/>
    </contour>
    <contour>
      <point x="282" y="617" type="curve" smooth="yes"/>
      <point x="429" y="617"/>
      <point x="517" y="513"/>
      <point x="517" y="303" type="curve" smooth="yes"/>
      <point x="517" y="94"/>
      <point x="429" y="-11"/>
      <point x="282" y="-11" type="curve" smooth="yes"/>
      <point x="135" y="-11"/>
      <point x="47" y="94"/>
      <point x="47" y="303" type="curve" smooth="yes"/>
      <point x="47" y="513"/>
      <point x="135" y="617"/>
    </contour>
    <contour>
      <point x="282" y="552" type="curve" smooth="yes"/>
      <point x="183" y="552"/>
      <point x="119" y="481"/>
      <point x="119" y="325" type="curve" smooth="yes"/>
      <point x="119" y="281" type="line" smooth="yes"/>
      <point x="119" y="125"/>
      <point x="183" y="53"/>
      <point x="282" y="53" type="curve" smooth="yes"/>
      <point x="382" y="53"/>
      <point x="446" y="125"/>
      <point x="446" y="281" type="curve" smooth="yes"/>
      <point x="446" y="325" type="line" smooth="yes"/>
      <point x="446" y="481"/>
      <point x="382" y="552"/>
    </contour>
  </outline>
</glyph>
<glyph name="ohungarumlaut" format="1">
  <advance width="391"/>
  <unicode hex="0151"/>
  <outline>
    <contour>
      <point x="79" y="522" type="line"/>
      <point x="133" y="639" type="line"/>
      <point x="210" y="639" type="line"/>
      <point x="211" y="636" type="line"/>
      <point x="137" y="522" type="line"/>
    </contour>
    <contour>
      <point x="264" y="522" type="line"/>
      <point x="319" y="639" type="line"/>
      <point x="397" y="639" type="line"/>
      <point x="398" y="636" type="line"/>
      <point x="322" y="522" type="line"/>
    </contour>
    <contour>
      <point x="196" y="476" type="curve" smooth="yes"/>
      <point x="300" y="476"/>
      <point x="357" y="400"/>
      <point x="357" y="232" type="curve" smooth="yes"/>
      <point x="357" y="65"/>
      <point x="300" y="-11"/>
      <point x="196" y="-11" type="curve" smooth="yes"/>
      <point x="92" y="-11"/>
      <point x="35" y="65"/>
      <point x="35" y="232" type="curve" smooth="yes"/>
      <point x="35" y="400"/>
      <point x="92" y="476"/>
    </contour>
    <contour>
      <point x="196" y="418" type="curve" smooth="yes"/>
      <point x="133" y="418"/>
      <point x="100" y="361"/>
      <point x="100" y="249" type="curve" smooth="yes"/>
      <point x="100" y="216" type="line" smooth="yes"/>
      <point x="100" y="104"/>
      <point x="133" y="47"/>
      <point x="196" y="47" type="curve" smooth="yes"/>
      <point x="257" y="47"/>
      <point x="290" y="104"/>
      <point x="290" y="216" type="curve" smooth="yes"/>
      <point x="290" y="249" type="line" smooth="yes"/>
      <point x="290" y="361"/>
      <point x="257" y="418"/>
    </contour>
  </outline>
</glyph>
<glyph name="oe" format="1">
  <advance width="684"/>
  <unicode hex="0153"/>
  <outline>
    <contour>
      <point x="0" y="0" type="move" name="Anchor-1"/>
    </contour>
    <contour>
      <point x="342" y="465" type="move" name="Anchor-0"/>
    </contour>
    <contour>
      <point x="481" y="476" type="curve" smooth="yes"/>
      <point x="580" y="476"/>
      <point x="630" y="417"/>
      <point x="630" y="264" type="curve" smooth="yes"/>
      <point x="630" y="212" type="line"/>
      <point x="373" y="212" type="line"/>
      <point x="374" y="97"/>
      <point x="410" y="48"/>
      <point x="484" y="48" type="curve" smooth="yes"/>
      <point x="533" y="48"/>
      <point x="567" y="90"/>
      <point x="567" y="156" type="curve"/>
      <point x="630" y="156" type="line"/>
      <point x="630" y="57"/>
      <point x="570" y="-11"/>
      <point x="481" y="-11" type="curve" smooth="yes"/>
      <point x="416" y="-11"/>
      <point x="367" y="11"/>
      <point x="339" y="60" type="curve"/>
      <point x="313" y="12"/>
      <point x="269" y="-11"/>
      <point x="210" y="-11" type="curve" smooth="yes"/>
      <point x="106" y="-11"/>
      <point x="50" y="65"/>
      <point x="50" y="232" type="curve" smooth="yes"/>
      <point x="50" y="400"/>
      <point x="106" y="476"/>
      <point x="210" y="476" type="curve" smooth="yes"/>
      <point x="269" y="476"/>
      <point x="313" y="452"/>
      <point x="339" y="405" type="curve"/>
      <point x="368" y="452"/>
      <point x="415" y="476"/>
    </contour>
    <contour>
      <point x="210" y="418" type="curve" smooth="yes"/>
      <point x="149" y="418"/>
      <point x="116" y="361"/>
      <point x="116" y="249" type="curve" smooth="yes"/>
      <point x="116" y="216" type="line" smooth="yes"/>
      <point x="116" y="104"/>
      <point x="149" y="47"/>
      <point x="210" y="47" type="curve" smooth="yes"/>
      <point x="272" y="47"/>
      <point x="305" y="104"/>
      <point x="305" y="216" type="curve" smooth="yes"/>
      <point x="305" y="249" type="line" smooth="yes"/>
      <point x="305" y="361"/>
      <point x="272" y="418"/>
    </contour>
    <contour>
      <point x="481" y="417" type="curve" smooth="yes"/>
      <point x="410" y="417"/>
      <point x="381" y="369"/>
      <point x="374" y="274" type="curve"/>
      <point x="564" y="274" type="line"/>
      <point x="564" y="368"/>
      <point x="534" y="417"/>
    </contour>
  </outline>
</glyph>
<glyph name="racute" format="1">
  <advance width="229"/>
  <unicode hex="0155"/>
  <outline>
    <contour>
      <point x="81" y="522" type="line"/>
      <point x="27" y="522" type="line"/>
      <point x="103" y="639" type="line"/>
      <point x="175" y="639" type="line"/>
      <point x="176" y="636" type="line"/>
    </contour>
    <contour>
      <point x="192" y="476" type="curve" smooth="yes"/>
      <point x="208" y="476"/>
      <point x="223" y="469"/>
      <point x="223" y="469" type="curve"/>
      <point x="223" y="401" type="line"/>
      <point x="203" y="401" type="line" smooth="yes"/>
      <point x="157" y="401"/>
      <point x="117" y="373"/>
      <point x="117" y="291" type="curve" smooth="yes"/>
      <point x="117" y="0" type="line"/>
      <point x="54" y="0" type="line"/>
      <point x="54" y="465" type="line"/>
      <point x="99" y="465" type="line"/>
      <point x="109" y="406" type="line"/>
      <point x="113" y="406" type="line"/>
      <point x="124" y="440"/>
      <point x="148" y="476"/>
    </contour>
  </outline>
</glyph>
<glyph name="rcommaaccent" format="1">
  <advance width="229"/>
  <unicode hex="0157"/>
  <outline>
    <contour>
      <point x="192" y="476" type="curve" smooth="yes"/>
      <point x="208" y="476"/>
      <point x="223" y="469"/>
      <point x="223" y="469" type="curve"/>
      <point x="223" y="401" type="line"/>
      <point x="203" y="401" type="line" smooth="yes"/>
      <point x="157" y="401"/>
      <point x="117" y="373"/>
      <point x="117" y="291" type="curve" smooth="yes"/>
      <point x="117" y="0" type="line"/>
      <point x="54" y="0" type="line"/>
      <point x="54" y="465" type="line"/>
      <point x="99" y="465" type="line"/>
      <point x="109" y="406" type="line"/>
      <point x="113" y="406" type="line"/>
      <point x="124" y="440"/>
      <point x="148" y="476"/>
    </contour>
    <contour>
      <point x="71" y="-185" type="line"/>
      <point x="87" y="-126" type="line"/>
      <point x="60" y="-126" type="line"/>
      <point x="60" y="-54" type="line"/>
      <point x="126" y="-54" type="line"/>
      <point x="126" y="-121" type="line"/>
      <point x="106" y="-185" type="line"/>
    </contour>
  </outline>
</glyph>
<glyph name="sacute" format="1">
  <advance width="350"/>
  <unicode hex="015B"/>
  <outline>
    <contour>
      <point x="178" y="522" type="line"/>
      <point x="125" y="522" type="line"/>
      <point x="200" y="639" type="line"/>
      <point x="272" y="639" type="line"/>
      <point x="273" y="636" type="line"/>
    </contour>
    <contour>
      <point x="180" y="476" type="curve" smooth="yes"/>
      <point x="265" y="476"/>
      <point x="306" y="413"/>
      <point x="306" y="348" type="curve" smooth="yes"/>
      <point x="306" y="343"/>
      <point x="305" y="334"/>
      <point x="305" y="332" type="curve" smooth="yes"/>
      <point x="239" y="332" type="line"/>
      <point x="239" y="341" type="line" smooth="yes"/>
      <point x="240" y="378"/>
      <point x="226" y="419"/>
      <point x="172" y="419" type="curve" smooth="yes"/>
      <point x="114" y="419"/>
      <point x="106" y="375"/>
      <point x="106" y="349" type="curve" smooth="yes"/>
      <point x="106" y="245"/>
      <point x="314" y="301"/>
      <point x="314" y="131" type="curve" smooth="yes"/>
      <point x="314" y="35"/>
      <point x="254" y="-11"/>
      <point x="173" y="-11" type="curve" smooth="yes"/>
      <point x="66" y="-11"/>
      <point x="29" y="59"/>
      <point x="29" y="123" type="curve" smooth="yes"/>
      <point x="29" y="137"/>
      <point x="30" y="142"/>
      <point x="30" y="144" type="curve" smooth="yes"/>
      <point x="97" y="144" type="line"/>
      <point x="97" y="135" type="line" smooth="yes"/>
      <point x="96" y="74"/>
      <point x="131" y="46"/>
      <point x="176" y="46" type="curve" smooth="yes"/>
      <point x="217" y="46"/>
      <point x="249" y="74"/>
      <point x="249" y="121" type="curve" smooth="yes"/>
      <point x="249" y="243"/>
      <point x="41" y="182"/>
      <point x="41" y="346" type="curve" smooth="yes"/>
      <point x="41" y="424"/>
      <point x="92" y="476"/>
    </contour>
  </outline>
</glyph>
<glyph name="Tcedilla" format="1">
  <advance width="443"/>
  <unicode hex="0162"/>
  <outline>
    <contour>
      <point x="222" y="0" type="move" name="Anchor-1"/>
    </contour>
    <contour>
      <point x="222" y="606" type="move" name="Anchor-0"/>
    </contour>
    <contour>
      <point x="238" y="0" type="line"/>
      <point x="232" y="-33" type="line"/>
      <point x="270" y="-35"/>
      <point x="305" y="-49"/>
      <point x="305" y="-89" type="curve" smooth="yes"/>
      <point x="305" y="-149"/>
      <point x="249" y="-161"/>
      <point x="214" y="-161" type="curve" smooth="yes"/>
      <point x="189" y="-161"/>
      <point x="161" y="-158"/>
      <point x="140" y="-154" type="curve"/>
      <point x="140" y="-111" type="line"/>
      <point x="208" y="-111" type="line" smooth="yes"/>
      <point x="227" y="-111"/>
      <point x="240" y="-106"/>
      <point x="240" y="-89" type="curve" smooth="yes"/>
      <point x="240" y="-75"/>
      <point x="233" y="-68"/>
      <point x="210" y="-68" type="curve" smooth="yes"/>
      <point x="181" y="-68" type="line"/>
      <point x="192" y="0" type="line"/>
      <point x="187" y="0" type="line"/>
      <point x="187" y="545" type="line"/>
      <point x="18" y="545" type="line"/>
      <point x="18" y="606" type="line"/>
      <point x="424" y="606" type="line"/>
      <point x="424" y="545" type="line"/>
      <point x="255" y="545" type="line"/>
      <point x="255" y="0" type="line"/>
    </contour>
  </outline>
</glyph>
<glyph name="tcedilla" format="1">
  <advance width="191"/>
  <unicode hex="0163"/>
  <outline>
    <contour>
      <point x="110" y="0" type="move" name="Anchor-1"/>
    </contour>
    <contour>
      <point x="0" y="0" type="move" name="Anchor-0"/>
    </contour>
    <contour>
      <point x="125" y="-8" type="line"/>
      <point x="120" y="-33" type="line"/>
      <point x="158" y="-35"/>
      <point x="193" y="-49"/>
      <point x="193" y="-89" type="curve" smooth="yes"/>
      <point x="193" y="-149"/>
      <point x="137" y="-161"/>
      <point x="102" y="-161" type="curve" smooth="yes"/>
      <point x="77" y="-161"/>
      <point x="49" y="-158"/>
      <point x="28" y="-154" type="curve"/>
      <point x="28" y="-111" type="line"/>
      <point x="96" y="-111" type="line" smooth="yes"/>
      <point x="115" y="-111"/>
      <point x="128" y="-106"/>
      <point x="128" y="-89" type="curve" smooth="yes"/>
      <point x="128" y="-75"/>
      <point x="121" y="-68"/>
      <point x="98" y="-68" type="curve" smooth="yes"/>
      <point x="69" y="-68" type="line"/>
      <point x="81" y="7" type="line"/>
      <point x="59" y="26"/>
      <point x="51" y="60"/>
      <point x="51" y="93" type="curve" smooth="yes"/>
      <point x="51" y="407" type="line"/>
      <point x="13" y="407" type="line"/>
      <point x="13" y="465" type="line"/>
      <point x="51" y="465" type="line"/>
      <point x="67" y="593" type="line"/>
      <point x="114" y="593" type="line"/>
      <point x="114" y="465" type="line"/>
      <point x="175" y="465" type="line"/>
      <point x="175" y="407" type="line"/>
      <point x="114" y="407" type="line"/>
      <point x="114" y="90" type="line" smooth="yes"/>
      <point x="114" y="62"/>
      <point x="129" y="47"/>
      <point x="156" y="47" type="curve" smooth="yes"/>
      <point x="175" y="47" type="line"/>
      <point x="175" y="5" type="line"/>
      <point x="164" y="-4"/>
      <point x="143" y="-8"/>
      <point x="126" y="-8" type="curve" smooth="yes"/>
    </contour>
  </outline>
</glyph>
<glyph name="Tcaron" format="1">
  <advance width="443"/>
  <unicode hex="0164"/>
  <outline>
    <contour>
      <point x="189" y="661" type="line"/>
      <point x="113" y="781" type="line"/>
      <point x="182" y="781" type="line"/>
      <point x="220" y="708" type="line"/>
      <point x="261" y="781" type="line"/>
      <point x="328" y="781" type="line"/>
      <point x="252" y="661" type="line"/>
    </contour>
    <contour>
      <point x="255" y="545" type="line"/>
      <point x="255" y="0" type="line"/>
      <point x="187" y="0" type="line"/>
      <point x="187" y="545" type="line"/>
      <point x="18" y="545" type="line"/>
      <point x="18" y="606" type="line"/>
      <point x="424" y="606" type="line"/>
      <point x="424" y="545" type="line"/>
    </contour>
  </outline>
</glyph>
<glyph name="tcaron" format="1">
  <advance width="249"/>
  <unicode hex="0165"/>
  <outline>
    <contour>
      <point x="207" y="408" type="line"/>
      <point x="241" y="519" type="line"/>
      <point x="210" y="519" type="line"/>
      <point x="210" y="606" type="line"/>
      <point x="290" y="606" type="line"/>
      <point x="290" y="526" type="line"/>
      <point x="248" y="408" type="line"/>
    </contour>
    <contour>
      <point x="175" y="407" type="line"/>
      <point x="114" y="407" type="line"/>
      <point x="114" y="90" type="line" smooth="yes"/>
      <point x="114" y="62"/>
      <point x="129" y="47"/>
      <point x="156" y="47" type="curve" smooth="yes"/>
      <point x="175" y="47" type="line"/>
      <point x="175" y="5" type="line"/>
      <point x="164" y="-4"/>
      <point x="143" y="-8"/>
      <point x="126" y="-8" type="curve" smooth="yes"/>
      <point x="69" y="-8"/>
      <point x="51" y="43"/>
      <point x="51" y="93" type="curve" smooth="yes"/>
      <point x="51" y="407" type="line"/>
      <point x="13" y="407" type="line"/>
      <point x="13" y="465" type="line"/>
      <point x="51" y="465" type="line"/>
      <point x="67" y="593" type="line"/>
      <point x="114" y="593" type="line"/>
      <point x="114" y="465" type="line"/>
      <point x="175" y="465" type="line"/>
    </contour>
  </outline>
</glyph>
<glyph name="Tbar" format="1">
  <advance width="443"/>
  <unicode hex="0166"/>
  <outline>
    <contour>
      <point x="255" y="545" type="line"/>
      <point x="255" y="347" type="line"/>
      <point x="376" y="347" type="line"/>
      <point x="376" y="287" type="line"/>
      <point x="255" y="287" type="line"/>
      <point x="255" y="0" type="line"/>
      <point x="187" y="0" type="line"/>
      <point x="187" y="287" type="line"/>
      <point x="69" y="287" type="line"/>
      <point x="69" y="347" type="line"/>
      <point x="187" y="347" type="line"/>
      <point x="187" y="545" type="line"/>
      <point x="18" y="545" type="line"/>
      <point x="18" y="606" type="line"/>
      <point x="424" y="606" type="line"/>
      <point x="424" y="545" type="line"/>
    </contour>
  </outline>
</glyph>
<glyph name="tbar" format="1">
  <advance width="191"/>
  <unicode hex="0167"/>
  <outline>
    <contour>
      <point x="175" y="465" type="line"/>
      <point x="175" y="407" type="line"/>
      <point x="114" y="407" type="line"/>
      <point x="114" y="309" type="line"/>
      <point x="170" y="309" type="line"/>
      <point x="170" y="253" type="line"/>
      <point x="114" y="253" type="line"/>
      <point x="114" y="90" type="line" smooth="yes"/>
      <point x="114" y="62"/>
      <point x="129" y="47"/>
      <point x="156" y="47" type="curve" smooth="yes"/>
      <point x="175" y="47" type="line"/>
      <point x="175" y="5" type="line"/>
      <point x="164" y="-4"/>
      <point x="143" y="-8"/>
      <point x="126" y="-8" type="curve" smooth="yes"/>
      <point x="69" y="-8"/>
      <point x="51" y="43"/>
      <point x="51" y="93" type="curve" smooth="yes"/>
      <point x="51" y="253" type="line"/>
      <point x="15" y="253" type="line"/>
      <point x="15" y="309" type="line"/>
      <point x="51" y="309" type="line"/>
      <point x="51" y="407" type="line"/>
      <point x="13" y="407" type="line"/>
      <point x="13" y="465" type="line"/>
      <point x="51" y="465" type="line"/>
      <point x="67" y="593" type="line"/>
      <point x="114" y="593" type="line"/>
      <point x="114" y="465" type="line"/>
    </contour>
  </outline>
</glyph>
<glyph name="Utilde" format="1">
  <advance width="523"/>
  <unicode hex="0168"/>
  <outline>
    <contour>
      <point x="335" y="781" type="curve"/>
      <point x="386" y="781" type="line"/>
      <point x="386" y="742"/>
      <point x="364" y="694"/>
      <point x="314" y="694" type="curve" smooth="yes"/>
      <point x="276" y="694"/>
      <point x="249" y="719"/>
      <point x="216" y="719" type="curve" smooth="yes"/>
      <point x="201" y="719"/>
      <point x="191" y="713"/>
      <point x="188" y="694" type="curve"/>
      <point x="139" y="694" type="line"/>
      <point x="139" y="731"/>
      <point x="160" y="781"/>
      <point x="210" y="781" type="curve" smooth="yes"/>
      <point x="247" y="781"/>
      <point x="274" y="756"/>
      <point x="307" y="756" type="curve" smooth="yes"/>
      <point x="322" y="756"/>
      <point x="334" y="761"/>
    </contour>
    <contour>
      <point x="458" y="606" type="line"/>
      <point x="458" y="199" type="line" smooth="yes"/>
      <point x="458" y="62"/>
      <point x="384" y="-11"/>
      <point x="262" y="-11" type="curve" smooth="yes"/>
      <point x="138" y="-11"/>
      <point x="64" y="62"/>
      <point x="64" y="199" type="curve" smooth="yes"/>
      <point x="64" y="606" type="line"/>
      <point x="132" y="606" type="line"/>
      <point x="132" y="193" type="line" smooth="yes"/>
      <point x="132" y="102"/>
      <point x="181" y="53"/>
      <point x="262" y="53" type="curve" smooth="yes"/>
      <point x="342" y="53"/>
      <point x="392" y="102"/>
      <point x="392" y="193" type="curve" smooth="yes"/>
      <point x="392" y="606" type="line"/>
    </contour>
  </outline>
</glyph>
<glyph name="utilde" format="1">
  <advance width="391"/>
  <unicode hex="0169"/>
  <outline>
    <contour>
      <point x="270" y="639" type="curve"/>
      <point x="320" y="639" type="line"/>
      <point x="320" y="600"/>
      <point x="298" y="552"/>
      <point x="247" y="552" type="curve" smooth="yes"/>
      <point x="211" y="552"/>
      <point x="183" y="578"/>
      <point x="151" y="578" type="curve" smooth="yes"/>
      <point x="135" y="578"/>
      <point x="124" y="572"/>
      <point x="122" y="552" type="curve"/>
      <point x="72" y="552" type="line"/>
      <point x="72" y="590"/>
      <point x="94" y="639"/>
      <point x="145" y="639" type="curve" smooth="yes"/>
      <point x="181" y="639"/>
      <point x="209" y="614"/>
      <point x="241" y="614" type="curve" smooth="yes"/>
      <point x="256" y="614"/>
      <point x="268" y="620"/>
    </contour>
    <contour>
      <point x="283" y="53" type="line"/>
      <point x="277" y="53" type="line"/>
      <point x="252" y="4"/>
      <point x="210" y="-11"/>
      <point x="167" y="-11" type="curve" smooth="yes"/>
      <point x="97" y="-11"/>
      <point x="54" y="26"/>
      <point x="54" y="127" type="curve" smooth="yes"/>
      <point x="54" y="465" type="line"/>
      <point x="117" y="465" type="line"/>
      <point x="117" y="125" type="line" smooth="yes"/>
      <point x="117" y="60"/>
      <point x="145" y="45"/>
      <point x="183" y="45" type="curve" smooth="yes"/>
      <point x="231" y="45"/>
      <point x="275" y="94"/>
      <point x="275" y="182" type="curve" smooth="yes"/>
      <point x="275" y="465" type="line"/>
      <point x="337" y="465" type="line"/>
      <point x="337" y="0" type="line"/>
      <point x="292" y="0" type="line"/>
    </contour>
  </outline>
</glyph>
<glyph name="Ubreve" format="1">
  <advance width="523"/>
  <unicode hex="016C"/>
  <outline>
    <contour>
      <point x="315" y="781" type="curve"/>
      <point x="368" y="781" type="line"/>
      <point x="368" y="742"/>
      <point x="328" y="698"/>
      <point x="262" y="698" type="curve" smooth="yes"/>
      <point x="195" y="698"/>
      <point x="154" y="742"/>
      <point x="154" y="781" type="curve"/>
      <point x="210" y="781" type="line"/>
      <point x="212" y="768"/>
      <point x="232" y="751"/>
      <point x="262" y="751" type="curve" smooth="yes"/>
      <point x="292" y="751"/>
      <point x="313" y="768"/>
    </contour>
    <contour>
      <point x="458" y="606" type="line"/>
      <point x="458" y="199" type="line" smooth="yes"/>
      <point x="458" y="62"/>
      <point x="384" y="-11"/>
      <point x="262" y="-11" type="curve" smooth="yes"/>
      <point x="138" y="-11"/>
      <point x="64" y="62"/>
      <point x="64" y="199" type="curve" smooth="yes"/>
      <point x="64" y="606" type="line"/>
      <point x="132" y="606" type="line"/>
      <point x="132" y="193" type="line" smooth="yes"/>
      <point x="132" y="102"/>
      <point x="181" y="53"/>
      <point x="262" y="53" type="curve" smooth="yes"/>
      <point x="342" y="53"/>
      <point x="392" y="102"/>
      <point x="392" y="193" type="curve" smooth="yes"/>
      <point x="392" y="606" type="line"/>
    </contour>
  </outline>
</glyph>
<glyph name="Uhungarumlaut" format="1">
  <advance width="523"/>
  <unicode hex="0170"/>
  <outline>
    <contour>
      <point x="239" y="664" type="line"/>
      <point x="181" y="664" type="line"/>
      <point x="236" y="781" type="line"/>
      <point x="312" y="781" type="line"/>
      <point x="313" y="778" type="line"/>
    </contour>
    <contour>
      <point x="352" y="664" type="line"/>
      <point x="295" y="664" type="line"/>
      <point x="349" y="781" type="line"/>
      <point x="425" y="781" type="line"/>
      <point x="426" y="778" type="line"/>
    </contour>
    <contour>
      <point x="458" y="606" type="line"/>
      <point x="458" y="199" type="line" smooth="yes"/>
      <point x="458" y="62"/>
      <point x="384" y="-11"/>
      <point x="262" y="-11" type="curve" smooth="yes"/>
      <point x="138" y="-11"/>
      <point x="64" y="62"/>
      <point x="64" y="199" type="curve" smooth="yes"/>
      <point x="64" y="606" type="line"/>
      <point x="132" y="606" type="line"/>
      <point x="132" y="193" type="line" smooth="yes"/>
      <point x="132" y="102"/>
      <point x="181" y="53"/>
      <point x="262" y="53" type="curve" smooth="yes"/>
      <point x="342" y="53"/>
      <point x="392" y="102"/>
      <point x="392" y="193" type="curve" smooth="yes"/>
      <point x="392" y="606" type="line"/>
    </contour>
  </outline>
</glyph>
<glyph name="Uogonek" format="1">
  <advance width="523"/>
  <unicode hex="0172"/>
  <outline>
    <contour>
      <point x="458" y="606" type="line"/>
      <point x="458" y="197" type="line" smooth="yes"/>
      <point x="458" y="97"/>
      <point x="418" y="33"/>
      <point x="349" y="4" type="curve"/>
      <point x="338" y="-8"/>
      <point x="325" y="-30"/>
      <point x="325" y="-54" type="curve" smooth="yes"/>
      <point x="325" y="-80"/>
      <point x="336" y="-103"/>
      <point x="367" y="-103" type="curve" smooth="yes"/>
      <point x="396" y="-103" type="line"/>
      <point x="396" y="-148" type="line"/>
      <point x="379" y="-155"/>
      <point x="361" y="-160"/>
      <point x="343" y="-160" type="curve" smooth="yes"/>
      <point x="306" y="-160"/>
      <point x="261" y="-141"/>
      <point x="261" y="-80" type="curve" smooth="yes"/>
      <point x="261" y="-50"/>
      <point x="271" y="-28"/>
      <point x="285" y="-9" type="curve"/>
      <point x="279" y="-10"/>
      <point x="272" y="-11"/>
      <point x="262" y="-11" type="curve" smooth="yes"/>
      <point x="138" y="-11"/>
      <point x="64" y="61"/>
      <point x="64" y="197" type="curve" smooth="yes"/>
      <point x="64" y="606" type="line"/>
      <point x="132" y="606" type="line"/>
      <point x="132" y="191" type="line" smooth="yes"/>
      <point x="132" y="101"/>
      <point x="181" y="53"/>
      <point x="262" y="53" type="curve" smooth="yes"/>
      <point x="342" y="53"/>
      <point x="392" y="101"/>
      <point x="392" y="191" type="curve" smooth="yes"/>
      <point x="392" y="606" type="line"/>
    </contour>
  </outline>
</glyph>
<glyph name="wcircumflex" format="1">
  <advance width="511"/>
  <unicode hex="0175"/>
  <outline>
    <contour>
      <point x="257" y="591" type="line"/>
      <point x="216" y="519" type="line"/>
      <point x="147" y="519" type="line"/>
      <point x="223" y="638" type="line"/>
      <point x="287" y="638" type="line"/>
      <point x="363" y="519" type="line"/>
      <point x="295" y="519" type="line"/>
    </contour>
    <contour>
      <point x="319" y="0" type="line"/>
      <point x="271" y="278" type="line" smooth="yes"/>
      <point x="262" y="326"/>
      <point x="257" y="382"/>
      <point x="257" y="382" type="curve"/>
      <point x="253" y="382" type="line"/>
      <point x="253" y="382"/>
      <point x="248" y="327"/>
      <point x="239" y="277" type="curve" smooth="yes"/>
      <point x="190" y="0" type="line"/>
      <point x="118" y="0" type="line"/>
      <point x="1" y="465" type="line"/>
      <point x="72" y="465" type="line"/>
      <point x="135" y="182" type="line" smooth="yes"/>
      <point x="143" y="151"/>
      <point x="153" y="83"/>
      <point x="153" y="83" type="curve"/>
      <point x="157" y="83" type="line"/>
      <point x="157" y="83"/>
      <point x="163" y="141"/>
      <point x="170" y="182" type="curve" smooth="yes"/>
      <point x="219" y="465" type="line"/>
      <point x="296" y="465" type="line"/>
      <point x="347" y="183" type="line" smooth="yes"/>
      <point x="354" y="135"/>
      <point x="359" y="83"/>
      <point x="359" y="83" type="curve"/>
      <point x="362" y="83" type="line"/>
      <point x="362" y="83"/>
      <point x="367" y="129"/>
      <point x="380" y="183" type="curve" smooth="yes"/>
      <point x="443" y="465" type="line"/>
      <point x="510" y="465" type="line"/>
      <point x="393" y="0" type="line"/>
    </contour>
  </outline>
</glyph>
<glyph name="Zacute" format="1">
  <advance width="443"/>
  <unicode hex="0179"/>
  <outline>
    <contour>
      <point x="224" y="664" type="line"/>
      <point x="171" y="664" type="line"/>
      <point x="247" y="781" type="line"/>
      <point x="318" y="781" type="line"/>
      <point x="319" y="778" type="line"/>
    </contour>
    <contour>
      <point x="116" y="62" type="line"/>
      <point x="423" y="62" type="line"/>
      <point x="423" y="0" type="line"/>
      <point x="19" y="0" type="line"/>
      <point x="19" y="31" type="line"/>
      <point x="318" y="545" type="line"/>
      <point x="37" y="545" type="line"/>
      <point x="37" y="606" type="line"/>
      <point x="417" y="606" type="line"/>
      <point x="417" y="576" type="line"/>
    </contour>
  </outline>
</glyph>
<glyph name="Zcaron" format="1">
  <advance width="443"/>
  <unicode hex="017D"/>
  <outline>
    <contour>
      <point x="189" y="661" type="line"/>
      <point x="113" y="781" type="line"/>
      <point x="182" y="781" type="line"/>
      <point x="220" y="708" type="line"/>
      <point x="261" y="781" type="line"/>
      <point x="328" y="781" type="line"/>
      <point x="252" y="661" type="line"/>
    </contour>
    <contour>
      <point x="116" y="62" type="line"/>
      <point x="423" y="62" type="line"/>
      <point x="423" y="0" type="line"/>
      <point x="19" y="0" type="line"/>
      <point x="19" y="31" type="line"/>
      <point x="318" y="545" type="line"/>
      <point x="37" y="545" type="line"/>
      <point x="37" y="606" type="line"/>
      <point x="417" y="606" type="line"/>
      <point x="417" y="576" type="line"/>
    </contour>
  </outline>
</glyph>
<glyph name="zcaron" format="1">
  <advance width="362"/>
  <unicode hex="017E"/>
  <outline>
    <contour>
      <point x="75" y="639" type="line"/>
      <point x="142" y="639" type="line"/>
      <point x="181" y="566" type="line"/>
      <point x="221" y="639" type="line"/>
      <point x="290" y="639" type="line"/>
      <point x="214" y="520" type="line"/>
      <point x="150" y="520" type="line"/>
    </contour>
    <contour>
      <point x="337" y="58" type="line"/>
      <point x="337" y="0" type="line"/>
      <point x="25" y="0" type="line"/>
      <point x="25" y="31" type="line"/>
      <point x="236" y="407" type="line"/>
      <point x="40" y="407" type="line"/>
      <point x="40" y="465" type="line"/>
      <point x="323" y="465" type="line"/>
      <point x="323" y="434" type="line"/>
      <point x="111" y="58" type="line"/>
    </contour>
  </outline>
</glyph>
<glyph name="florin" format="1">
  <advance width="403"/>
  <unicode hex="0192"/>
  <outline>
    <contour>
      <point x="310" y="646" type="curve" smooth="yes"/>
      <point x="329" y="646"/>
      <point x="349" y="641"/>
      <point x="363" y="636" type="curve"/>
      <point x="357" y="593" type="line"/>
      <point x="319" y="593" type="line" smooth="yes"/>
      <point x="291" y="593"/>
      <point x="272" y="578"/>
      <point x="272" y="550" type="curve"/>
      <point x="250" y="417" type="line"/>
      <point x="331" y="417" type="line"/>
      <point x="322" y="359" type="line"/>
      <point x="241" y="359" type="line"/>
      <point x="180" y="-59" type="line" smooth="yes"/>
      <point x="171" y="-123"/>
      <point x="145" y="-161"/>
      <point x="78" y="-161" type="curve" smooth="yes"/>
      <point x="58" y="-161"/>
      <point x="38" y="-156"/>
      <point x="26" y="-150" type="curve"/>
      <point x="31" y="-108" type="line"/>
      <point x="68" y="-108" type="line" smooth="yes"/>
      <point x="96" y="-108"/>
      <point x="115" y="-93"/>
      <point x="117" y="-64" type="curve" smooth="yes"/>
      <point x="179" y="359" type="line"/>
      <point x="116" y="359" type="line"/>
      <point x="125" y="417" type="line"/>
      <point x="188" y="417" type="line"/>
      <point x="207" y="544" type="line" smooth="yes"/>
      <point x="218" y="608"/>
      <point x="243" y="646"/>
    </contour>
  </outline>
</glyph>
<glyph name="AEacute" format="1">
  <advance width="725"/>
  <unicode hex="01FC"/>
  <outline>
    <contour>
      <point x="477" y="664" type="line"/>
      <point x="424" y="664" type="line"/>
      <point x="500" y="781" type="line"/>
      <point x="572" y="781" type="line"/>
      <point x="572" y="778" type="line"/>
    </contour>
    <contour>
      <point x="355" y="545" type="line"/>
      <point x="401" y="342" type="line"/>
      <point x="650" y="342" type="line"/>
      <point x="650" y="279" type="line"/>
      <point x="415" y="279" type="line"/>
      <point x="463" y="62" type="line"/>
      <point x="694" y="62" type="line"/>
      <point x="694" y="0" type="line"/>
      <point x="402" y="0" type="line"/>
      <point x="371" y="140" type="line"/>
      <point x="125" y="140" type="line"/>
      <point x="71" y="0" type="line"/>
      <point x="1" y="0" type="line"/>
      <point x="254" y="606" type="line"/>
      <point x="689" y="606" type="line"/>
      <point x="689" y="545" type="line"/>
    </contour>
    <contour>
      <point x="288" y="550" type="curve"/>
      <point x="283" y="550" type="line"/>
      <point x="277" y="530"/>
      <point x="272" y="513"/>
      <point x="263" y="492" type="curve" smooth="yes"/>
      <point x="149" y="202" type="line"/>
      <point x="359" y="202" type="line"/>
      <point x="296" y="491" type="line" smooth="yes"/>
      <point x="292" y="512"/>
      <point x="290" y="530"/>
    </contour>
  </outline>
</glyph>
<glyph name="oslashacute" format="1">
  <advance width="443"/>
  <unicode hex="01FF"/>
  <outline>
    <contour>
      <point x="224" y="522" type="line"/>
      <point x="171" y="522" type="line"/>
      <point x="247" y="639" type="line"/>
      <point x="318" y="639" type="line"/>
      <point x="319" y="636" type="line"/>
    </contour>
    <contour>
      <point x="385" y="493" type="line"/>
      <point x="342" y="414" type="line"/>
      <point x="368" y="376"/>
      <point x="381" y="315"/>
      <point x="381" y="232" type="curve" smooth="yes"/>
      <point x="381" y="65"/>
      <point x="326" y="-11"/>
      <point x="221" y="-11" type="curve" smooth="yes"/>
      <point x="183" y="-11"/>
      <point x="151" y="-1"/>
      <point x="126" y="20" type="curve"/>
      <point x="101" y="-28" type="line"/>
      <point x="58" y="-28" type="line"/>
      <point x="99" y="50" type="line"/>
      <point x="74" y="89"/>
      <point x="61" y="150"/>
      <point x="61" y="232" type="curve" smooth="yes"/>
      <point x="61" y="400"/>
      <point x="116" y="476"/>
      <point x="221" y="476" type="curve" smooth="yes"/>
      <point x="259" y="476"/>
      <point x="290" y="466"/>
      <point x="316" y="445" type="curve"/>
      <point x="342" y="493" type="line"/>
    </contour>
    <contour>
      <point x="220" y="418" type="curve" smooth="yes"/>
      <point x="159" y="418"/>
      <point x="126" y="361"/>
      <point x="126" y="249" type="curve" smooth="yes"/>
      <point x="126" y="216" type="line" smooth="yes"/>
      <point x="126" y="177"/>
      <point x="128" y="144"/>
      <point x="137" y="118" type="curve"/>
      <point x="283" y="389" type="line"/>
      <point x="267" y="408"/>
      <point x="246" y="418"/>
    </contour>
    <contour>
      <point x="303" y="345" type="curve"/>
      <point x="158" y="76" type="line"/>
      <point x="173" y="57"/>
      <point x="193" y="47"/>
      <point x="220" y="47" type="curve" smooth="yes"/>
      <point x="282" y="47"/>
      <point x="315" y="104"/>
      <point x="315" y="216" type="curve" smooth="yes"/>
      <point x="315" y="249" type="line" smooth="yes"/>
      <point x="315" y="288"/>
      <point x="312" y="320"/>
    </contour>
  </outline>
</glyph>
<glyph name="tcommaaccent" format="1">
  <advance width="191"/>
  <unicode hex="021B"/>
  <outline>
    <contour>
      <point x="175" y="407" type="line"/>
      <point x="114" y="407" type="line"/>
      <point x="114" y="90" type="line" smooth="yes"/>
      <point x="114" y="62"/>
      <point x="129" y="47"/>
      <point x="156" y="47" type="curve" smooth="yes"/>
      <point x="175" y="47" type="line"/>
      <point x="175" y="5" type="line"/>
      <point x="164" y="-4"/>
      <point x="143" y="-8"/>
      <point x="126" y="-8" type="curve" smooth="yes"/>
      <point x="69" y="-8"/>
      <point x="51" y="43"/>
      <point x="51" y="93" type="curve" smooth="yes"/>
      <point x="51" y="407" type="line"/>
      <point x="13" y="407" type="line"/>
      <point x="13" y="465" type="line"/>
      <point x="51" y="465" type="line"/>
      <point x="67" y="593" type="line"/>
      <point x="114" y="593" type="line"/>
      <point x="114" y="465" type="line"/>
      <point x="175" y="465" type="line"/>
    </contour>
    <contour>
      <point x="71" y="-185" type="line"/>
      <point x="89" y="-126" type="line"/>
      <point x="63" y="-126" type="line"/>
      <point x="63" y="-54" type="line"/>
      <point x="128" y="-54" type="line"/>
      <point x="128" y="-121" type="line"/>
      <point x="106" y="-185" type="line"/>
    </contour>
  </outline>
</glyph>
<glyph name="caron" format="1">
  <advance width="241"/>
  <unicode hex="02C7"/>
  <outline>
    <contour>
      <point x="12" y="639" type="line"/>
      <point x="80" y="639" type="line"/>
      <point x="118" y="566" type="line"/>
      <point x="158" y="639" type="line"/>
      <point x="227" y="639" type="line"/>
      <point x="150" y="520" type="line"/>
      <point x="87" y="520" type="line"/>
    </contour>
  </outline>
</glyph>
<glyph name="firsttonechinese" format="1">
  <advance width="442"/>
  <unicode hex="02C9"/>
  <outline>
    <contour>
      <point x="0" y="742" type="line"/>
      <point x="443" y="742" type="line"/>
      <point x="443" y="699" type="line"/>
      <point x="0" y="699" type="line"/>
    </contour>
  </outline>
</glyph>
<glyph name="dotaccent" format="1">
  <advance width="241"/>
  <unicode hex="02D9"/>
  <outline>
    <contour>
      <point x="85" y="639" type="line"/>
      <point x="157" y="639" type="line"/>
      <point x="157" y="560" type="line"/>
      <point x="85" y="560" type="line"/>
    </contour>
  </outline>
</glyph>
<glyph name="mu" format="1">
  <advance width="391"/>
  <unicode hex="03BC"/>
  <outline>
    <contour>
      <point x="283" y="53" type="line"/>
      <point x="277" y="53" type="line"/>
      <point x="250" y="4"/>
      <point x="207" y="-11"/>
      <point x="161" y="-11" type="curve" smooth="yes"/>
      <point x="144" y="-11"/>
      <point x="130" y="-9"/>
      <point x="117" y="-4" type="curve"/>
      <point x="117" y="-153" type="line"/>
      <point x="54" y="-153" type="line"/>
      <point x="54" y="465" type="line"/>
      <point x="117" y="465" type="line"/>
      <point x="117" y="114" type="line" smooth="yes"/>
      <point x="117" y="58"/>
      <point x="147" y="45"/>
      <point x="183" y="45" type="curve" smooth="yes"/>
      <point x="231" y="45"/>
      <point x="275" y="94"/>
      <point x="275" y="182" type="curve" smooth="yes"/>
      <point x="275" y="465" type="line"/>
      <point x="337" y="465" type="line"/>
      <point x="337" y="0" type="line"/>
      <point x="292" y="0" type="line"/>
    </contour>
  </outline>
</glyph>
<glyph name="pi" format="1">
  <advance width="473"/>
  <unicode hex="03C0"/>
  <outline>
    <contour>
      <point x="390" y="407" type="line"/>
      <point x="390" y="138" type="line" smooth="yes"/>
      <point x="390" y="65"/>
      <point x="394" y="27"/>
      <point x="401" y="0" type="curve"/>
      <point x="340" y="0" type="line"/>
      <point x="332" y="14"/>
      <point x="327" y="59"/>
      <point x="327" y="130" type="curve" smooth="yes"/>
      <point x="327" y="407" type="line"/>
      <point x="176" y="407" type="line"/>
      <point x="171" y="291"/>
      <point x="147" y="81"/>
      <point x="119" y="0" type="curve"/>
      <point x="57" y="0" type="line"/>
      <point x="86" y="96"/>
      <point x="111" y="291"/>
      <point x="114" y="407" type="curve"/>
      <point x="65" y="407"/>
      <point x="37" y="404"/>
      <point x="19" y="396" type="curve"/>
      <point x="9" y="438" type="line"/>
      <point x="28" y="455"/>
      <point x="66" y="465"/>
      <point x="133" y="465" type="curve" smooth="yes"/>
      <point x="465" y="465" type="line"/>
      <point x="458" y="407" type="line"/>
    </contour>
  </outline>
</glyph>
<glyph name="invertedCandraBindudeva" format="1">
  <advance width="0"/>
  <unicode hex="0900"/>
  <outline>
    <contour>
      <point x="50" y="706" type="curve"/>
      <point x="-17" y="706" type="line"/>
      <point x="-17" y="764"/>
      <point x="-51" y="787"/>
      <point x="-98" y="787" type="curve" smooth="yes"/>
      <point x="-144" y="787"/>
      <point x="-176" y="764"/>
      <point x="-176" y="706" type="curve"/>
      <point x="-244" y="706" type="line"/>
      <point x="-244" y="782"/>
      <point x="-180" y="835"/>
      <point x="-98" y="835" type="curve" smooth="yes"/>
      <point x="-14" y="835"/>
      <point x="50" y="782"/>
    </contour>
    <contour>
      <point x="-68" y="741" type="line"/>
      <point x="-68" y="677" type="line"/>
      <point x="-132" y="677" type="line"/>
      <point x="-132" y="741" type="line"/>
    </contour>
  </outline>
</glyph>
<glyph name="candraBindudeva" format="1">
  <advance width="0"/>
  <unicode hex="0901"/>
  <outline>
    <contour>
      <point x="-97" y="606" type="move" name="_Anchor-5"/>
    </contour>
    <contour>
      <point x="-97" y="606" type="move" name="_Anchor-2"/>
    </contour>
    <contour>
      <point x="-97" y="606" type="move" name="_Anchor-0"/>
    </contour>
    <contour>
      <point x="-68" y="822" type="line"/>
      <point x="-68" y="758" type="line"/>
      <point x="-132" y="758" type="line"/>
      <point x="-132" y="822" type="line"/>
    </contour>
    <contour>
      <point x="-17" y="793" type="curve"/>
      <point x="50" y="793" type="line"/>
      <point x="50" y="717"/>
      <point x="-14" y="664"/>
      <point x="-98" y="664" type="curve" smooth="yes"/>
      <point x="-180" y="664"/>
      <point x="-244" y="717"/>
      <point x="-244" y="793" type="curve"/>
      <point x="-176" y="793" type="line"/>
      <point x="-176" y="735"/>
      <point x="-144" y="712"/>
      <point x="-98" y="712" type="curve" smooth="yes"/>
      <point x="-51" y="712"/>
      <point x="-17" y="735"/>
    </contour>
  </outline>
</glyph>
<glyph name="visargadeva" format="1">
  <advance width="181"/>
  <unicode hex="0903"/>
  <outline>
    <contour>
      <point x="126" y="465" type="line"/>
      <point x="126" y="394" type="line"/>
      <point x="55" y="394" type="line"/>
      <point x="55" y="465" type="line"/>
    </contour>
    <contour>
      <point x="126" y="165" type="line"/>
      <point x="126" y="95" type="line"/>
      <point x="55" y="95" type="line"/>
      <point x="55" y="165" type="line"/>
    </contour>
  </outline>
</glyph>
<glyph name="aShortdeva" format="1">
  <advance width="558"/>
  <unicode hex="0904"/>
  <outline>
    <contour>
      <point x="465" y="0" type="move" name="Anchor-3"/>
    </contour>
    <contour>
      <point x="466" y="606" type="move" name="Anchor-2"/>
    </contour>
    <contour>
      <point x="568" y="549" type="line"/>
      <point x="495" y="549" type="line"/>
      <point x="495" y="0" type="line"/>
      <point x="433" y="0" type="line"/>
      <point x="433" y="248" type="line"/>
      <point x="321" y="248" type="line"/>
      <point x="323" y="237"/>
      <point x="324" y="224"/>
      <point x="324" y="211" type="curve" smooth="yes"/>
      <point x="324" y="116"/>
      <point x="269" y="55"/>
      <point x="177" y="55" type="curve" smooth="yes"/>
      <point x="90" y="55"/>
      <point x="38" y="114"/>
      <point x="38" y="193" type="curve" smooth="yes"/>
      <point x="38" y="199"/>
      <point x="39" y="207"/>
      <point x="40" y="212" type="curve"/>
      <point x="101" y="212" type="line"/>
      <point x="101" y="205" type="line" smooth="yes"/>
      <point x="101" y="145"/>
      <point x="129" y="112"/>
      <point x="176" y="112" type="curve" smooth="yes"/>
      <point x="228" y="112"/>
      <point x="260" y="152"/>
      <point x="260" y="217" type="curve" smooth="yes"/>
      <point x="260" y="279"/>
      <point x="229" y="313"/>
      <point x="178" y="313" type="curve" smooth="yes"/>
      <point x="139" y="313" type="line"/>
      <point x="139" y="368" type="line"/>
      <point x="180" y="368" type="line" smooth="yes"/>
      <point x="223" y="368"/>
      <point x="251" y="402"/>
      <point x="251" y="464" type="curve" smooth="yes"/>
      <point x="251" y="528"/>
      <point x="223" y="561"/>
      <point x="181" y="561" type="curve" smooth="yes"/>
      <point x="141" y="561"/>
      <point x="111" y="534"/>
      <point x="111" y="471" type="curve" smooth="yes"/>
      <point x="111" y="465" type="line"/>
      <point x="49" y="465" type="line"/>
      <point x="49" y="470"/>
      <point x="48" y="478"/>
      <point x="48" y="484" type="curve" smooth="yes"/>
      <point x="48" y="564"/>
      <point x="102" y="617"/>
      <point x="183" y="617" type="curve" smooth="yes"/>
      <point x="267" y="617"/>
      <point x="315" y="563"/>
      <point x="315" y="472" type="curve" smooth="yes"/>
      <point x="315" y="401"/>
      <point x="285" y="365"/>
      <point x="248" y="346" type="curve"/>
      <point x="248" y="343" type="line"/>
      <point x="268" y="338"/>
      <point x="285" y="324"/>
      <point x="299" y="305" type="curve"/>
      <point x="433" y="305" type="line"/>
      <point x="433" y="549" type="line"/>
      <point x="394" y="549" type="line"/>
      <point x="394" y="606" type="line"/>
      <point x="433" y="606" type="line"/>
      <point x="433" y="662" type="line" smooth="yes"/>
      <point x="433" y="692"/>
      <point x="418" y="705"/>
      <point x="382" y="705" type="curve" smooth="yes"/>
      <point x="194" y="705" type="line" smooth="yes"/>
      <point x="115" y="705"/>
      <point x="82" y="735"/>
      <point x="82" y="805" type="curve" smooth="yes"/>
      <point x="82" y="827" type="line"/>
      <point x="144" y="827" type="line"/>
      <point x="144" y="805" type="line" smooth="yes"/>
      <point x="144" y="774"/>
      <point x="158" y="761"/>
      <point x="194" y="761" type="curve" smooth="yes"/>
      <point x="382" y="761" type="line" smooth="yes"/>
      <point x="462" y="761"/>
      <point x="495" y="731"/>
      <point x="495" y="662" type="curve" smooth="yes"/>
      <point x="495" y="606" type="line"/>
      <point x="568" y="606" type="line"/>
    </contour>
  </outline>
</glyph>
<glyph name="udeva" format="1">
  <advance width="359"/>
  <unicode hex="0909"/>
  <outline>
    <contour>
      <point x="180" y="0" type="move" name="Anchor-3"/>
    </contour>
    <contour>
      <point x="180" y="604" type="move" name="Anchor-2"/>
    </contour>
    <contour>
      <point x="369" y="549" type="line"/>
      <point x="296" y="549" type="line"/>
      <point x="315" y="526"/>
      <point x="326" y="494"/>
      <point x="326" y="454" type="curve" smooth="yes"/>
      <point x="326" y="406"/>
      <point x="299" y="360"/>
      <point x="257" y="340" type="curve"/>
      <point x="257" y="337" type="line"/>
      <point x="305" y="321"/>
      <point x="336" y="269"/>
      <point x="336" y="207" type="curve" smooth="yes"/>
      <point x="336" y="116"/>
      <point x="276" y="54"/>
      <point x="184" y="54" type="curve" smooth="yes"/>
      <point x="94" y="54"/>
      <point x="35" y="117"/>
      <point x="35" y="211" type="curve" smooth="yes"/>
      <point x="35" y="216" type="line"/>
      <point x="97" y="216" type="line"/>
      <point x="97" y="208" type="line" smooth="yes"/>
      <point x="97" y="145"/>
      <point x="127" y="111"/>
      <point x="181" y="111" type="curve" smooth="yes"/>
      <point x="238" y="111"/>
      <point x="274" y="147"/>
      <point x="274" y="214" type="curve" smooth="yes"/>
      <point x="274" y="280"/>
      <point x="236" y="309"/>
      <point x="182" y="309" type="curve" smooth="yes"/>
      <point x="137" y="309" type="line"/>
      <point x="137" y="358" type="line"/>
      <point x="183" y="358" type="line" smooth="yes"/>
      <point x="231" y="358"/>
      <point x="264" y="391"/>
      <point x="264" y="454" type="curve" smooth="yes"/>
      <point x="264" y="519"/>
      <point x="232" y="549"/>
      <point x="187" y="549" type="curve" smooth="yes"/>
      <point x="-10" y="549" type="line"/>
      <point x="-10" y="606" type="line"/>
      <point x="369" y="606" type="line"/>
    </contour>
  </outline>
</glyph>
<glyph name="uudeva" format="1">
  <advance width="570"/>
  <unicode hex="090A"/>
  <outline>
    <contour>
      <point x="580" y="549" type="line"/>
      <point x="296" y="549" type="line"/>
      <point x="315" y="526"/>
      <point x="326" y="494"/>
      <point x="326" y="454" type="curve" smooth="yes"/>
      <point x="326" y="398"/>
      <point x="296" y="359"/>
      <point x="257" y="340" type="curve"/>
      <point x="257" y="337" type="line"/>
      <point x="275" y="331"/>
      <point x="290" y="319"/>
      <point x="303" y="301" type="curve"/>
      <point x="319" y="345"/>
      <point x="357" y="377"/>
      <point x="420" y="377" type="curve" smooth="yes"/>
      <point x="499" y="377"/>
      <point x="553" y="320"/>
      <point x="553" y="214" type="curve" smooth="yes"/>
      <point x="553" y="108"/>
      <point x="497" y="52"/>
      <point x="419" y="52" type="curve" smooth="yes"/>
      <point x="414" y="52"/>
      <point x="407" y="53"/>
      <point x="401" y="54" type="curve"/>
      <point x="401" y="107" type="line"/>
      <point x="412" y="107" type="line" smooth="yes"/>
      <point x="465" y="107"/>
      <point x="492" y="140"/>
      <point x="492" y="205" type="curve" smooth="yes"/>
      <point x="492" y="223" type="line" smooth="yes"/>
      <point x="492" y="293"/>
      <point x="468" y="322"/>
      <point x="417" y="322" type="curve" smooth="yes"/>
      <point x="354" y="322"/>
      <point x="346" y="268"/>
      <point x="335" y="208" type="curve" smooth="yes"/>
      <point x="323" y="134"/>
      <point x="303" y="54"/>
      <point x="184" y="54" type="curve" smooth="yes"/>
      <point x="94" y="54"/>
      <point x="35" y="111"/>
      <point x="35" y="211" type="curve" smooth="yes"/>
      <point x="35" y="216" type="line"/>
      <point x="96" y="216" type="line"/>
      <point x="96" y="208" type="line" smooth="yes"/>
      <point x="96" y="146"/>
      <point x="127" y="111"/>
      <point x="189" y="111" type="curve" smooth="yes"/>
      <point x="246" y="111"/>
      <point x="281" y="147"/>
      <point x="281" y="213" type="curve" smooth="yes"/>
      <point x="281" y="280"/>
      <point x="239" y="309"/>
      <point x="182" y="309" type="curve" smooth="yes"/>
      <point x="137" y="309" type="line"/>
      <point x="137" y="359" type="line"/>
      <point x="183" y="359" type="line" smooth="yes"/>
      <point x="230" y="359"/>
      <point x="263" y="391"/>
      <point x="263" y="454" type="curve" smooth="yes"/>
      <point x="263" y="519"/>
      <point x="230" y="549"/>
      <point x="187" y="549" type="curve" smooth="yes"/>
      <point x="-10" y="549" type="line"/>
      <point x="-10" y="606" type="line"/>
      <point x="580" y="606" type="line"/>
    </contour>
  </outline>
</glyph>
<glyph name="rVocalicdeva" format="1">
  <advance width="615"/>
  <unicode hex="090B"/>
  <outline>
    <contour>
      <point x="287" y="0" type="move" name="Anchor-3"/>
    </contour>
    <contour>
      <point x="287" y="606" type="move" name="Anchor-2"/>
    </contour>
    <contour>
      <point x="319" y="281" type="line"/>
      <point x="494" y="393" type="line"/>
      <point x="494" y="431" type="line"/>
      <point x="558" y="431" type="line"/>
      <point x="558" y="169" type="line"/>
      <point x="523" y="169" type="line" smooth="yes"/>
      <point x="485" y="169"/>
      <point x="458" y="141"/>
      <point x="458" y="108" type="curve" smooth="yes"/>
      <point x="458" y="74"/>
      <point x="485" y="46"/>
      <point x="523" y="46" type="curve" smooth="yes"/>
      <point x="553" y="46"/>
      <point x="575" y="51"/>
      <point x="598" y="58" type="curve"/>
      <point x="598" y="5" type="line"/>
      <point x="576" y="-3"/>
      <point x="549" y="-11"/>
      <point x="521" y="-11" type="curve" smooth="yes"/>
      <point x="457" y="-11"/>
      <point x="394" y="35"/>
      <point x="394" y="109" type="curve" smooth="yes"/>
      <point x="394" y="173"/>
      <point x="440" y="213"/>
      <point x="494" y="223" type="curve"/>
      <point x="494" y="323" type="line"/>
      <point x="319" y="212" type="line"/>
      <point x="319" y="0" type="line"/>
      <point x="256" y="0" type="line"/>
      <point x="256" y="176" type="line"/>
      <point x="28" y="32" type="line"/>
      <point x="28" y="102" type="line"/>
      <point x="205" y="214" type="line"/>
      <point x="163" y="325" type="line" smooth="yes"/>
      <point x="139" y="385"/>
      <point x="108" y="402"/>
      <point x="45" y="402" type="curve" smooth="yes"/>
      <point x="28" y="402" type="line"/>
      <point x="28" y="445" type="line"/>
      <point x="47" y="451"/>
      <point x="60" y="451"/>
      <point x="74" y="451" type="curve" smooth="yes"/>
      <point x="146" y="451"/>
      <point x="194" y="426"/>
      <point x="219" y="361" type="curve" smooth="yes"/>
      <point x="256" y="262" type="line"/>
      <point x="256" y="549" type="line"/>
      <point x="-10" y="549" type="line"/>
      <point x="-10" y="606" type="line"/>
      <point x="625" y="606" type="line"/>
      <point x="625" y="549" type="line"/>
      <point x="319" y="549" type="line"/>
    </contour>
  </outline>
</glyph>
<glyph name="lVocalicdeva" format="1">
  <advance width="553"/>
  <unicode hex="090C"/>
  <outline>
    <contour>
      <point x="454" y="-48" type="move" name="Anchor-3"/>
    </contour>
    <contour>
      <point x="454" y="606" type="move" name="Anchor-2"/>
    </contour>
    <contour>
      <point x="486" y="105" type="line"/>
      <point x="451" y="105" type="line" smooth="yes"/>
      <point x="413" y="105"/>
      <point x="386" y="77"/>
      <point x="386" y="44" type="curve" smooth="yes"/>
      <point x="386" y="10"/>
      <point x="413" y="-18"/>
      <point x="451" y="-18" type="curve" smooth="yes"/>
      <point x="481" y="-18"/>
      <point x="503" y="-13"/>
      <point x="526" y="-6" type="curve"/>
      <point x="526" y="-59" type="line"/>
      <point x="504" y="-67"/>
      <point x="477" y="-75"/>
      <point x="449" y="-75" type="curve" smooth="yes"/>
      <point x="385" y="-75"/>
      <point x="322" y="-29"/>
      <point x="322" y="45" type="curve" smooth="yes"/>
      <point x="322" y="109"/>
      <point x="369" y="150"/>
      <point x="423" y="160" type="curve"/>
      <point x="423" y="264" type="line" smooth="yes"/>
      <point x="423" y="332"/>
      <point x="403" y="374"/>
      <point x="354" y="374" type="curve" smooth="yes"/>
      <point x="305" y="374"/>
      <point x="289" y="318"/>
      <point x="289" y="258" type="curve" smooth="yes"/>
      <point x="289" y="197" type="line"/>
      <point x="225" y="197" type="line"/>
      <point x="225" y="258" type="line" smooth="yes"/>
      <point x="225" y="318"/>
      <point x="209" y="374"/>
      <point x="159" y="374" type="curve" smooth="yes"/>
      <point x="111" y="374"/>
      <point x="91" y="321"/>
      <point x="91" y="235" type="curve" smooth="yes"/>
      <point x="91" y="111"/>
      <point x="129" y="57"/>
      <point x="221" y="57" type="curve" smooth="yes"/>
      <point x="233" y="57" type="line"/>
      <point x="233" y="0" type="line"/>
      <point x="224" y="0" type="line" smooth="yes"/>
      <point x="87" y="0"/>
      <point x="26" y="70"/>
      <point x="26" y="237" type="curve" smooth="yes"/>
      <point x="26" y="358"/>
      <point x="71" y="431"/>
      <point x="149" y="431" type="curve" smooth="yes"/>
      <point x="207" y="431"/>
      <point x="241" y="392"/>
      <point x="256" y="339" type="curve"/>
      <point x="259" y="339" type="line"/>
      <point x="272" y="392"/>
      <point x="302" y="431"/>
      <point x="359" y="431" type="curve" smooth="yes"/>
      <point x="384" y="431"/>
      <point x="406" y="421"/>
      <point x="423" y="405" type="curve"/>
      <point x="423" y="549" type="line"/>
      <point x="-10" y="549" type="line"/>
      <point x="-10" y="606" type="line"/>
      <point x="563" y="606" type="line"/>
      <point x="563" y="549" type="line"/>
      <point x="486" y="549" type="line"/>
    </contour>
  </outline>
</glyph>
<glyph name="aideva" format="1">
  <advance width="390"/>
  <unicode hex="0910"/>
  <outline>
    <contour>
      <point x="195" y="0" type="move" name="Anchor-3"/>
    </contour>
    <contour>
      <point x="195" y="465" type="move" name="Anchor-2"/>
    </contour>
    <contour>
      <point x="315" y="606" type="line"/>
      <point x="400" y="606" type="line"/>
      <point x="400" y="549" type="line"/>
      <point x="325" y="549" type="line"/>
      <point x="325" y="334" type="line" smooth="yes"/>
      <point x="325" y="287"/>
      <point x="305" y="239"/>
      <point x="245" y="239" type="curve" smooth="yes"/>
      <point x="232" y="239"/>
      <point x="223" y="240"/>
      <point x="209" y="242" type="curve"/>
      <point x="209" y="292" type="line"/>
      <point x="225" y="292" type="line" smooth="yes"/>
      <point x="246" y="292"/>
      <point x="261" y="305"/>
      <point x="261" y="328" type="curve" smooth="yes"/>
      <point x="261" y="549" type="line"/>
      <point x="128" y="549" type="line"/>
      <point x="128" y="275" type="line" smooth="yes"/>
      <point x="128" y="256"/>
      <point x="132" y="242"/>
      <point x="142" y="231" type="curve" smooth="yes"/>
      <point x="295" y="72" type="line" smooth="yes"/>
      <point x="316" y="47"/>
      <point x="330" y="23"/>
      <point x="330" y="-2" type="curve" smooth="yes"/>
      <point x="330" y="-22"/>
      <point x="325" y="-40"/>
      <point x="314" y="-60" type="curve"/>
      <point x="262" y="-60" type="line"/>
      <point x="268" y="-34"/>
      <point x="270" y="-14"/>
      <point x="270" y="-11" type="curve" smooth="yes"/>
      <point x="270" y="3"/>
      <point x="265" y="15"/>
      <point x="252" y="29" type="curve" smooth="yes"/>
      <point x="91" y="198" type="line" smooth="yes"/>
      <point x="71" y="222"/>
      <point x="66" y="242"/>
      <point x="66" y="270" type="curve" smooth="yes"/>
      <point x="66" y="549" type="line"/>
      <point x="-10" y="549" type="line"/>
      <point x="-10" y="606" type="line"/>
      <point x="261" y="606" type="line"/>
      <point x="193" y="821" type="line"/>
      <point x="256" y="821" type="line"/>
    </contour>
  </outline>
</glyph>
<glyph name="oCandradeva" format="1">
  <advance width="753"/>
  <unicode hex="0911"/>
  <outline>
    <contour>
      <point x="656" y="0" type="move" name="Anchor-3"/>
    </contour>
    <contour>
      <point x="656" y="606" type="move" name="Anchor-2"/>
    </contour>
    <contour>
      <point x="655" y="672" type="curve" smooth="yes"/>
      <point x="570" y="672"/>
      <point x="519" y="725"/>
      <point x="519" y="801" type="curve"/>
      <point x="583" y="801" type="line"/>
      <point x="583" y="748"/>
      <point x="619" y="723"/>
      <point x="655" y="723" type="curve" smooth="yes"/>
      <point x="698" y="723"/>
      <point x="730" y="748"/>
      <point x="730" y="801" type="curve"/>
      <point x="793" y="801" type="line"/>
      <point x="792" y="725"/>
      <point x="742" y="672"/>
    </contour>
    <contour>
      <point x="763" y="549" type="line"/>
      <point x="687" y="549" type="line"/>
      <point x="687" y="0" type="line"/>
      <point x="624" y="0" type="line"/>
      <point x="624" y="549" type="line"/>
      <point x="495" y="549" type="line"/>
      <point x="495" y="0" type="line"/>
      <point x="433" y="0" type="line"/>
      <point x="433" y="248" type="line"/>
      <point x="321" y="248" type="line"/>
      <point x="323" y="237"/>
      <point x="324" y="224"/>
      <point x="324" y="211" type="curve" smooth="yes"/>
      <point x="324" y="116"/>
      <point x="269" y="55"/>
      <point x="177" y="55" type="curve" smooth="yes"/>
      <point x="90" y="55"/>
      <point x="38" y="108"/>
      <point x="38" y="208" type="curve" smooth="yes"/>
      <point x="38" y="212" type="line"/>
      <point x="101" y="212" type="line"/>
      <point x="101" y="205" type="line" smooth="yes"/>
      <point x="101" y="145"/>
      <point x="129" y="112"/>
      <point x="176" y="112" type="curve" smooth="yes"/>
      <point x="228" y="112"/>
      <point x="260" y="152"/>
      <point x="260" y="217" type="curve" smooth="yes"/>
      <point x="260" y="279"/>
      <point x="229" y="313"/>
      <point x="178" y="313" type="curve" smooth="yes"/>
      <point x="139" y="313" type="line"/>
      <point x="139" y="368" type="line"/>
      <point x="180" y="368" type="line" smooth="yes"/>
      <point x="223" y="368"/>
      <point x="251" y="402"/>
      <point x="251" y="464" type="curve" smooth="yes"/>
      <point x="251" y="528"/>
      <point x="223" y="561"/>
      <point x="181" y="561" type="curve" smooth="yes"/>
      <point x="141" y="561"/>
      <point x="111" y="534"/>
      <point x="111" y="471" type="curve" smooth="yes"/>
      <point x="111" y="465" type="line"/>
      <point x="48" y="465" type="line"/>
      <point x="48" y="478" type="line" smooth="yes"/>
      <point x="48" y="565"/>
      <point x="102" y="617"/>
      <point x="183" y="617" type="curve" smooth="yes"/>
      <point x="267" y="617"/>
      <point x="315" y="563"/>
      <point x="315" y="472" type="curve" smooth="yes"/>
      <point x="315" y="401"/>
      <point x="285" y="365"/>
      <point x="248" y="346" type="curve"/>
      <point x="248" y="343" type="line"/>
      <point x="268" y="338"/>
      <point x="285" y="324"/>
      <point x="299" y="305" type="curve"/>
      <point x="433" y="305" type="line"/>
      <point x="433" y="549" type="line"/>
      <point x="364" y="549" type="line"/>
      <point x="364" y="606" type="line"/>
      <point x="763" y="606" type="line"/>
    </contour>
  </outline>
</glyph>
<glyph name="ghadeva" format="1">
  <advance width="400"/>
  <unicode hex="0918"/>
  <outline>
    <contour>
      <point x="302" y="0" type="move" name="Anchor-3"/>
    </contour>
    <contour>
      <point x="302" y="606" type="move" name="Anchor-2"/>
    </contour>
    <contour>
      <point x="410" y="549" type="line"/>
      <point x="334" y="549" type="line"/>
      <point x="334" y="0" type="line"/>
      <point x="271" y="0" type="line"/>
      <point x="271" y="172" type="line"/>
      <point x="248" y="145"/>
      <point x="215" y="130"/>
      <point x="171" y="130" type="curve" smooth="yes"/>
      <point x="93" y="130"/>
      <point x="36" y="177"/>
      <point x="36" y="263" type="curve" smooth="yes"/>
      <point x="36" y="324"/>
      <point x="69" y="363"/>
      <point x="112" y="382" type="curve"/>
      <point x="68" y="395"/>
      <point x="37" y="425"/>
      <point x="37" y="483" type="curve" smooth="yes"/>
      <point x="37" y="511"/>
      <point x="43" y="533"/>
      <point x="55" y="549" type="curve"/>
      <point x="-10" y="549" type="line"/>
      <point x="-10" y="606" type="line"/>
      <point x="410" y="606" type="line"/>
    </contour>
    <contour>
      <point x="271" y="549" type="line"/>
      <point x="131" y="549" type="line" smooth="yes"/>
      <point x="109" y="549"/>
      <point x="100" y="527"/>
      <point x="100" y="496" type="curve" smooth="yes"/>
      <point x="100" y="432"/>
      <point x="138" y="404"/>
      <point x="182" y="404" type="curve" smooth="yes"/>
      <point x="207" y="404" type="line"/>
      <point x="207" y="351" type="line"/>
      <point x="183" y="351" type="line" smooth="yes"/>
      <point x="141" y="351"/>
      <point x="100" y="331"/>
      <point x="100" y="266" type="curve" smooth="yes"/>
      <point x="100" y="206"/>
      <point x="133" y="185"/>
      <point x="178" y="185" type="curve" smooth="yes"/>
      <point x="232" y="185"/>
      <point x="265" y="216"/>
      <point x="271" y="291" type="curve"/>
    </contour>
  </outline>
</glyph>
<glyph name="cadeva" format="1">
  <advance width="413"/>
  <unicode hex="091A"/>
  <outline>
    <contour>
      <point x="315" y="0" type="move" name="Anchor-3"/>
    </contour>
    <contour>
      <point x="315" y="606" type="move" name="Anchor-2"/>
    </contour>
    <contour>
      <point x="347" y="549" type="line"/>
      <point x="347" y="0" type="line"/>
      <point x="284" y="0" type="line"/>
      <point x="284" y="147" type="line"/>
      <point x="281" y="147" type="line"/>
      <point x="263" y="126"/>
      <point x="236" y="112"/>
      <point x="195" y="112" type="curve" smooth="yes"/>
      <point x="117" y="112"/>
      <point x="67" y="156"/>
      <point x="67" y="263" type="curve" smooth="yes"/>
      <point x="67" y="309"/>
      <point x="79" y="342"/>
      <point x="99" y="364" type="curve"/>
      <point x="14" y="364" type="line"/>
      <point x="14" y="422" type="line"/>
      <point x="224" y="422" type="line"/>
      <point x="224" y="364" type="line"/>
      <point x="208" y="364" type="line" smooth="yes"/>
      <point x="158" y="364"/>
      <point x="132" y="340"/>
      <point x="132" y="273" type="curve" smooth="yes"/>
      <point x="132" y="255" type="line" smooth="yes"/>
      <point x="132" y="189"/>
      <point x="158" y="167"/>
      <point x="208" y="167" type="curve" smooth="yes"/>
      <point x="259" y="167"/>
      <point x="284" y="204"/>
      <point x="284" y="278" type="curve" smooth="yes"/>
      <point x="284" y="549" type="line"/>
      <point x="-10" y="549" type="line"/>
      <point x="-10" y="606" type="line"/>
      <point x="423" y="606" type="line"/>
      <point x="423" y="549" type="line"/>
    </contour>
  </outline>
</glyph>
<glyph name="ttadeva" format="1">
  <advance width="359"/>
  <unicode hex="091F"/>
  <outline>
    <contour>
      <point x="190" y="0" type="move" name="Anchor-3"/>
    </contour>
    <contour>
      <point x="252" y="606" type="move" name="Anchor-2"/>
    </contour>
    <contour>
      <point x="283" y="379" type="line"/>
      <point x="193" y="379" type="line" smooth="yes"/>
      <point x="136" y="379"/>
      <point x="92" y="335"/>
      <point x="92" y="241" type="curve" smooth="yes"/>
      <point x="92" y="155"/>
      <point x="126" y="111"/>
      <point x="192" y="111" type="curve" smooth="yes"/>
      <point x="251" y="111"/>
      <point x="273" y="147"/>
      <point x="274" y="210" type="curve" smooth="yes"/>
      <point x="274" y="218" type="line"/>
      <point x="332" y="218" type="line"/>
      <point x="333" y="213"/>
      <point x="334" y="207"/>
      <point x="334" y="201" type="curve" smooth="yes"/>
      <point x="335" y="119"/>
      <point x="293" y="54"/>
      <point x="187" y="54" type="curve" smooth="yes"/>
      <point x="88" y="54"/>
      <point x="26" y="119"/>
      <point x="26" y="240" type="curve" smooth="yes"/>
      <point x="26" y="363"/>
      <point x="90" y="434"/>
      <point x="194" y="434" type="curve" smooth="yes"/>
      <point x="221" y="434" type="line"/>
      <point x="221" y="549" type="line"/>
      <point x="-10" y="549" type="line"/>
      <point x="-10" y="606" type="line"/>
      <point x="369" y="606" type="line"/>
      <point x="369" y="549" type="line"/>
      <point x="283" y="549" type="line"/>
    </contour>
  </outline>
</glyph>
<glyph name="tadeva" format="1">
  <advance width="415"/>
  <unicode hex="0924"/>
  <outline>
    <contour>
      <point x="314" y="0" type="move" name="Anchor-3"/>
    </contour>
    <contour>
      <point x="314" y="606" type="move" name="Anchor-2"/>
    </contour>
    <contour>
      <point x="422" y="549" type="line"/>
      <point x="346" y="549" type="line"/>
      <point x="346" y="0" type="line"/>
      <point x="283" y="0" type="line"/>
      <point x="283" y="350" type="line"/>
      <point x="182" y="350" type="line" smooth="yes"/>
      <point x="127" y="350"/>
      <point x="104" y="320"/>
      <point x="104" y="263" type="curve" smooth="yes"/>
      <point x="104" y="227"/>
      <point x="114" y="152"/>
      <point x="181" y="0" type="curve"/>
      <point x="115" y="0" type="line"/>
      <point x="47" y="152"/>
      <point x="38" y="224"/>
      <point x="38" y="265" type="curve" smooth="yes"/>
      <point x="38" y="352"/>
      <point x="87" y="408"/>
      <point x="190" y="408" type="curve" smooth="yes"/>
      <point x="283" y="408" type="line"/>
      <point x="283" y="549" type="line"/>
      <point x="-10" y="549" type="line"/>
      <point x="-10" y="606" type="line"/>
      <point x="422" y="606" type="line"/>
    </contour>
  </outline>
</glyph>
<glyph name="dadeva" format="1">
  <advance width="355"/>
  <unicode hex="0926"/>
  <outline>
    <contour>
      <point x="262" y="0" type="move" name="Anchor-3"/>
    </contour>
    <contour>
      <point x="260" y="606" type="move" name="Anchor-2"/>
    </contour>
    <contour>
      <point x="291" y="379" type="line"/>
      <point x="185" y="379" type="line" smooth="yes"/>
      <point x="133" y="379"/>
      <point x="93" y="337"/>
      <point x="93" y="248" type="curve" smooth="yes"/>
      <point x="93" y="177"/>
      <point x="125" y="137"/>
      <point x="170" y="137" type="curve" smooth="yes"/>
      <point x="192" y="137"/>
      <point x="211" y="149"/>
      <point x="227" y="170" type="curve"/>
      <point x="218" y="209" type="line"/>
      <point x="281" y="209" type="line"/>
      <point x="331" y="0" type="line"/>
      <point x="268" y="0" type="line"/>
      <point x="240" y="117" type="line"/>
      <point x="222" y="98"/>
      <point x="194" y="77"/>
      <point x="154" y="77" type="curve" smooth="yes"/>
      <point x="82" y="77"/>
      <point x="27" y="132"/>
      <point x="27" y="248" type="curve" smooth="yes"/>
      <point x="27" y="367"/>
      <point x="87" y="434"/>
      <point x="186" y="434" type="curve" smooth="yes"/>
      <point x="229" y="434" type="line"/>
      <point x="229" y="549" type="line"/>
      <point x="-10" y="549" type="line"/>
      <point x="-10" y="606" type="line"/>
      <point x="365" y="606" type="line"/>
      <point x="365" y="549" type="line"/>
      <point x="291" y="549" type="line"/>
    </contour>
  </outline>
</glyph>
<glyph name="dhadeva" format="1">
  <advance width="415"/>
  <unicode hex="0927"/>
  <outline>
    <contour>
      <point x="317" y="0" type="move" name="Anchor-3"/>
    </contour>
    <contour>
      <point x="317" y="606" type="move" name="Anchor-2"/>
    </contour>
    <contour>
      <point x="349" y="549" type="line"/>
      <point x="349" y="0" type="line"/>
      <point x="286" y="0" type="line"/>
      <point x="286" y="175" type="line"/>
      <point x="263" y="146"/>
      <point x="227" y="130"/>
      <point x="180" y="130" type="curve" smooth="yes"/>
      <point x="99" y="130"/>
      <point x="36" y="177"/>
      <point x="36" y="265" type="curve" smooth="yes"/>
      <point x="36" y="328"/>
      <point x="69" y="368"/>
      <point x="112" y="387" type="curve"/>
      <point x="68" y="402"/>
      <point x="37" y="444"/>
      <point x="37" y="507" type="curve" smooth="yes"/>
      <point x="37" y="579"/>
      <point x="79" y="617"/>
      <point x="127" y="617" type="curve" smooth="yes"/>
      <point x="178" y="617"/>
      <point x="219" y="591"/>
      <point x="219" y="535" type="curve" smooth="yes"/>
      <point x="219" y="524"/>
      <point x="218" y="513"/>
      <point x="215" y="507" type="curve"/>
      <point x="162" y="507" type="line"/>
      <point x="162" y="524" type="line" smooth="yes"/>
      <point x="162" y="546"/>
      <point x="154" y="564"/>
      <point x="131" y="564" type="curve" smooth="yes"/>
      <point x="109" y="564"/>
      <point x="100" y="541"/>
      <point x="100" y="504" type="curve" smooth="yes"/>
      <point x="100" y="437"/>
      <point x="141" y="409"/>
      <point x="188" y="409" type="curve" smooth="yes"/>
      <point x="217" y="409" type="line"/>
      <point x="217" y="356" type="line"/>
      <point x="189" y="356" type="line" smooth="yes"/>
      <point x="145" y="356"/>
      <point x="100" y="335"/>
      <point x="100" y="268" type="curve" smooth="yes"/>
      <point x="100" y="207"/>
      <point x="138" y="185"/>
      <point x="186" y="185" type="curve" smooth="yes"/>
      <point x="250" y="185"/>
      <point x="286" y="223"/>
      <point x="286" y="317" type="curve" smooth="yes"/>
      <point x="286" y="549" type="line"/>
      <point x="258" y="549" type="line"/>
      <point x="258" y="606" type="line"/>
      <point x="425" y="606" type="line"/>
      <point x="425" y="549" type="line"/>
    </contour>
  </outline>
</glyph>
<glyph name="padeva" format="1">
  <advance width="379"/>
  <unicode hex="092A"/>
  <outline>
    <contour>
      <point x="282" y="0" type="move" name="Anchor-3"/>
    </contour>
    <contour>
      <point x="282" y="606" type="move" name="Anchor-2"/>
    </contour>
    <contour>
      <point x="390" y="549" type="line"/>
      <point x="314" y="549" type="line"/>
      <point x="314" y="0" type="line"/>
      <point x="251" y="0" type="line"/>
      <point x="251" y="155" type="line"/>
      <point x="231" y="132"/>
      <point x="202" y="120"/>
      <point x="165" y="120" type="curve" smooth="yes"/>
      <point x="90" y="120"/>
      <point x="50" y="168"/>
      <point x="50" y="255" type="curve" smooth="yes"/>
      <point x="50" y="549" type="line"/>
      <point x="-10" y="549" type="line"/>
      <point x="-10" y="606" type="line"/>
      <point x="390" y="606" type="line"/>
    </contour>
    <contour>
      <point x="182" y="179" type="curve" smooth="yes"/>
      <point x="218" y="179"/>
      <point x="245" y="199"/>
      <point x="251" y="237" type="curve"/>
      <point x="251" y="549" type="line"/>
      <point x="113" y="549" type="line"/>
      <point x="113" y="247" type="line" smooth="yes"/>
      <point x="113" y="205"/>
      <point x="137" y="179"/>
    </contour>
  </outline>
</glyph>
<glyph name="phadeva" format="1">
  <advance width="541"/>
  <unicode hex="092B"/>
  <outline>
    <contour>
      <point x="282" y="0" type="move" name="Anchor-3"/>
    </contour>
    <contour>
      <point x="282" y="606" type="move" name="Anchor-2"/>
    </contour>
    <contour>
      <point x="314" y="549" type="line"/>
      <point x="314" y="437" type="line"/>
      <point x="317" y="437" type="line"/>
      <point x="334" y="457"/>
      <point x="362" y="471"/>
      <point x="403" y="471" type="curve" smooth="yes"/>
      <point x="480" y="471"/>
      <point x="530" y="419"/>
      <point x="530" y="295" type="curve" smooth="yes"/>
      <point x="530" y="171"/>
      <point x="468" y="117"/>
      <point x="395" y="117" type="curve" smooth="yes"/>
      <point x="390" y="117"/>
      <point x="384" y="118"/>
      <point x="378" y="119" type="curve"/>
      <point x="378" y="173" type="line"/>
      <point x="389" y="173" type="line" smooth="yes"/>
      <point x="440" y="173"/>
      <point x="465" y="202"/>
      <point x="465" y="283" type="curve" smooth="yes"/>
      <point x="465" y="305" type="line" smooth="yes"/>
      <point x="465" y="388"/>
      <point x="440" y="417"/>
      <point x="389" y="417" type="curve" smooth="yes"/>
      <point x="344" y="417"/>
      <point x="319" y="388"/>
      <point x="314" y="329" type="curve"/>
      <point x="314" y="0" type="line"/>
      <point x="251" y="0" type="line"/>
      <point x="251" y="155" type="line"/>
      <point x="231" y="132"/>
      <point x="202" y="120"/>
      <point x="165" y="120" type="curve" smooth="yes"/>
      <point x="90" y="120"/>
      <point x="50" y="168"/>
      <point x="50" y="255" type="curve" smooth="yes"/>
      <point x="50" y="549" type="line"/>
      <point x="-10" y="549" type="line"/>
      <point x="-10" y="606" type="line"/>
      <point x="551" y="606" type="line"/>
      <point x="551" y="549" type="line"/>
    </contour>
    <contour>
      <point x="182" y="179" type="curve" smooth="yes"/>
      <point x="218" y="179"/>
      <point x="245" y="199"/>
      <point x="251" y="237" type="curve"/>
      <point x="251" y="549" type="line"/>
      <point x="113" y="549" type="line"/>
      <point x="113" y="247" type="line" smooth="yes"/>
      <point x="113" y="205"/>
      <point x="137" y="179"/>
    </contour>
  </outline>
</glyph>
<glyph name="badeva" format="1">
  <advance width="371"/>
  <unicode hex="092C"/>
  <outline>
    <contour>
      <point x="275" y="0" type="move" name="Anchor-3"/>
    </contour>
    <contour>
      <point x="275" y="606" type="move" name="Anchor-2"/>
    </contour>
    <contour>
      <point x="383" y="549" type="line"/>
      <point x="307" y="549" type="line"/>
      <point x="307" y="0" type="line"/>
      <point x="244" y="0" type="line"/>
      <point x="244" y="154" type="line"/>
      <point x="241" y="154" type="line"/>
      <point x="224" y="133"/>
      <point x="196" y="117"/>
      <point x="155" y="117" type="curve" smooth="yes"/>
      <point x="78" y="117"/>
      <point x="27" y="170"/>
      <point x="27" y="295" type="curve" smooth="yes"/>
      <point x="27" y="425"/>
      <point x="82" y="471"/>
      <point x="155" y="471" type="curve" smooth="yes"/>
      <point x="197" y="471"/>
      <point x="224" y="457"/>
      <point x="241" y="437" type="curve"/>
      <point x="244" y="437" type="line"/>
      <point x="244" y="549" type="line"/>
      <point x="-10" y="549" type="line"/>
      <point x="-10" y="606" type="line"/>
      <point x="383" y="606" type="line"/>
    </contour>
    <contour>
      <point x="128" y="408" type="curve"/>
      <point x="233" y="215" type="line"/>
      <point x="240" y="233"/>
      <point x="244" y="255"/>
      <point x="244" y="283" type="curve" smooth="yes"/>
      <point x="244" y="306" type="line" smooth="yes"/>
      <point x="244" y="380"/>
      <point x="219" y="417"/>
      <point x="168" y="417" type="curve" smooth="yes"/>
      <point x="152" y="417"/>
      <point x="139" y="414"/>
    </contour>
    <contour>
      <point x="92" y="305" type="curve" smooth="yes"/>
      <point x="92" y="283" type="line" smooth="yes"/>
      <point x="92" y="202"/>
      <point x="117" y="173"/>
      <point x="168" y="173" type="curve" smooth="yes"/>
      <point x="182" y="173"/>
      <point x="195" y="176"/>
      <point x="205" y="182" type="curve"/>
      <point x="101" y="373" type="line"/>
      <point x="95" y="356"/>
      <point x="92" y="334"/>
    </contour>
  </outline>
</glyph>
<glyph name="madeva" format="1">
  <advance width="474"/>
  <unicode hex="092E"/>
  <outline>
    <contour>
      <point x="376" y="0" type="move" name="Anchor-3"/>
    </contour>
    <contour>
      <point x="376" y="606" type="move" name="Anchor-2"/>
    </contour>
    <contour>
      <point x="484" y="549" type="line"/>
      <point x="408" y="549" type="line"/>
      <point x="408" y="0" type="line"/>
      <point x="345" y="0" type="line"/>
      <point x="345" y="258" type="line"/>
      <point x="216" y="258" type="line"/>
      <point x="216" y="212" type="line" smooth="yes"/>
      <point x="216" y="150"/>
      <point x="173" y="108"/>
      <point x="111" y="108" type="curve" smooth="yes"/>
      <point x="51" y="108"/>
      <point x="3" y="154"/>
      <point x="3" y="212" type="curve" smooth="yes"/>
      <point x="3" y="274"/>
      <point x="46" y="314"/>
      <point x="110" y="314" type="curve" smooth="yes"/>
      <point x="154" y="314" type="line"/>
      <point x="154" y="549" type="line"/>
      <point x="-10" y="549" type="line"/>
      <point x="-10" y="606" type="line"/>
      <point x="484" y="606" type="line"/>
    </contour>
    <contour>
      <point x="345" y="314" type="line"/>
      <point x="345" y="549" type="line"/>
      <point x="216" y="549" type="line"/>
      <point x="216" y="314" type="line"/>
    </contour>
    <contour>
      <point x="154" y="258" type="line"/>
      <point x="110" y="258" type="line" smooth="yes"/>
      <point x="85" y="258"/>
      <point x="66" y="239"/>
      <point x="66" y="212" type="curve" smooth="yes"/>
      <point x="66" y="185"/>
      <point x="86" y="165"/>
      <point x="111" y="165" type="curve" smooth="yes"/>
      <point x="137" y="165"/>
      <point x="154" y="184"/>
      <point x="154" y="212" type="curve" smooth="yes"/>
    </contour>
  </outline>
</glyph>
<glyph name="radeva" format="1">
  <advance width="284"/>
  <unicode hex="0930"/>
  <outline>
    <contour>
      <point x="143" y="0" type="move" name="Anchor-3"/>
    </contour>
    <contour>
      <point x="189" y="606" type="move" name="Anchor-2"/>
    </contour>
    <contour>
      <point x="221" y="549" type="line"/>
      <point x="221" y="428" type="line" smooth="yes"/>
      <point x="221" y="333"/>
      <point x="179" y="278"/>
      <point x="99" y="271" type="curve"/>
      <point x="256" y="0" type="line"/>
      <point x="188" y="0" type="line"/>
      <point x="29" y="279" type="line"/>
      <point x="29" y="318" type="line"/>
      <point x="62" y="318" type="line" smooth="yes"/>
      <point x="125" y="318"/>
      <point x="158" y="355"/>
      <point x="158" y="424" type="curve" smooth="yes"/>
      <point x="158" y="549" type="line"/>
      <point x="-10" y="549" type="line"/>
      <point x="-10" y="606" type="line"/>
      <point x="294" y="606" type="line"/>
      <point x="294" y="549" type="line"/>
    </contour>
  </outline>
</glyph>
<glyph name="rradeva" format="1">
  <advance width="284"/>
  <unicode hex="0931"/>
  <outline>
    <contour>
      <point x="189" y="0" type="move" name="Anchor-3"/>
    </contour>
    <contour>
      <point x="189" y="606" type="move" name="Anchor-2"/>
    </contour>
    <contour>
      <point x="221" y="549" type="line"/>
      <point x="221" y="398" type="line" smooth="yes"/>
      <point x="221" y="309"/>
      <point x="184" y="257"/>
      <point x="116" y="251" type="curve"/>
      <point x="236" y="0" type="line"/>
      <point x="168" y="0" type="line"/>
      <point x="49" y="259" type="line"/>
      <point x="49" y="298" type="line"/>
      <point x="82" y="298" type="line" smooth="yes"/>
      <point x="132" y="298"/>
      <point x="158" y="332"/>
      <point x="158" y="394" type="curve" smooth="yes"/>
      <point x="158" y="549" type="line"/>
      <point x="-10" y="549" type="line"/>
      <point x="-10" y="606" type="line"/>
      <point x="294" y="606" type="line"/>
      <point x="294" y="549" type="line"/>
    </contour>
    <contour>
      <point x="29" y="82" type="line"/>
      <point x="93" y="82" type="line"/>
      <point x="93" y="18" type="line"/>
      <point x="29" y="18" type="line"/>
    </contour>
  </outline>
</glyph>
<glyph name="ladeva" format="1">
  <advance width="553"/>
  <unicode hex="0932"/>
  <outline>
    <contour>
      <point x="454" y="0" type="move" name="Anchor-3"/>
    </contour>
    <contour>
      <point x="454" y="606" type="move" name="Anchor-2"/>
    </contour>
    <contour>
      <point x="486" y="549" type="line"/>
      <point x="486" y="0" type="line"/>
      <point x="423" y="0" type="line"/>
      <point x="423" y="264" type="line" smooth="yes"/>
      <point x="423" y="332"/>
      <point x="403" y="374"/>
      <point x="354" y="374" type="curve" smooth="yes"/>
      <point x="305" y="374"/>
      <point x="289" y="318"/>
      <point x="289" y="258" type="curve" smooth="yes"/>
      <point x="289" y="192" type="line"/>
      <point x="225" y="192" type="line"/>
      <point x="225" y="258" type="line" smooth="yes"/>
      <point x="225" y="318"/>
      <point x="209" y="374"/>
      <point x="159" y="374" type="curve" smooth="yes"/>
      <point x="111" y="374"/>
      <point x="91" y="321"/>
      <point x="91" y="235" type="curve" smooth="yes"/>
      <point x="91" y="111"/>
      <point x="133" y="57"/>
      <point x="236" y="57" type="curve" smooth="yes"/>
      <point x="252" y="57" type="line"/>
      <point x="252" y="0" type="line"/>
      <point x="239" y="0" type="line" smooth="yes"/>
      <point x="92" y="0"/>
      <point x="26" y="70"/>
      <point x="26" y="237" type="curve" smooth="yes"/>
      <point x="26" y="358"/>
      <point x="71" y="431"/>
      <point x="149" y="431" type="curve" smooth="yes"/>
      <point x="207" y="431"/>
      <point x="241" y="392"/>
      <point x="256" y="339" type="curve"/>
      <point x="259" y="339" type="line"/>
      <point x="272" y="392"/>
      <point x="302" y="431"/>
      <point x="359" y="431" type="curve" smooth="yes"/>
      <point x="384" y="431"/>
      <point x="406" y="421"/>
      <point x="423" y="405" type="curve"/>
      <point x="423" y="549" type="line"/>
      <point x="-10" y="549" type="line"/>
      <point x="-10" y="606" type="line"/>
      <point x="562" y="606" type="line"/>
      <point x="562" y="549" type="line"/>
    </contour>
  </outline>
</glyph>
<glyph name="shadeva" format="1">
  <advance width="475"/>
  <unicode hex="0936"/>
  <outline>
    <contour>
      <point x="377" y="0" type="move" name="Anchor-3"/>
    </contour>
    <contour>
      <point x="377" y="606" type="move" name="Anchor-2"/>
    </contour>
    <contour>
      <point x="279" y="462" type="curve" smooth="yes"/>
      <point x="279" y="346"/>
      <point x="213" y="265"/>
      <point x="118" y="253" type="curve"/>
      <point x="274" y="0" type="line"/>
      <point x="206" y="0" type="line"/>
      <point x="47" y="259" type="line"/>
      <point x="47" y="298" type="line"/>
      <point x="65" y="298" type="line" smooth="yes"/>
      <point x="167" y="298"/>
      <point x="215" y="366"/>
      <point x="215" y="456" type="curve" smooth="yes"/>
      <point x="215" y="509"/>
      <point x="199" y="558"/>
      <point x="156" y="558" type="curve" smooth="yes"/>
      <point x="122" y="558"/>
      <point x="105" y="525"/>
      <point x="105" y="491" type="curve" smooth="yes"/>
      <point x="105" y="464" type="line"/>
      <point x="45" y="464" type="line"/>
      <point x="43" y="471"/>
      <point x="41" y="488"/>
      <point x="41" y="502" type="curve" smooth="yes"/>
      <point x="41" y="580"/>
      <point x="94" y="617"/>
      <point x="156" y="617" type="curve" smooth="yes"/>
      <point x="234" y="617"/>
      <point x="279" y="556"/>
    </contour>
    <contour>
      <point x="485" y="549" type="line"/>
      <point x="408" y="549" type="line"/>
      <point x="408" y="0" type="line"/>
      <point x="346" y="0" type="line"/>
      <point x="346" y="549" type="line"/>
      <point x="313" y="549" type="line"/>
      <point x="313" y="606" type="line"/>
      <point x="485" y="606" type="line"/>
    </contour>
  </outline>
</glyph>
<glyph name="ssadeva" format="1">
  <advance width="379"/>
  <unicode hex="0937"/>
  <outline>
    <contour>
      <point x="282" y="0" type="move" name="Anchor-3"/>
    </contour>
    <contour>
      <point x="282" y="606" type="move" name="Anchor-2"/>
    </contour>
    <contour>
      <point x="391" y="549" type="line"/>
      <point x="315" y="549" type="line"/>
      <point x="315" y="0" type="line"/>
      <point x="252" y="0" type="line"/>
      <point x="252" y="155" type="line"/>
      <point x="232" y="132"/>
      <point x="203" y="120"/>
      <point x="166" y="120" type="curve" smooth="yes"/>
      <point x="91" y="120"/>
      <point x="51" y="168"/>
      <point x="51" y="255" type="curve" smooth="yes"/>
      <point x="51" y="549" type="line"/>
      <point x="-9" y="549" type="line"/>
      <point x="-9" y="606" type="line"/>
      <point x="391" y="606" type="line"/>
    </contour>
    <contour>
      <point x="114" y="549" type="line"/>
      <point x="114" y="538" type="line"/>
      <point x="252" y="285" type="line"/>
      <point x="252" y="549" type="line"/>
    </contour>
    <contour>
      <point x="183" y="179" type="curve" smooth="yes"/>
      <point x="211" y="179"/>
      <point x="234" y="191"/>
      <point x="246" y="215" type="curve"/>
      <point x="114" y="456" type="line"/>
      <point x="114" y="247" type="line" smooth="yes"/>
      <point x="114" y="205"/>
      <point x="138" y="179"/>
    </contour>
  </outline>
</glyph>
<glyph name="sadeva" format="1">
  <advance width="494"/>
  <unicode hex="0938"/>
  <outline>
    <contour>
      <point x="396" y="0" type="move" name="Anchor-3"/>
    </contour>
    <contour>
      <point x="396" y="606" type="move" name="Anchor-2"/>
    </contour>
    <contour>
      <point x="428" y="549" type="line"/>
      <point x="428" y="0" type="line"/>
      <point x="365" y="0" type="line"/>
      <point x="365" y="243" type="line"/>
      <point x="116" y="243" type="line"/>
      <point x="256" y="0" type="line"/>
      <point x="188" y="0" type="line"/>
      <point x="29" y="279" type="line"/>
      <point x="29" y="318" type="line"/>
      <point x="62" y="318" type="line" smooth="yes"/>
      <point x="125" y="318"/>
      <point x="158" y="355"/>
      <point x="158" y="424" type="curve" smooth="yes"/>
      <point x="158" y="549" type="line"/>
      <point x="-10" y="549" type="line"/>
      <point x="-10" y="606" type="line"/>
      <point x="504" y="606" type="line"/>
      <point x="504" y="549" type="line"/>
    </contour>
    <contour>
      <point x="221" y="549" type="line"/>
      <point x="221" y="428" type="line" smooth="yes"/>
      <point x="221" y="365"/>
      <point x="203" y="321"/>
      <point x="168" y="295" type="curve"/>
      <point x="365" y="295" type="line"/>
      <point x="365" y="549" type="line"/>
    </contour>
  </outline>
</glyph>
<glyph name="hadeva" format="1">
  <advance width="342"/>
  <unicode hex="0939"/>
  <outline>
    <contour>
      <point x="208" y="-30" type="move" name="Anchor-3"/>
    </contour>
    <contour>
      <point x="256" y="606" type="move" name="Anchor-2"/>
    </contour>
    <contour>
      <point x="287" y="375" type="line"/>
      <point x="157" y="375" type="line" smooth="yes"/>
      <point x="119" y="375"/>
      <point x="105" y="360"/>
      <point x="105" y="330" type="curve" smooth="yes"/>
      <point x="105" y="292"/>
      <point x="140" y="288"/>
      <point x="166" y="285" type="curve" smooth="yes"/>
      <point x="254" y="283"/>
      <point x="302" y="247"/>
      <point x="302" y="172" type="curve" smooth="yes"/>
      <point x="302" y="156"/>
      <point x="301" y="149"/>
      <point x="300" y="142" type="curve"/>
      <point x="239" y="142" type="line"/>
      <point x="239" y="157" type="line" smooth="yes"/>
      <point x="239" y="203"/>
      <point x="215" y="227"/>
      <point x="172" y="227" type="curve" smooth="yes"/>
      <point x="131" y="227"/>
      <point x="100" y="196"/>
      <point x="100" y="117" type="curve" smooth="yes"/>
      <point x="100" y="58"/>
      <point x="140" y="25"/>
      <point x="212" y="25" type="curve" smooth="yes"/>
      <point x="280" y="25" type="line"/>
      <point x="280" y="-24" type="line"/>
      <point x="264" y="-29"/>
      <point x="235" y="-31"/>
      <point x="217" y="-31" type="curve" smooth="yes"/>
      <point x="97" y="-31"/>
      <point x="36" y="22"/>
      <point x="36" y="126" type="curve" smooth="yes"/>
      <point x="36" y="185"/>
      <point x="54" y="229"/>
      <point x="82" y="256" type="curve"/>
      <point x="44" y="275"/>
      <point x="38" y="306"/>
      <point x="38" y="329" type="curve" smooth="yes"/>
      <point x="38" y="392"/>
      <point x="76" y="430"/>
      <point x="158" y="430" type="curve" smooth="yes"/>
      <point x="227" y="430" type="line"/>
      <point x="227" y="549" type="line"/>
      <point x="-10" y="549" type="line"/>
      <point x="-10" y="606" type="line"/>
      <point x="362" y="606" type="line"/>
      <point x="362" y="549" type="line"/>
      <point x="287" y="549" type="line"/>
    </contour>
  </outline>
</glyph>
<glyph name="oeMatradeva" format="1">
  <advance width="0"/>
  <unicode hex="093A"/>
  <outline>
    <contour>
      <point x="-98" y="606" type="move" name="_Anchor-5"/>
    </contour>
    <contour>
      <point x="-98" y="606" type="move" name="_Anchor-2"/>
    </contour>
    <contour>
      <point x="-98" y="606" type="move" name="_Anchor-0"/>
    </contour>
    <contour>
      <point x="-129" y="596" type="line"/>
      <point x="-129" y="792" type="line"/>
      <point x="-66" y="792" type="line"/>
      <point x="-66" y="596" type="line"/>
    </contour>
  </outline>
</glyph>
<glyph name="nuktadeva" format="1">
  <advance width="0"/>
  <unicode hex="093C"/>
  <outline>
    <contour>
      <point x="-64" y="-57" type="line"/>
      <point x="-64" y="-121" type="line"/>
      <point x="-128" y="-121" type="line"/>
      <point x="-128" y="-57" type="line"/>
    </contour>
  </outline>
</glyph>
<glyph name="iMatradeva" format="1">
  <advance width="195"/>
  <unicode hex="093F"/>
  <outline>
    <contour>
      <point x="95" y="0" type="move" name="Anchor-3"/>
    </contour>
    <contour>
      <point x="95" y="606" type="move" name="Anchor-2"/>
    </contour>
    <contour>
      <point x="232" y="830" type="curve" smooth="yes"/>
      <point x="289" y="830"/>
      <point x="374" y="802"/>
      <point x="492" y="737" type="curve"/>
      <point x="492" y="673" type="line"/>
      <point x="367" y="747"/>
      <point x="283" y="773"/>
      <point x="235" y="773" type="curve" smooth="yes"/>
      <point x="143" y="773"/>
      <point x="129" y="687"/>
      <point x="129" y="628" type="curve" smooth="yes"/>
      <point x="129" y="606" type="line"/>
      <point x="205" y="606" type="line"/>
      <point x="205" y="549" type="line"/>
      <point x="129" y="549" type="line"/>
      <point x="129" y="0" type="line"/>
      <point x="66" y="0" type="line"/>
      <point x="66" y="549" type="line"/>
      <point x="-10" y="549" type="line"/>
      <point x="-10" y="606" type="line"/>
      <point x="66" y="606" type="line"/>
      <point x="66" y="634" type="line" smooth="yes"/>
      <point x="66" y="692"/>
      <point x="85" y="830"/>
    </contour>
  </outline>
</glyph>
<glyph name="iiMatradeva" format="1">
  <advance width="190"/>
  <unicode hex="0940"/>
  <outline>
    <contour>
      <point x="95" y="0" type="move" name="Anchor-3"/>
    </contour>
    <contour>
      <point x="95" y="606" type="move" name="Anchor-2"/>
    </contour>
    <contour>
      <point x="205" y="549" type="line"/>
      <point x="129" y="549" type="line"/>
      <point x="129" y="0" type="line"/>
      <point x="66" y="0" type="line"/>
      <point x="66" y="549" type="line"/>
      <point x="-10" y="549" type="line"/>
      <point x="-10" y="606" type="line"/>
      <point x="66" y="606" type="line"/>
      <point x="66" y="689" type="line" smooth="yes"/>
      <point x="66" y="737"/>
      <point x="53" y="769"/>
      <point x="6" y="769" type="curve" smooth="yes"/>
      <point x="-42" y="769"/>
      <point x="-58" y="725"/>
      <point x="-58" y="683" type="curve" smooth="yes"/>
      <point x="-58" y="673" type="line"/>
      <point x="-119" y="673" type="line"/>
      <point x="-120" y="678"/>
      <point x="-120" y="685"/>
      <point x="-120" y="693" type="curve" smooth="yes"/>
      <point x="-120" y="783"/>
      <point x="-65" y="827"/>
      <point x="11" y="827" type="curve" smooth="yes"/>
      <point x="88" y="827"/>
      <point x="129" y="781"/>
      <point x="129" y="700" type="curve" smooth="yes"/>
      <point x="129" y="606" type="line"/>
      <point x="205" y="606" type="line"/>
    </contour>
  </outline>
</glyph>
<glyph name="uMatradeva" format="1">
  <advance width="0"/>
  <unicode hex="0941"/>
  <outline>
    <contour>
      <point x="-96" y="0" type="move" name="_Anchor-4"/>
    </contour>
    <contour>
      <point x="-96" y="0" type="move" name="_Anchor-3"/>
    </contour>
    <contour>
      <point x="-96" y="0" type="move" name="_Anchor-1"/>
    </contour>
    <contour>
      <point x="-289" y="-116" type="curve"/>
      <point x="-289" y="-39" type="line"/>
      <point x="-219" y="-121"/>
      <point x="-165" y="-161"/>
      <point x="-108" y="-161" type="curve" smooth="yes"/>
      <point x="-61" y="-161"/>
      <point x="-38" y="-132"/>
      <point x="-38" y="-99" type="curve" smooth="yes"/>
      <point x="-38" y="-65"/>
      <point x="-65" y="-37"/>
      <point x="-106" y="-37" type="curve" smooth="yes"/>
      <point x="-129" y="-37"/>
      <point x="-153" y="-42"/>
      <point x="-174" y="-48" type="curve"/>
      <point x="-174" y="4" type="line"/>
      <point x="-153" y="13"/>
      <point x="-128" y="21"/>
      <point x="-100" y="21" type="curve" smooth="yes"/>
      <point x="-37" y="21"/>
      <point x="25" y="-25"/>
      <point x="25" y="-100" type="curve" smooth="yes"/>
      <point x="25" y="-175"/>
      <point x="-33" y="-218"/>
      <point x="-102" y="-218" type="curve" smooth="yes"/>
      <point x="-170" y="-218"/>
      <point x="-232" y="-179"/>
    </contour>
  </outline>
</glyph>
<glyph name="uuMatradeva" format="1">
  <advance width="0"/>
  <unicode hex="0942"/>
  <outline>
    <contour>
      <point x="-98" y="0" type="move" name="_Anchor-4"/>
    </contour>
    <contour>
      <point x="-98" y="0" type="move" name="_Anchor-3"/>
    </contour>
    <contour>
      <point x="-98" y="0" type="move" name="_Anchor-1"/>
    </contour>
    <contour>
      <point x="-120" y="21" type="curve" smooth="yes"/>
      <point x="-40" y="21"/>
      <point x="46" y="-30"/>
      <point x="53" y="-218" type="curve"/>
      <point x="-10" y="-218" type="line"/>
      <point x="-10" y="-107"/>
      <point x="-60" y="-37"/>
      <point x="-121" y="-37" type="curve" smooth="yes"/>
      <point x="-161" y="-37"/>
      <point x="-185" y="-65"/>
      <point x="-185" y="-99" type="curve" smooth="yes"/>
      <point x="-185" y="-134"/>
      <point x="-156" y="-162"/>
      <point x="-113" y="-162" type="curve" smooth="yes"/>
      <point x="-95" y="-162"/>
      <point x="-77" y="-158"/>
      <point x="-62" y="-153" type="curve"/>
      <point x="-62" y="-206" type="line"/>
      <point x="-76" y="-212"/>
      <point x="-97" y="-218"/>
      <point x="-116" y="-218" type="curve" smooth="yes"/>
      <point x="-180" y="-218"/>
      <point x="-248" y="-177"/>
      <point x="-248" y="-97" type="curve" smooth="yes"/>
      <point x="-248" y="-24"/>
      <point x="-191" y="21"/>
    </contour>
  </outline>
</glyph>
